<svg xmlns="http://www.w3.org/2000/svg" xmlns:xlink="http://www.w3.org/1999/xlink" width="1010" height="897.94" xmlns:v="https://vecta.io/nano"><path d="M69.8 652.74c-5.06-6.87-11.57-11.2-20.43-11.2-8.5 0-16.63 6.5-16.63 15.37 0 22.96 54.06 13.38 54.06 59.12 0 27.3-17 46.65-44.84 46.65-18.8 0-32.54-10.85-41.95-26.58l17.18-16.8c3.62 10.5 13.2 19.9 24.6 19.9 10.85 0 17.54-9.22 17.54-19.7 0-14.1-13.02-18.08-23.7-22.24C18.1 690.03 5.25 681.16 5.25 660c0-22.6 16.8-40.86 39.78-40.86 12.1 0 28.93 5.97 37.25 15.2l-12.48 18.4zm68.52 68.7l21.7-54.06h12.1l21.88 54.8 18.8-51.9h27.48l-41.22 90.58h-12.84l-18.98-54.06-21.15 54.06h-13.02L92.2 670.28h27.66l18.44 51.16zm132.7-2.7c0 11.2 4.34 23.87 17.54 23.87 8.32 0 13.56-5.06 17-12.1l23.32 3.8c-6.15 17.72-21.7 27.66-40.32 27.66-27.48 0-44.3-19.53-44.3-46.47s14.28-48.1 43.03-48.1c29.1 0 42.13 21.52 42.13 48.28v3.07h-58.4zM305.57 703c-1.27-9.04-7.05-17.9-16.8-17.9-10.13 0-15.73 8.68-17 17.9h33.8zm60.57 15.73c0 11.2 4.34 23.87 17.54 23.87 8.32 0 13.56-5.06 17-12.1l23.32 3.8c-6.15 17.72-21.7 27.66-40.32 27.66-27.48 0-44.3-19.53-44.3-46.47s14.28-48.1 43.03-48.1c29.1 0 42.13 21.52 42.13 48.28v3.07h-58.4zM400.67 703c-1.27-9.04-7.05-17.9-16.82-17.9-10.12 0-15.73 8.68-17 17.9h33.82zm68.53 56.05h-25.3V691.6h-8.68v-21.34h8.68v-30h25.3v30h15.55v21.34H469.2v67.44zm158.93-82.63v-53.7h26.58v136.33h-26.58v-60.93h-49.18v60.93h-26.58V622.72h26.58v53.7h49.18zm137.05 38.33c0 27.48-18.8 47.2-46.65 47.2s-46.65-19.7-46.65-47.2c0-27.66 18.98-47.37 46.65-47.37s46.65 19.7 46.65 47.37zm-67.62 0c0 11.93 7.96 24.77 20.97 24.77 13.02 0 20.97-12.84 20.97-24.77 0-12.3-7.95-24.95-20.97-24.95-13 0-20.97 12.66-20.97 24.95zm109.4-36.52h.36c4.88-7.05 13.56-10.85 21.7-10.85 11.03 0 19.7 4.52 25.5 13.92 5.42-8.68 15.55-13.92 25.85-13.92 22.6 0 28.2 17 28.2 36.34v55.33h-25.3V712.4c0-8.68.54-24.77-11.93-24.77-13.74 0-13.56 18.62-13.56 27.84v43.57h-25.3v-45.02c0-8.68 1.08-26.4-12.1-26.4-14.1 0-13.38 18.44-13.38 27.84v43.57h-25.3v-88.78H807v7.98zm144.65 40.5c0 11.2 4.34 23.87 17.54 23.87 8.32 0 13.56-5.06 17-12.1l23.32 3.8c-6.15 17.72-21.7 27.66-40.32 27.66-27.48 0-44.3-19.53-44.3-46.47s14.28-48.1 43.03-48.1c29.1 0 42.13 21.52 42.13 48.28v3.07h-58.4zM986.13 703c-1.27-9.04-7.05-17.9-16.82-17.9-10.12 0-15.73 8.68-17 17.9h33.82z"/><g fill="#ff6700"><path d="M7.64 830.3H26c19.05 0 31.8 14.25 31.8 33.03 0 18.53-13.1 32.86-31.9 32.86H7.64v-65.9zM20.5 885h2.1c15.82 0 21.94-8.74 21.94-21.76 0-14.33-7.34-21.76-21.94-21.76h-2.1V885zm60.8-43.52V856h20.45v11.2H81.3V885h21.24v11.2H68.47v-65.9h34.08v11.2H81.3zM128.33 885h18.18v11.2h-31v-65.9h12.85V885zm39.5 11.2h-12.85v-65.9h12.85v65.9zm57.77-48.43c-3.58-4.37-9-7-14.5-7-12.32 0-19.4 11.36-19.4 22.72 0 11.1 7.34 22.2 19.3 22.2 5.5 0 11-2.88 14.6-7V894c-4.8 2.27-9.6 3.93-14.94 3.93-18.53 0-32.25-16-32.25-34.17 0-18.7 13.2-35.22 32.5-35.22 5.16 0 10.22 1.4 14.68 3.84v15.4zm25.7 48.43h-12.85v-65.9h12.85v65.9z"/><use xlink:href="#E"/><path d="M337.37 830.3h12.85v36.88c0 8.13.7 19.58 11.62 19.58s11.62-11.45 11.62-19.58V830.3h12.85v39.4c0 16.08-6.82 28.23-24.47 28.23s-24.47-12.15-24.47-28.23v-39.4zm93.43 14.5c-2.45-3.32-5.6-5.42-9.88-5.42-4.1 0-8.04 3.15-8.04 7.43 0 11.1 26.13 6.47 26.13 28.58 0 13.2-8.2 22.55-21.67 22.55-9.1 0-15.73-5.24-20.27-12.85l8.3-8.13c1.75 5.07 6.38 9.6 11.9 9.6 5.24 0 8.48-4.46 8.48-9.53 0-6.82-6.3-8.74-11.45-10.75-8.48-3.5-14.68-7.78-14.68-18 0-10.92 8.13-19.75 19.23-19.75 5.86 0 13.98 2.88 18 7.34l-6.04 8.92zm85.55 11.45V830.3h12.85v65.9h-12.85v-29.45h-23.77v29.45h-12.85v-65.9h12.85v25.95h23.77z"/><use xlink:href="#E" x="277.99"/><path d="M664.92 855.3h-.18l-14.94 41.77h-4.46l-14.42-41.77h-.17l-5.86 40.9h-12.93l11.1-67.64h9.1L648.4 872l15.56-43.43h9.26l9.87 67.64h-12.93l-5.24-40.9zM706 841.48V856h20.45v11.2H706V885h21.23v11.2h-34.08v-65.9h34.08v11.2H706zm47 54.72h-12.85v-65.9h17.48c13.8 0 22.8 5.5 22.8 20.45 0 13.98-7.6 20.8-21.06 20.8H753v24.64zm0-35.3h2.62c7.6 0 11.7-1.66 11.7-10.23 0-8.48-4.9-9.7-12.06-9.7H753v19.93zm44.16 21.4l-5.42 13.9H778.2l25.7-67.64h9.96l25 67.64H825.1l-5.07-13.9h-22.88zm11.1-34.43h-.17l-7.25 23.95h15.64l-8.22-23.95zm97.1 13.27v1.66c0 18.6-9.53 35.13-29.98 35.13-19.23 0-31.37-16.25-31.37-34.43 0-18.8 12.5-34.96 32.16-34.96 11.2 0 20.97 5.68 26.04 15.73l-11.36 6.12c-2.62-5.94-8.2-10.5-15.03-10.5-12.4 0-18.53 12.67-18.53 23.6s6.2 23.07 18.62 23.07c8.04 0 14.77-7 15.03-14.94h-13.98v-10.5h28.4zm23.6-19.66V856h20.45v11.2h-20.45V885h21.23v11.2H916.1v-65.9h34.08v11.2h-21.23zm65.2 3.32c-2.45-3.32-5.6-5.42-9.87-5.42-4.1 0-8.04 3.15-8.04 7.43 0 11.1 26.13 6.47 26.13 28.58 0 13.2-8.2 22.55-21.67 22.55-9.1 0-15.73-5.24-20.27-12.85l8.3-8.13c1.75 5.07 6.38 9.6 11.88 9.6 5.24 0 8.48-4.46 8.48-9.53 0-6.82-6.3-8.74-11.45-10.75-8.48-3.5-14.68-7.78-14.68-18 0-10.92 8.13-19.75 19.23-19.75 5.85 0 13.98 2.88 18 7.34l-6.04 8.92z"/></g><path d="M649.65 405.02V303.77h-43.4v57.85L505 260.36 230.16 535.2l28.93 28.93L505 318.23l245.9 245.9 28.93-28.93zM505 347.16L331.65 520.52C380 556.83 439.88 578.6 505 578.6s125-21.78 173.35-58.1L505 347.16zm-7.23 180.8H461.6V491.8h36.16v36.16zm0-50.62H461.6V441.2h36.16v36.16zm50.62 50.62h-36.16V491.8h36.16v36.16zm-36.16-50.62V441.2h36.16v36.16h-36.16z"/><path d="M489.66 245.02L505 229.67l15.34 15.35 64.22 64.22v-27.17h86.8v113.96l65.62 65.62c35.87-48.17 57.34-107.68 57.34-172.35C794.3 129.53 664.8 0 505 0 345.23 0 215.7 129.53 215.7 289.3c0 64.67 21.5 124.17 57.34 172.35l216.62-216.63z" fill="#ff6700"/><defs ><path  d="M61.77-71.65c.02.07.01.13-.03.2-.05.1-.1.06-.17.13a.64.64 0 0 0-.08.36c-.17.06-.01.23-.02.35 0 .05-.04.1-.04.16-.01.12.02.27.07.37a1.66 1.66 0 0 0 .44.54c.2.15.36.57.6.63.18.04.38-.1.54-.14.18-.04.4.01.57-.05.22-.08.13-.34.3-.45.1-.07.3-.01.4-.05.2-.07.34-.26.38-.46.02-.08.01-.14.04-.22.04-.1.1-.16.1-.3-.01-.06-.05-.12-.06-.2-.02-.1 0-.22 0-.34 0-.2.02-.38-.08-.55-.38-.7-1.24-.93-1.97-.8-.18.03-.3.13-.44.2-.17.1-.14.17-.32.22-.08.03-.22.12-.2.22 0 .12 0 .05.01.17-.02.01-.02 0-.03-.03"/><path  d="M69.44-25.74c.02.07.01.13-.03.2-.05.1-.1.06-.17.13a.64.64 0 0 0-.08.36c-.16.06 0 .23-.01.35 0 .05-.04.1-.04.16-.01.12.02.27.07.37a1.66 1.66 0 0 0 .44.54c.2.15.36.57.6.63.18.04.38-.1.54-.14.18-.04.4.01.57-.05.22-.08.13-.34.3-.45.1-.07.3-.01.4-.05.2-.07.34-.26.38-.46.02-.08.01-.14.04-.22.04-.1.1-.16.1-.3-.01-.06-.05-.12-.06-.2-.02-.1 0-.22 0-.34 0-.2.02-.38-.08-.55-.38-.7-1.24-.93-1.97-.8-.18.03-.3.13-.44.2-.17.1-.14.17-.32.22-.08.03-.22.12-.2.22 0 .12 0 .05.01.17-.02.01-.02 0-.03-.03"/><path  d="M54.12-10.43c.02.07.01.13-.03.2-.05.1-.1.06-.17.13a.64.64 0 0 0-.08.36c-.17.06-.01.23-.02.35 0 .05-.04.1-.04.16-.01.12.02.27.07.37a1.66 1.66 0 0 0 .44.54c.2.15.36.57.6.63.18.04.38-.1.54-.14.18-.04.4.01.57-.05.22-.08.13-.34.3-.45.1-.07.3-.01.4-.05.2-.07.34-.26.38-.46.01-.08 0-.15.03-.22.04-.1.1-.16.1-.3-.01-.06-.05-.12-.06-.2-.02-.1 0-.22 0-.34 0-.2.02-.38-.08-.55-.38-.7-1.24-.93-1.97-.8-.18.03-.3.13-.44.2-.17.1-.14.17-.32.22-.08.03-.22.12-.2.22 0 .12 0 .05.01.17-.02.01-.02 0-.03-.03"/><path id="E" d="M261.87 863.15c0-18.44 13.37-34.6 32.6-34.6s32.6 16.17 32.6 34.6c0 18.88-13.37 34.78-32.6 34.78-19.23.01-32.6-15.9-32.6-34.78zm13.28-.52c0 9.96 8.4 22.63 19.3 22.63s19.3-12.67 19.3-22.63c0-10.66-8.04-21.4-19.3-21.4s-19.3 10.75-19.3 21.4z"/></defs></svg>