<svg xmlns="http://www.w3.org/2000/svg" width="744.28" height="626.17" xmlns:v="https://vecta.io/nano"><g fill="#519311"><path d="M522.37 81.58s-10.68 25.1-6.9 60.88c3 28.34 23.24 53.35 23.24 53.35s-53.4-11.13-60.25-60.24c-6.3-45.2 30.12-75.3 30.12-75.3L526.75 64l-4.38 17.58z"/><path d="M523.63 75.3s9.87-6.75 30.12 0c45.2 15.07 60.25 45.2 60.25 45.2s0-60.25-45.2-75.3c-35.27-11.76-37.74 10.57-37.74 10.57l-14.53 9.5 7.1 10.05z"/><path d="M508.57 75.3s-30.12 30.12-49.1 55.22c-22.98 30.38-26.2 65.28-26.2 65.28s-39.86-52.52 0-105.44c39.88-52.9 90.38-45.2 90.38-45.2l10.97 10.7-26.04 19.43z"/><path d="M523.63 75.3s7.24-31.08 30.12-45.2C576.64 16 614 15.06 614 15.06s-60.25-30.12-90.38 0c-33.1 33.1-18.06 55.15-18.06 55.15l2.44 21.7 15.63-16.6z"/><path d="M508.57 60.25s-15.06-15.06-60.25 0c-27.04 9-45.2 30.12-45.2 30.12s0-45.2 30.12-60.25c44.33-22.17 76.28 13.05 76.28 13.05l17.62 15.03-18.58 2.05z"/><path d="M493.5 45.2C478.44 30.12 478.44 0 493.5 0s30.12 15.06 45.2 45.2c3.22 6.46-15.06 15.06-15.06 15.06L493.5 45.2z"/><path d="M522.4 52.1l-11.94 15.67c10.83 10.83 46.3 47.5 58.37 120.5 7.15 43.3-11.16 94-45.2 128.03-28.88 28.88-90.38 30.12-150.62 30.12-51.7 0-125.7-.12-231.3-38.2C170.82 408.58 263.26 482 373 482c133.1 0 241-107.9 241-241 0-76.62-35.9-144.75-91.6-188.9z"/></g><path d="M297.7 120.48c0 33.28-26.96 60.26-60.25 60.26s-60.25-26.98-60.25-60.26c0-33.26 26.96-60.24 60.25-60.24s60.25 26.98 60.25 60.24zM375 316.3c-2.96 0-5.93-.25-8.88-.53l-6.78-.86h-.03c-23.84-3.73-48.35-13.67-16.1-13.67 39.72 0 52.97-20.1 52.97-20.1s-26.48 5.02-52.97 5.02c-5.06 0-10.13-.66-15.2-1.55-18.12-3.84-37.54-13.5-15.24-13.5.22 0 .3-.04.44-.06 34.33-.67 45.9-20.03 45.9-20.03s-23.83 5.02-47.67 5.02S263.78 241 239.94 241c-35.76 0-47.67 20.1-47.67 20.1s23.2-4.88 46.7-5c.7 0 1.37.04 2.03.06 8.94.18 17.86 2.33 26.8 5.02 11.8 4.37 15.62 9.97-1.37 9.97-.38 0-.65.1-1 .1-.54-.01-1.1-.1-1.62-.1-39.73 0-52.98 20.1-52.98 20.1s26.48-5.02 52.98-5.02c8.43 0 16.9 1.6 25.36 3.7 12.18 4.46 14.67 11.37-4.18 11.37-.37 0-.62.1-1 .1-40.8 1.1-54.63 19.98-54.63 19.98s29.12-5.02 58.25-5.02c29.14 0 58.28 15.06 87.4 15.06 43.7 0 58.26-20.1 58.26-20.1S404.1 316.3 375 316.3z" fill="#ff9100"/><path d="M113.46 300.45l15.43 39.84c1.68 4.33 2.88 8.66 3.6 13 .47 4.45-.18 9.38-1.96 14.8-1.2 4.45-3.74 8.66-7.63 12.65-3.7 4.03-8.65 7.25-14.87 9.66-8.4 3.26-17.17 3.35-26.3.3-9.54-3.07-16.6-10.23-21.2-21.47l-9.82-25.35-44.3 17.15L0 344.4l113.46-43.95zM66.9 337.62l9.57 24.7c2.5 6.15 6.3 10.04 11.35 11.67 4.9 1.52 9.65 1.4 14.23-.4 3.8-1.47 6.78-3.32 8.9-5.54a15.18 15.18 0 0 0 3.5-7.44c.9-4.3.44-8.68-1.42-13.17l-9.33-24.1-36.8 14.26zm11.92 140.1l-.2-.26c-3.3.53-6.5-.1-9.57-1.9-3.1-1.7-6.37-4.85-9.8-9.4-5.55-7.55-7.85-14.86-6.9-21.9.7-7.2 4.1-13.1 10.18-17.7 5.82-4.4 12.03-6.17 18.64-5.35 6.7.75 12.78 4.67 18.25 11.74l14.05 18.64 7.3-5.5c6.18-4.52 5.7-11.34-1.45-20.46-2.53-3.36-4.88-5.73-7.06-7.13-2.37-1.38-5-1.9-7.9-1.55l.36-16.87c10.75-.08 19.8 4.94 27.14 15.04 6.44 8.36 9.87 16.33 10.28 23.9.33 7.64-3.7 14.7-12.08 21.13l-47.25 35.6-10.14-13.45 6.13-4.6zm23.2-17.5l-12.18-16.16c-6.1-7.7-11.8-9.5-17.1-5.36-2.36 1.78-3.6 4.3-3.7 7.56-.36 3.3 1.15 7.2 4.53 11.7 4.17 5.7 7.86 9.18 11.08 10.4 3.06 1 7.2-.45 12.4-4.37l5-3.77zm90.32-27.25L205.07 444 140 519.14c-2.6 3-2.3 5.86.9 8.62l4.4 3.82-10.7 12.36-5.68-4.92c-4.64-4.02-7.44-8.53-8.38-13.52-1.07-5.18.88-10.64 5.84-16.38l65.94-76.14zm1.26 54.65l15.4 6.93-3.77 8.37.3.13c8.04-3.9 16.3-3.9 24.84-.07 5.43 2.57 9.42 5.5 11.97 8.78 2.4 3.46 4.3 7.33 5.66 11.6 9.34-4.2 19.2-3.93 29.54.86 6.54 2.95 11.5 7.95 14.84 15 3.28 7.1 2.98 15.2-.88 24.3l-23.64 52.5-15.37-6.92 21.2-47.1c2.5-5.54 2.92-10.4 1.28-14.63-1.62-4.27-4.75-7.45-9.4-9.54-4.65-2.1-9.13-2.34-13.45-.74-4.35 1.53-7.77 5.06-10.26 10.6l-21.2 47.1-15.36-6.9 21.2-47.1c2.5-5.54 2.92-10.4 1.28-14.63-1.67-4.3-4.82-7.5-9.47-9.58s-9.1-2.33-13.37-.7c-4.4 1.5-7.85 5.02-10.34 10.56l-21.2 47.1-15.37-6.92 35.58-79zm174.86 16.9l17.84-.33 2.26 121.65-17.84.33-2.26-121.65zm58.37 92.16c8.35 5.68 17.8 7.3 28.4 4.86 4.74-1.1 8.4-2.93 10.96-5.52s3.46-5.6 2.67-9c-.7-3.04-2.08-4.95-4.14-5.73-2.13-.82-4.73-.94-7.8-.35l-14.82 2.04c-7.04.94-13.2-.16-18.46-3.3-5.34-3-8.9-8.1-10.66-15.28-1.9-8.7-.42-15.9 4.42-21.57 4.68-5.64 11.38-9.47 20.1-11.48 3.78-.87 7.23-1.4 10.34-1.6 3.12-.15 6.1-.04 8.96.34a49.54 49.54 0 0 1 15.52 5.4l-7.36 14.62a52.06 52.06 0 0 0-11.37-3.52c-3.8-.57-7.95-.33-12.47.7-5.16 1.2-8.54 2.97-10.16 5.34-1.72 2.4-2.24 5.1-1.55 8.07.33 1.93 1.52 3.4 3.6 4.4 1.94 1.2 4.96 1.57 9.06 1.1l13.82-2.06c8.67-1.3 15.44-.07 20.3 3.73 4.57 3.75 7.67 9.13 9.28 16.13 1.78 8.22 0 15.3-5.33 21.2-5.26 6-12.78 10.2-22.58 12.57-13.34 3.07-26.5.8-39.5-6.83l8.77-14.26zm47.12-112.04l15.27-7.1 41.96 90.1c1.67 3.58 4.4 4.5 8.23 2.7l5.3-2.46 6.9 14.82-6.8 3.17c-5.57 2.6-10.82 3.3-15.77 2.12-5.17-1.14-9.35-5.15-12.55-12.03l-42.52-91.32zm136.53 49.94l-.26.2c.53 3.3-.1 6.48-1.87 9.58-1.7 3.1-4.83 6.38-9.38 9.83-7.54 5.57-14.83 7.9-21.9 6.96-7.2-.68-13.1-4.06-17.7-10.13-4.4-5.8-6.2-12.02-5.4-18.63.74-6.7 4.63-12.8 11.7-18.28l18.6-14.1-5.52-7.3c-4.54-6.17-11.36-5.67-20.46 1.5-3.35 2.54-5.72 4.9-7.1 7.07-1.38 2.38-1.9 5-1.53 7.9l-16.87-.32c-.1-10.75 4.9-19.8 14.98-27.17 8.34-6.46 16.3-9.9 23.88-10.34 7.64-.35 14.7 3.66 21.17 12.02l35.73 47.16-13.42 10.17-4.64-6.13zm-17.54-23.16l-16.13 12.22c-7.7 6.1-9.47 11.82-5.3 17.12 1.78 2.35 4.3 3.58 7.57 3.7 3.32.35 7.2-1.17 11.68-4.56 5.7-4.18 9.16-7.88 10.38-11.1 1-3.06-.47-7.2-4.4-12.38l-3.8-4.98zm-3.2-62.32l10.2-13.4 7.3 5.55.2-.26c-2.1-8.55-.43-16.4 5-23.57 4.2-5.53 10.06-9.06 17.57-10.6 7.53-1.45 15.32.7 23.37 6.5l45.86 34.82-10.18 13.4-41.13-31.23c-4.83-3.67-9.46-5.22-13.88-4.65-4.43.5-8.1 2.67-11.05 6.54-2.93 3.86-4.06 8.02-3.38 12.46.6 4.46 3.33 8.52 8.16 12.2l41.13 31.23-10.18 13.4-69-52.4zm140-87.74c4.03 7.5 4.53 15.48 1.5 23.9-1.94 4.68-4.5 8.33-7.74 10.94-3.23 2.8-6.86 4.76-10.9 5.9-3.38 1.17-7.4 1.26-12.02.27-4.48-.76-11.5-3-21.05-6.7-9.7-3.77-16.45-6.87-20.22-9.32-3.88-2.3-6.67-5.04-8.38-8.2-5.04-7.04-5.85-15.38-2.4-25.02 1.56-4.02 3.85-7.4 6.88-10.15 3.03-2.46 6.53-4.6 10.5-6.4l-41.18-15.98 6.1-15.7 113.43 44-6.1 15.7-8.43-3.25zm-63.16-6.73c-1.44 3.72-1.9 6.8-1.35 9.28.57 2.7 1.88 5.04 3.93 7 2.08 1.9 4.5 3.56 7.23 4.97a103.05 103.05 0 0 0 9.27 4.12 91.49 91.49 0 0 0 9.15 3.03c3.2.9 6.2 1.33 9 1.33 2.73-.1 5.27-.93 7.62-2.5 2.22-1.4 4.05-3.95 5.5-7.67s1.8-6.96 1.08-9.73c-.67-2.75-2.07-5-4.2-6.75-2.06-1.95-4.52-3.7-7.4-5.2-2.93-1.25-5.82-2.43-8.68-3.54-3.12-1.2-6.13-2.32-9.04-3.33-3-.76-5.92-1.1-8.75-1.05-2.76-.14-5.3.57-7.66 2.15-2.34 1.56-4.23 4.2-5.68 7.92z" fill="#0062b2"/><defs ><path  d="M61.77-71.65c.02.07.01.13-.03.2-.05.1-.1.06-.17.13a.64.64 0 0 0-.08.36c-.17.06-.01.23-.02.35 0 .05-.04.1-.04.16-.01.12.02.27.07.37a1.66 1.66 0 0 0 .44.54c.2.15.36.57.6.63.18.04.38-.1.54-.14.18-.04.4.01.57-.05.22-.08.13-.34.3-.45.1-.07.3-.01.4-.05.2-.07.34-.26.38-.46.02-.08.01-.14.04-.22.04-.1.1-.16.1-.3-.01-.06-.05-.12-.06-.2-.02-.1 0-.22 0-.34 0-.2.02-.38-.08-.55-.38-.7-1.24-.93-1.97-.8-.18.03-.3.13-.44.2-.17.1-.14.17-.32.22-.08.03-.22.12-.2.22 0 .12 0 .05.01.17-.02.01-.02 0-.03-.03"/><path  d="M69.44-25.74c.02.07.01.13-.03.2-.05.1-.1.06-.17.13a.64.64 0 0 0-.08.36c-.16.06 0 .23-.01.35 0 .05-.04.1-.04.16-.01.12.02.27.07.37a1.66 1.66 0 0 0 .44.54c.2.15.36.57.6.63.18.04.38-.1.54-.14.18-.04.4.01.57-.05.22-.08.13-.34.3-.45.1-.07.3-.01.4-.05.2-.07.34-.26.38-.46.02-.08.01-.14.04-.22.04-.1.1-.16.1-.3-.01-.06-.05-.12-.06-.2-.02-.1 0-.22 0-.34 0-.2.02-.38-.08-.55-.38-.7-1.24-.93-1.97-.8-.18.03-.3.13-.44.2-.17.1-.14.17-.32.22-.08.03-.22.12-.2.22 0 .12 0 .05.01.17-.02.01-.02 0-.03-.03"/><path  d="M54.12-10.43c.02.07.01.13-.03.2-.05.1-.1.06-.17.13a.64.64 0 0 0-.08.36c-.17.06-.01.23-.02.35 0 .05-.04.1-.04.16-.01.12.02.27.07.37a1.66 1.66 0 0 0 .44.54c.2.15.36.57.6.63.18.04.38-.1.54-.14.18-.04.4.01.57-.05.22-.08.13-.34.3-.45.1-.07.3-.01.4-.05.2-.07.34-.26.38-.46.01-.08 0-.15.03-.22.04-.1.1-.16.1-.3-.01-.06-.05-.12-.06-.2-.02-.1 0-.22 0-.34 0-.2.02-.38-.08-.55-.38-.7-1.24-.93-1.97-.8-.18.03-.3.13-.44.2-.17.1-.14.17-.32.22-.08.03-.22.12-.2.22 0 .12 0 .05.01.17-.02.01-.02 0-.03-.03"/></defs></svg>