<svg xmlns="http://www.w3.org/2000/svg" xmlns:xlink="http://www.w3.org/1999/xlink" width="1010" height="526.59" xmlns:v="https://vecta.io/nano"><path d="M621.68 3.57c2.38 2.38 3.57 5.2 3.57 8.45v144.3c0 13.03-3.2 26.12-9.58 39.27s-16.35 26.87-29.87 41.15c-4.76 5-11.03 10.52-18.8 16.53a345.35 345.35 0 0 1-23.86 16.91c-8.14 5.26-15.72 9.65-22.73 13.15-7.02 3.5-12.15 5.26-15.4 5.26s-8.4-1.75-15.4-5.26c-7.02-3.5-14.6-7.9-22.73-13.15a342.95 342.95 0 0 1-23.86-16.91c-7.77-6-14.03-11.52-18.8-16.53-13.53-14.28-23.5-28-29.87-41.15-6.4-13.15-9.58-26.24-9.58-39.27V12.02c0-3.25 1.2-6.07 3.57-8.45S393.54 0 396.8 0h216.44c3.23 0 6.05 1.2 8.44 3.57zM601.2 156.32V24.05H505v240.12c5-2 14.65-7.45 28.93-16.35 14.28-8.9 25.8-18.1 34.57-27.62 11.02-12.02 19.22-23.17 24.6-33.44s8.1-20.42 8.1-30.44z" fill="#d8ba84"/><path d="M0 304.7c8.26-1.38 19.1-2.56 32.86-2.56 16.92 0 29.32 3.93 37.2 11.02 7.28 6.3 11.6 15.94 11.6 27.74 0 12-3.54 21.45-10.23 28.33-9.05 9.64-23.8 14.56-40.53 14.56-5.12 0-9.84-.2-13.77-1.18v53.12H0V304.7zm17.12 63.95c3.74.98 8.46 1.38 14.17 1.38 20.66 0 33.25-10.04 33.25-28.33 0-17.5-12.4-25.97-31.28-25.97-7.48 0-13.18.6-16.13 1.38v51.54zm77.48-24.5c6.34-1.1 15.84-1.93 25.62-1.93 13.36 0 22.45 2.2 28.65 7.44 5.1 4.27 8 10.75 8 18.6 0 11.98-8.13 20.1-16.8 23.28v.4c6.6 2.48 10.6 8.95 12.95 17.9 2.9 11.57 5.37 22.3 7.3 25.9h-17.5c-1.38-2.76-3.58-10.33-6.2-21.9-2.62-12.12-7.02-15.98-16.67-16.25h-8.54v38.16H94.6v-91.62zm16.8 41.05h10.06c11.43 0 18.6-6.06 18.6-15.3 0-10.2-7.16-14.88-18.18-14.88-5.37 0-8.82.4-10.47.83v29.34zm78.5-42.3v92.84h-16.94V342.9h16.94zm40.63 92.84L200.5 342.9h18.46l12.67 42.15c3.58 11.7 6.6 22.6 9.1 33.88h.28c2.48-11.02 5.78-22.3 9.5-33.6L264 342.9h18.04l-32.1 92.84h-19.42zm72.57-26.3l-8 26.3h-17.5l29.75-92.84H329l30.17 92.84H341l-8.4-26.3h-29.5zm26.6-12.8l-7.3-22.87c-1.8-5.65-3.3-11.98-4.68-17.36h-.28c-1.38 5.37-2.75 11.85-4.4 17.36l-7.16 22.87h23.83zM435.75 433c-4 2.07-12.8 4.27-23.97 4.27-29.48 0-47.38-18.6-47.38-46.83 0-30.58 21.2-49.04 49.6-49.04 11.16 0 19.15 2.34 22.6 4.13l-3.72 13.5c-4.4-1.93-10.47-3.58-18.18-3.58-18.87 0-32.5 11.84-32.5 34.16 0 20.4 11.98 33.47 32.37 33.47 6.9 0 14.05-1.38 18.46-3.44l2.75 13.36zm36.22 2.74v-38.7l-29.34-54.13h19.28l11.16 23.83c3.17 6.9 5.5 12.12 8 18.46h.28c2.34-5.92 4.96-11.7 8.13-18.46l11.16-23.83h19.15l-30.85 53.72v39.12h-16.96zm101.67-20.84c7.67 4.72 18.9 8.66 30.7 8.66 17.5 0 27.74-9.25 27.74-22.63 0-12.4-7.08-19.48-25-26.37-21.64-7.67-35.02-18.9-35.02-37.58 0-20.66 17.12-36 42.9-36 13.58 0 23.4 3.15 29.32 6.5l-4.72 13.97c-4.33-2.36-13.18-6.3-25.18-6.3-18.1 0-25 10.82-25 19.87 0 12.4 8.07 18.5 26.37 25.58 22.43 8.66 33.84 19.48 33.84 38.96 0 20.46-15.15 38.37-46.43 38.37-12.8 0-26.76-3.94-33.84-8.66l4.32-14.35zm106.2-72v37.2h39.26v-37.2h16.94v92.84H719.1v-40.9h-39.26v40.9H662.9V342.9h16.94zm92.55 0v92.84h-16.94V342.9h16.94zm71.35 51.66h-35v27.27h39.12v13.9H791.8V342.9h54v13.9h-37.05v23.97h35v13.78zm19-51.66h16.94v78.65h38.16v14.2h-55.1V342.9zm67.9 1.24c7.44-1.24 16.94-1.93 27-1.93 17.36 0 29.34 3.58 37.88 10.74 8.95 7.3 14.46 18.32 14.46 34.16 0 16.53-5.65 28.93-14.46 36.9-9.23 8.4-23.97 12.67-42 12.67-9.92 0-17.36-.55-22.87-1.24v-91.3zm16.94 78.65c2.34.4 5.92.4 9.37.4 22.04.14 35.12-11.98 35.12-35.54.14-20.52-11.7-32.23-32.92-32.23-5.37 0-9.23.4-11.57.96v66.4z" fill="#2e2e35"/><g fill="#d8ba84"><path d="M262.1 473.38c4.4-.7 10.15-1.1 16.2-1.1 10.08 0 16.6 1.8 21.72 5.67 5.5 4.1 8.97 10.63 8.97 20 0 10.15-3.7 17.16-8.82 21.5-5.6 4.64-14.1 6.85-24.48 6.85-6.22 0-10.63-.4-13.62-.8v-52.1zm12.05 43.3c1.02.24 2.68.24 4.17.24 10.86.08 17.95-5.9 17.95-18.58.08-11.02-6.38-16.84-16.7-16.84-2.68 0-4.4.24-5.43.47v34.7z"/><use xlink:href="#E"/><path d="M374.9,482.74h-14.25v-10.08h40.77v10.08h-14.48v42.98H374.9V482.74z"/><use xlink:href="#E" x="86.5"/><path d="M475.96 513.36c3.23 1.65 8.2 3.3 13.3 3.3 5.5 0 8.42-2.28 8.42-5.75 0-3.3-2.52-5.2-8.9-7.48-8.82-3.07-14.56-7.95-14.56-15.66 0-9.05 7.56-15.98 20.07-15.98 5.98 0 10.4 1.26 13.54 2.68l-2.68 9.68a25.23 25.23 0 0 0-11.1-2.52c-5.2 0-7.7 2.36-7.7 5.12 0 3.4 3 4.88 9.84 7.48 9.37 3.46 13.77 8.34 13.77 15.82 0 8.9-6.85 16.53-21.4 16.53-6.06 0-12.04-1.65-15.03-3.3l2.44-9.92zm56.04-40.7v30.54c0 9.13 3.46 13.77 9.6 13.77 6.3 0 9.76-4.4 9.76-13.77v-30.54h11.96v29.75c0 16.37-8.26 24.16-22.12 24.16-13.38 0-21.25-7.4-21.25-24.32v-29.6H532zm43.67.7c3.7-.63 8.9-1.1 16.2-1.1 7.4 0 12.67 1.42 16.2 4.25 3.38 2.68 5.67 7.08 5.67 12.28s-1.73 9.6-4.88 12.6c-4.1 3.86-10.15 5.6-17.24 5.6-1.58 0-3-.08-4.1-.24v18.97h-11.9V473.4zm11.9 24.08c1.02.24 2.28.32 4 .32 6.38 0 10.3-3.23 10.3-8.66 0-4.88-3.38-7.8-9.37-7.8-2.44 0-4.1.24-4.96.47v15.66zm35.8-24.08c3.7-.63 8.9-1.1 16.2-1.1 7.4 0 12.67 1.42 16.2 4.25 3.38 2.68 5.67 7.08 5.67 12.28s-1.73 9.6-4.88 12.6c-4.1 3.86-10.15 5.6-17.24 5.6-1.57 0-3-.08-4.1-.24v18.97h-11.9V473.4zm11.9 24.08c1.02.24 2.28.32 4 .32 6.38 0 10.3-3.23 10.3-8.66 0-4.88-3.4-7.8-9.37-7.8-2.44 0-4.1.24-4.96.47v15.66zm35.8-24.8h12.04v42.98h21.1v10.08h-33.14v-53.06zm47.38 53.05V504l-16.76-31.33h13.7l5.43 12.75c1.65 3.86 2.76 6.7 4.1 10.15h.16c1.18-3.3 2.44-6.38 4-10.15l5.35-12.75h13.46l-17.47 30.93v22.12h-11.97z"/></g><defs ><path  d="M61.77-71.65c.02.07.01.13-.03.2-.05.1-.1.06-.17.13a.64.64 0 0 0-.08.36c-.17.06-.01.23-.02.35 0 .05-.04.1-.04.16-.01.12.02.27.07.37a1.66 1.66 0 0 0 .44.54c.2.15.36.57.6.63.18.04.38-.1.54-.14.18-.04.4.01.57-.05.22-.08.13-.34.3-.45.1-.07.3-.01.4-.05.2-.07.34-.26.38-.46.02-.08.01-.14.04-.22.04-.1.1-.16.1-.3-.01-.06-.05-.12-.06-.2-.02-.1 0-.22 0-.34 0-.2.02-.38-.08-.55-.38-.7-1.24-.93-1.97-.8-.18.03-.3.13-.44.2-.17.1-.14.17-.32.22-.08.03-.22.12-.2.22 0 .12 0 .05.01.17-.02.01-.02 0-.03-.03"/><path  d="M69.44-25.74c.02.07.01.13-.03.2-.05.1-.1.06-.17.13a.64.64 0 0 0-.08.36c-.16.06 0 .23-.01.35 0 .05-.04.1-.04.16-.01.12.02.27.07.37a1.66 1.66 0 0 0 .44.54c.2.15.36.57.6.63.18.04.38-.1.54-.14.18-.04.4.01.57-.05.22-.08.13-.34.3-.45.1-.07.3-.01.4-.05.2-.07.34-.26.38-.46.02-.08.01-.14.04-.22.04-.1.1-.16.1-.3-.01-.06-.05-.12-.06-.2-.02-.1 0-.22 0-.34 0-.2.02-.38-.08-.55-.38-.7-1.24-.93-1.97-.8-.18.03-.3.13-.44.2-.17.1-.14.17-.32.22-.08.03-.22.12-.2.22 0 .12 0 .05.01.17-.02.01-.02 0-.03-.03"/><path  d="M54.12-10.43c.02.07.01.13-.03.2-.05.1-.1.06-.17.13a.64.64 0 0 0-.08.36c-.17.06-.01.23-.02.35 0 .05-.04.1-.04.16-.01.12.02.27.07.37a1.66 1.66 0 0 0 .44.54c.2.15.36.57.6.63.18.04.38-.1.54-.14.18-.04.4.01.57-.05.22-.08.13-.34.3-.45.1-.07.3-.01.4-.05.2-.07.34-.26.38-.46.01-.08 0-.15.03-.22.04-.1.1-.16.1-.3-.01-.06-.05-.12-.06-.2-.02-.1 0-.22 0-.34 0-.2.02-.38-.08-.55-.38-.7-1.24-.93-1.97-.8-.18.03-.3.13-.44.2-.17.1-.14.17-.32.22-.08.03-.22.12-.2.22 0 .12 0 .05.01.17-.02.01-.02 0-.03-.03"/><path id="E" d="M329.96 512.1l-3.78 13.62h-12.44l16.22-53.05h15.74l16.45 53.05h-12.9l-4.1-13.62h-15.2zm13.46-8.97l-3.3-11.26c-.94-3.15-1.9-7.08-2.68-10.23h-.16c-.8 3.15-1.57 7.16-2.44 10.23l-3.15 11.26h11.74z"/></defs></svg>