<svg xmlns="http://www.w3.org/2000/svg" width="1010" height="238.6" xmlns:v="https://vecta.io/nano"><path d="M262.36 119.3h-57.32L187.8 84.97c-1.7-3.57-5.75-5.75-9.63-5.44-4.2.47-7.6 3.1-8.7 7.14l-20.04 66.8L119 46.9c-1.24-4.2-5.13-7.15-9.8-7.15-4.5 0-8.4 3.1-9.48 7.46l-18 72.08H16C7.77 106.87 0 90.56 0 72.7 0 27.18 27.8 0 74.25 0c27.18 0 52.66 21.44 64.93 33.55C151.45 21.44 176.93 0 204.1 0c46.45 0 74.25 27.18 74.25 72.7 0 17.86-7.76 34.17-16 46.6zm-16.15 19.88c-1.86 2.02-3.1 3.1-3.42 3.42l-96.77 93.2c-1.86 1.86-4.35 2.8-6.83 2.8-2.5 0-4.97-.93-6.83-2.8l-96.93-93.5c-.3-.16-1.55-1.24-3.26-3.1H89.5c4.5 0 8.54-3.1 9.63-7.46L110 88.07l29.5 103.6c1.24 4.2 5.13 7.15 9.63 7.15 4.35 0 8.23-2.95 9.48-7.15l22.68-75.34 8.7 17.4c1.7 3.26 5.13 5.44 8.85 5.44h47.37z" fill="red"/><path d="M387.85 82.37h-28.3v36.7H342.4V31.4h17.16v35.7h28.3V31.4H405v87.68h-17.16v-36.7zm90.3 30.06c-1.1 1-2.5 1.98-4.2 2.94s-3.72 1.86-6 2.7c-2.3.84-4.82 1.5-7.58 2s-5.68.75-8.77.75c-5.34 0-10.13-.75-14.34-2.25-4.22-1.5-7.8-3.7-10.7-6.58s-5.16-6.34-6.7-10.4c-1.55-4.05-2.32-8.66-2.32-13.84 0-5.5.88-10.33 2.63-14.47 1.75-4.13 4.15-7.58 7.2-10.33 3.05-2.76 6.62-4.82 10.7-6.2s8.52-2.07 13.28-2.07c3.17 0 6.45.42 9.83 1.25a26.76 26.76 0 0 1 9.33 4.32c2.84 2.05 5.16 4.78 6.95 8.2s2.7 7.77 2.7 13.03c0 3.6-.42 7.48-1.25 11.65h-45.1c.08 2.67.65 4.93 1.7 6.76a13.22 13.22 0 0 0 4.13 4.5c1.7 1.16 3.67 2.03 5.9 2.57 2.2.54 4.57.8 7.08.8 5 0 9.12-.58 12.34-1.75 3.2-1.17 5.82-2.6 7.83-4.26l5.4 10.67zM451.1 67.7c-2.17 0-4.22.3-6.14.9s-3.65 1.47-5.2 2.62-2.82 2.57-3.82 4.27-1.6 3.62-1.75 5.74H465c0-4.17-1.15-7.46-3.44-9.9-2.3-2.4-5.78-3.63-10.46-3.63zm46.6-7c3.34-1.5 7.2-2.8 11.6-3.88 4.38-1.08 9.58-1.63 15.6-1.63 4.34 0 8.04.52 11.1 1.57 3.05 1.04 5.5 2.53 7.4 4.45s3.24 4.22 4.07 6.9 1.25 5.68 1.25 9.02c0 4.26-.15 7.9-.44 10.9-.3 3-.44 5.68-.44 8.02 0 1.75.08 3.72.25 5.9a48.57 48.57 0 0 1 .38 3.38h8.14v13.78h-21.03l-1.65-8.52h-.62c-1.66 2.6-4.03 4.82-7.1 6.7s-7.22 2.82-12.45 2.82c-6.23 0-11.16-1.67-14.82-5-3.65-3.34-5.48-7.77-5.48-13.28 0-3.5.64-6.53 1.93-9.08s3.15-4.63 5.6-6.26 5.4-2.84 8.84-3.63c3.44-.8 7.28-1.2 11.5-1.2 1.5 0 3.07.08 4.73.25s3.7.33 6.1.5a12.47 12.47 0 0 0 .25-2.5v-2.4c0-3.17-.9-5.45-2.74-6.83-1.82-1.38-4.52-2.07-8.08-2.07-4.23 0-8.04.54-11.44 1.63s-6.26 2.17-8.58 3.26l-3.84-12.8zm21.32 45.97c3.96 0 6.93-.73 8.92-2.2 1.98-1.46 3.43-3.03 4.34-4.7v-7.5c-.83-.17-2.07-.36-3.72-.56s-3.43-.3-5.33-.3c-1.57 0-3.14.15-4.7.44s-2.97.75-4.2 1.38-2.23 1.44-2.97 2.44-1.1 2.2-1.1 3.63c0 2.34.68 4.16 2.04 5.45 1.36 1.28 3.6 1.93 6.75 1.93zm47.44-1.37H582V70.22h-15.53V56.44h28.18l1.88 8.27h.5c2.34-2.76 5-5.05 8.02-6.9s6.5-2.76 10.52-2.76c5 0 8.96 1.84 11.84 5.5 2.88 3.68 4.32 9.8 4.32 18.4h-14.66c0-3-.44-5.2-1.3-6.58-.88-1.38-2.28-2.07-4.2-2.07-3.34 0-6.03.83-8.08 2.5s-3.78 3.6-5.2 5.76v26.68h27.18v13.78h-59V105.3zm84.8-35.08h-12.4V56.44h12.4V42.16l16.28-4.63v18.9h32.82V70.2h-32.82v17.9c0 6.43 1.2 11.08 3.63 13.97 2.42 2.88 5.8 4.32 10.15 4.32 2.25 0 4.3-.27 6.14-.8 1.83-.54 3.5-1.23 4.95-2.07 1.46-.83 2.8-1.75 4-2.76l3.32-2.76 7.52 11.27c-1.42 1.67-3.2 3.2-5.32 4.57a43.76 43.76 0 0 1-6.9 3.63 43.42 43.42 0 0 1-7.7 2.44c-2.67.58-5.3.88-7.9.88-9.35 0-16.4-2.6-21.1-7.83s-7.08-13.5-7.08-24.86V70.2zm59-38.82h25.93v30.06h.5c1.75-2 4.1-3.6 7.08-4.76 2.96-1.17 6.62-1.75 10.96-1.75 8.27 0 14.88 2.6 19.85 7.77s7.45 13 7.45 23.42c0 5.6-.84 10.54-2.5 14.84-1.67 4.3-4.03 7.9-7.08 10.77s-6.76 5.07-11.15 6.58c-4.38 1.5-9.33 2.25-14.84 2.25-6.5 0-11.96-.75-16.35-2.25-4.38-1.5-7.8-3-10.2-4.5V45.17h-9.64V31.4zm39.96 37.32c-1.17 0-2.46.2-3.88.63a18.52 18.52 0 0 0-4.07 1.75 17.23 17.23 0 0 0-3.63 2.82c-1.13 1.13-1.94 2.4-2.44 3.82v26.05c1.33.67 3.17 1.34 5.5 2 2.34.67 4.84 1 7.52 1a16.26 16.26 0 0 0 6.2-1.2c1.96-.8 3.67-2.02 5.14-3.7 1.46-1.67 2.6-3.76 3.44-6.26s1.25-5.5 1.25-9.02c0-5.93-1.27-10.4-3.82-13.4-2.56-3-6.3-4.5-11.22-4.5zm103.7 43.7c-1.1 1-2.5 1.98-4.2 2.94s-3.72 1.86-6 2.7c-2.3.84-4.82 1.5-7.58 2s-5.68.75-8.77.75c-5.34 0-10.13-.75-14.34-2.25-4.22-1.5-7.8-3.7-10.7-6.58s-5.16-6.34-6.7-10.4c-1.55-4.05-2.32-8.66-2.32-13.84 0-5.5.88-10.33 2.63-14.47 1.75-4.13 4.15-7.58 7.2-10.33 3.05-2.76 6.62-4.82 10.7-6.2s8.52-2.07 13.28-2.07c3.17 0 6.45.42 9.83 1.25a26.76 26.76 0 0 1 9.33 4.32c2.84 2.05 5.16 4.78 6.95 8.2s2.7 7.77 2.7 13.03c0 3.6-.42 7.48-1.25 11.65h-45.1c.08 2.67.65 4.93 1.7 6.76a13.22 13.22 0 0 0 4.13 4.5c1.7 1.16 3.67 2.03 5.9 2.57 2.2.54 4.57.8 7.08.8 5 0 9.12-.58 12.34-1.75 3.2-1.17 5.83-2.6 7.83-4.26l5.4 10.67zM826.87 67.7c-2.17 0-4.22.3-6.14.9s-3.65 1.47-5.2 2.62-2.82 2.57-3.82 4.27-1.6 3.62-1.75 5.74h30.8c0-4.17-1.15-7.46-3.44-9.9-2.3-2.4-5.78-3.63-10.46-3.63zm46.6-7c3.34-1.5 7.2-2.8 11.6-3.88 4.38-1.08 9.58-1.63 15.6-1.63 4.34 0 8.04.52 11.1 1.57 3.05 1.04 5.5 2.53 7.4 4.45s3.24 4.22 4.07 6.9 1.25 5.68 1.25 9.02c0 4.26-.15 7.9-.44 10.9-.3 3-.44 5.68-.44 8.02 0 1.75.08 3.72.25 5.9a48.57 48.57 0 0 1 .38 3.38h8.14v13.78H911.3l-1.65-8.52h-.62c-1.66 2.6-4.03 4.82-7.1 6.7s-7.22 2.82-12.45 2.82c-6.23 0-11.16-1.67-14.82-5-3.65-3.34-5.48-7.77-5.48-13.28 0-3.5.64-6.53 1.93-9.08s3.15-4.63 5.6-6.26 5.4-2.84 8.84-3.63c3.44-.8 7.28-1.2 11.5-1.2 1.5 0 3.07.08 4.73.25s3.7.33 6.1.5c.16-.83.25-1.67.25-2.5v-2.4c0-3.17-.9-5.45-2.74-6.83-1.82-1.38-4.52-2.07-8.08-2.07-4.23 0-8.04.54-11.44 1.63s-6.26 2.17-8.58 3.26l-3.84-12.8zm21.32 45.97c3.96 0 6.93-.73 8.92-2.2 1.98-1.46 3.43-3.03 4.33-4.7v-7.5c-.83-.17-2.06-.36-3.72-.56-1.65-.2-3.43-.3-5.33-.3-1.57 0-3.14.15-4.7.44s-2.97.75-4.2 1.38-2.23 1.44-2.97 2.44-1.1 2.2-1.1 3.63c0 2.34.68 4.16 2.04 5.45 1.37 1.28 3.62 1.93 6.76 1.93zm57.1-36.45h-12.4V56.44h12.4V42.16l16.28-4.63v18.9h32.82V70.2h-32.82v17.9c0 6.43 1.2 11.08 3.63 13.97s5.8 4.32 10.15 4.32c2.25 0 4.3-.27 6.14-.8s3.5-1.23 4.95-2.07c1.46-.83 2.8-1.75 4-2.76l3.32-2.76 7.52 11.27c-1.42 1.67-3.2 3.2-5.32 4.57a43.76 43.76 0 0 1-6.9 3.63 43.42 43.42 0 0 1-7.7 2.44c-2.67.58-5.3.88-7.9.88-9.35 0-16.4-2.6-21.1-7.83s-7.08-13.5-7.08-24.86V70.2zM367.7 188.9h7.65v13.92c-1.5 1.07-3.38 1.9-5.67 2.5-2.3.6-4.65.9-7.06.9-3.06 0-5.97-.45-8.73-1.36s-5.18-2.37-7.27-4.38c-2.1-2.02-3.76-4.64-5-7.86s-1.88-7.13-1.88-11.73c0-4.78.7-8.78 2.12-12s3.24-5.82 5.46-7.8c2.23-1.97 4.7-3.4 7.45-4.25s5.43-1.3 8.07-1.3c2.78 0 5.14.23 7.06.7 1.92.46 3.5 1 4.77 1.6v14.47h-7.65v-7.93a28.14 28.14 0 0 0-4.45-.35c-1.8 0-3.5.34-5.05 1-1.55.67-2.9 1.7-4.07 3.1s-2.06 3.14-2.7 5.25-.97 4.6-.97 7.48c0 2.5.3 4.8.9 6.85s1.48 3.84 2.64 5.32a11.99 11.99 0 0 0 4.24 3.45c1.67.8 3.57 1.22 5.7 1.22 1.53 0 3.02-.14 4.45-.42v-8.42zm43.08-4.02h-15.73v20.4h-9.53v-48.7h9.53v19.83h15.73v-19.83h9.53v48.7h-9.53v-20.4zm44.32 9.6h-14.54l-3.34 10.8h-9.53l15.73-48.7h9.53l15.66 48.7h-10l-3.5-10.8zm-12.32-7.65h10.44l-4.94-16.28h-.63l-4.87 16.28zm34.04-29.8l3.44-.52 3.7-.38 3.58-.2 3.2-.07a34.33 34.33 0 0 1 6.72.66c2.2.44 4.18 1.2 5.92 2.26a12.08 12.08 0 0 1 4.18 4.31c1.04 1.8 1.57 4.06 1.57 6.75 0 2-.2 3.72-.6 5.18s-.94 2.75-1.63 3.86c-.7 1.1-1.54 2.08-2.54 2.9s-2.08 1.54-3.24 2.2l11.76 21.3h-11l-9.8-19.07h-5.7v19.07h-9.53v-48.2zm14.6 7.3l-2.9.07c-.95.05-1.68.14-2.2.28v14.13h3.76c2.64 0 4.8-.6 6.47-1.8s2.5-3.2 2.5-6c0-2.1-.65-3.72-1.95-4.9s-3.2-1.77-5.7-1.77zm30.08 32.44h12.32v-31.73H521.5v-8.5h34.24v8.5h-12.4v31.73h12.4v8.5H521.5v-8.5zm49.68.82h7.93v-33.4h-6.68v8.42h-7.65v-16.08h38.13v16.08h-7.66v-8.42h-6.6v33.4h7.86v7.65h-25.33v-7.65zm53.17-10.3l-15.73-30.76h11.34l9.4 20.1h.35l9.6-20.1h10.23l-15.66 30.7v18.02h-9.53V187.3zm105.2 1.6h7.65v13.92c-1.48 1.07-3.38 1.9-5.67 2.5-2.3.6-4.65.9-7.06.9-3.06 0-5.97-.45-8.73-1.36s-5.18-2.37-7.27-4.38c-2.1-2.02-3.76-4.64-5-7.86s-1.88-7.13-1.88-11.73c0-4.78.7-8.78 2.12-12s3.24-5.82 5.46-7.8c2.23-1.97 4.7-3.4 7.45-4.25s5.43-1.3 8.07-1.3c2.78 0 5.14.23 7.06.7 1.92.46 3.5 1 4.77 1.6v14.47h-7.65v-7.93a28.14 28.14 0 0 0-4.45-.35c-1.8 0-3.5.34-5.05 1s-2.9 1.7-4.07 3.1-2.06 3.14-2.7 5.25-.97 4.6-.97 7.48c0 2.5.3 4.8.9 6.85.6 2.06 1.48 3.84 2.64 5.32a11.99 11.99 0 0 0 4.24 3.45c1.67.82 3.57 1.22 5.7 1.22 1.53 0 3-.14 4.45-.42v-8.42zm16.84-8c0-3.94.37-7.5 1.1-10.65.74-3.15 1.88-5.8 3.4-7.97s3.45-3.8 5.74-4.98c2.3-1.16 5-1.74 8.1-1.74 3.34 0 6.17.63 8.5 1.88s4.2 3 5.67 5.22 2.53 4.9 3.2 8 1 6.52 1 10.23c0 7.93-1.52 14.14-4.56 18.62s-7.64 6.7-13.8 6.7c-3.34 0-6.18-.63-8.52-1.88a15.37 15.37 0 0 1-5.7-5.22c-1.45-2.22-2.52-4.9-3.17-8-.64-3.1-.97-6.5-.97-10.22zm10.02 0c0 2.37.1 4.57.3 6.6s.6 3.82 1.18 5.32 1.4 2.7 2.5 3.58 2.54 1.32 4.35 1.32c1.62 0 2.97-.34 4.04-1s1.92-1.7 2.58-3.1c.65-1.4 1.1-3.14 1.36-5.25.25-2.1.38-4.6.38-7.48 0-2.27-.08-4.43-.24-6.47s-.53-3.83-1.1-5.36-1.43-2.75-2.54-3.65-2.6-1.36-4.45-1.36c-3.25 0-5.45 1.42-6.6 4.25-1.17 2.83-1.75 7.03-1.75 12.6zm45.58-4.44h-.35l.42 5.78v23.03h-9.05v-48.7h8.35l16.84 29.78h.35l-.63-5.84v-23.94h9.05v48.7h-8.35L802 176.46zm63.26 12.44h7.66v13.92c-1.5 1.07-3.38 1.9-5.67 2.5-2.3.6-4.65.9-7.06.9-3.06 0-5.97-.45-8.73-1.36s-5.18-2.37-7.27-4.38c-2.1-2.02-3.76-4.64-5-7.86s-1.88-7.13-1.88-11.73c0-4.78.7-8.78 2.12-12s3.24-5.82 5.46-7.8c2.23-1.97 4.7-3.4 7.45-4.25s5.43-1.3 8.07-1.3c2.78 0 5.14.23 7.06.7 1.92.46 3.5 1 4.77 1.6v14.47h-7.65v-7.93a28.14 28.14 0 0 0-4.45-.35c-1.8 0-3.5.34-5.04 1-1.56.67-2.9 1.7-4.07 3.1s-2.07 3.14-2.7 5.25c-.65 2.1-.97 4.6-.97 7.48 0 2.5.3 4.8.9 6.85.6 2.06 1.48 3.84 2.64 5.32a11.99 11.99 0 0 0 4.24 3.45c1.67.8 3.57 1.22 5.7 1.22 1.53 0 3.02-.14 4.45-.42v-8.42zm19.2-32.35h31.94v8.5H894v11.34h20.67v8.5H894v11.9h22.76v8.5h-32.3v-48.7zm44.68.5l3.45-.52 3.7-.38 3.58-.2 3.2-.07c2.27 0 4.5.22 6.7.66s4.17 1.2 5.92 2.26a11.97 11.97 0 0 1 4.17 4.31c1.04 1.8 1.57 4.06 1.57 6.75 0 2-.2 3.72-.6 5.18s-.94 2.75-1.63 3.86c-.7 1.1-1.54 2.08-2.54 2.9s-2.08 1.54-3.24 2.2l11.76 21.3h-11l-9.8-19.07h-5.7v19.07h-9.53v-48.2zm14.6 7.3l-2.9.07c-.95.05-1.68.14-2.2.28v14.13h3.76c2.64 0 4.8-.6 6.47-1.8s2.5-3.2 2.5-6c0-2.1-.65-3.72-1.95-4.9s-3.2-1.77-5.7-1.77zm34.53 33.26h7.93v-33.4h-6.68v8.42h-7.65v-16.08H1010v16.08h-7.65v-8.42h-6.6v33.4h7.86v7.65h-25.33v-7.65z"/><defs ><path  d="M61.77-71.65c.02.07.01.13-.03.2-.05.1-.1.06-.17.13a.64.64 0 0 0-.08.36c-.17.06-.01.23-.02.35 0 .05-.04.1-.04.16-.01.12.02.27.07.37a1.66 1.66 0 0 0 .44.54c.2.15.36.57.6.63.18.04.38-.1.54-.14.18-.04.4.01.57-.05.22-.08.13-.34.3-.45.1-.07.3-.01.4-.05.2-.07.34-.26.38-.46.02-.08.01-.14.04-.22.04-.1.1-.16.1-.3-.01-.06-.05-.12-.06-.2-.02-.1 0-.22 0-.34 0-.2.02-.38-.08-.55-.38-.7-1.24-.93-1.97-.8-.18.03-.3.13-.44.2-.17.1-.14.17-.32.22-.08.03-.22.12-.2.22 0 .12 0 .05.01.17-.02.01-.02 0-.03-.03"/><path  d="M69.44-25.74c.02.07.01.13-.03.2-.05.1-.1.06-.17.13a.64.64 0 0 0-.08.36c-.16.06 0 .23-.01.35 0 .05-.04.1-.04.16-.01.12.02.27.07.37a1.66 1.66 0 0 0 .44.54c.2.15.36.57.6.63.18.04.38-.1.54-.14.18-.04.4.01.57-.05.22-.08.13-.34.3-.45.1-.07.3-.01.4-.05.2-.07.34-.26.38-.46.02-.08.01-.14.04-.22.04-.1.1-.16.1-.3-.01-.06-.05-.12-.06-.2-.02-.1 0-.22 0-.34 0-.2.02-.38-.08-.55-.38-.7-1.24-.93-1.97-.8-.18.03-.3.13-.44.2-.17.1-.14.17-.32.22-.08.03-.22.12-.2.22 0 .12 0 .05.01.17-.02.01-.02 0-.03-.03"/><path  d="M54.12-10.43c.02.07.01.13-.03.2-.05.1-.1.06-.17.13a.64.64 0 0 0-.08.36c-.17.06-.01.23-.02.35 0 .05-.04.1-.04.16-.01.12.02.27.07.37a1.66 1.66 0 0 0 .44.54c.2.15.36.57.6.63.18.04.38-.1.54-.14.18-.04.4.01.57-.05.22-.08.13-.34.3-.45.1-.07.3-.01.4-.05.2-.07.34-.26.38-.46.01-.08 0-.15.03-.22.04-.1.1-.16.1-.3-.01-.06-.05-.12-.06-.2-.02-.1 0-.22 0-.34 0-.2.02-.38-.08-.55-.38-.7-1.24-.93-1.97-.8-.18.03-.3.13-.44.2-.17.1-.14.17-.32.22-.08.03-.22.12-.2.22 0 .12 0 .05.01.17-.02.01-.02 0-.03-.03"/></defs></svg>