<svg xmlns="http://www.w3.org/2000/svg" xmlns:xlink="http://www.w3.org/1999/xlink" width="1010" height="648.58" xmlns:v="https://vecta.io/nano"><g fill="#5b2812"><path d="M163.3 587.15c-.35 9.8-5.34 14.7-14.96 14.7-4.55 0-8.23-1.5-11.03-4.46s-4.12-6.74-3.94-11.3c.7-28-1.93-59.95-7.88-95.83L93.2 544.6C85.85 556.87 79.64 563 74.56 563c-4.38 0-9.98-4.8-16.8-14.44-1.75-2.63-10.94-17.33-27.57-44.1l.26 80.07c0 4.55-1.36 8.23-4.07 11.03-2.72 2.8-6.35 4.2-10.9 4.2-4.38 0-7.97-1.44-10.76-4.33-2.8-2.9-4.2-6.52-4.2-10.9L0 451.15c0-4.73 1.05-8.66 3.15-11.82 2.45-3.85 5.86-5.78 10.24-5.78 5.6 0 10.4 3.24 14.44 9.7l45.95 74.04 31.77-54.6c12.43-20.48 22.4-30.72 29.93-30.72 4.73 0 8.4 4.73 11.03 14.18 6.12 22.05 10.67 47 13.65 74.83 2.62 24.5 3.67 46.57 3.14 66.17zM293 478.46c0 .53-.18 1.66-.53 3.4-5.08 25.2-14.18 54.6-27.3 88.22-10.15 25.73-20.57 49.1-31.24 70.1-2.8 5.6-7.1 8.4-12.87 8.4-4.2 0-7.88-1.4-11.03-4.2s-4.72-6.3-4.72-10.5c0-2.45.6-4.9 1.84-7.35 8.4-16.28 16.7-34.56 24.94-54.87-14.7-10.85-25.2-20.56-31.5-29.14-7.7-10.15-13.65-23.8-17.85-40.96a17.25 17.25 0 0 1-.52-4.2c0-4.38 1.53-7.92 4.6-10.63s6.78-4.07 11.16-4.07c7.52 0 12.25 3.85 14.18 11.55 2.8 11.73 6.3 20.8 10.5 27.17 4.2 6.4 11.1 13.35 20.74 20.87 9.45-25.55 16.02-47.6 19.7-66.16 1.57-8.23 6.38-12.34 14.44-12.34 4.2 0 7.83 1.4 10.9 4.2s4.6 6.3 4.6 10.5zm133.1-18.38c0 4.03-1.62 7.48-4.86 10.37s-6.87 4.33-10.9 4.33c-5.78 0-10.07-2.8-12.87-8.4-1.93-3.85-3.76-6.65-5.5-8.4-16.1 2.62-28.7 10.94-37.8 24.94-8.05 12.6-12.08 27.48-12.08 44.63 0 9.45 1.57 18.3 4.73 26.52 4.2 11.38 10.24 16.72 18.1 16.02 11.38-1.05 21.53-8.84 30.46-23.37 2.97-4.9 7.1-7.35 12.34-7.35 4.2 0 7.88 1.44 11.03 4.33s4.72 6.43 4.72 10.63c0 2.8-.8 5.5-2.36 8.14-15.58 25.38-33.87 38.07-54.87 38.07-17.85 0-31.77-8.5-41.74-25.47-8.23-14-12.43-30.62-12.6-49.88-.36-32.9 10.6-58.63 32.82-77.2 16.8-14 32.56-21 47.26-21 12.95 0 23.7 8.58 32.3 25.73 1.2 2.45 1.83 4.9 1.83 7.35zm125.24 64.85c0 18.38-4.64 35.27-13.92 50.67-10.68 17.85-24.68 26.78-42 26.78-3.15 0-6.4-.35-9.72-1.05-12.6-2.62-22.14-9.54-28.62-20.74-5.78-9.8-8.66-21.62-8.66-35.44 0-18.38 4.63-35.18 13.9-50.4 10.85-17.85 24.85-26.78 42-26.78 3.15 0 6.4.35 9.72 1.05 12.6 2.63 22.14 9.54 28.6 20.74 5.8 9.62 8.67 21.35 8.67 35.18zm-29.93 1.3c0-5.25-1.05-10.68-3.15-16.28-2.63-6.83-6.13-10.67-10.5-11.55-6.48-1.4-12.7 2.28-18.64 11.03-4.73 6.83-7.88 13.9-9.45 21.27-.88 4.2-1.3 8.58-1.3 13.13 0 5.25 1.05 10.68 3.15 16.28 2.63 6.83 6.13 10.68 10.5 11.55 4.37.88 9.2-1.05 14.44-5.78 6.65-5.95 11.2-14.8 13.65-26.52.87-4.2 1.3-8.58 1.3-13.13zm149.13-84.53c0 4.2-1.44 7.88-4.33 11.03s-6.43 4.73-10.64 4.73c-3.32 0-6.4-1.05-9.2-3.15-8.76-6.47-15.32-9.7-19.7-9.7-5.77 0-8.66 5.25-8.66 15.75v25.73l15.23-6.04c2.27-.87 4.3-1.3 6.04-1.3 4.2 0 7.7 1.62 10.5 4.86s4.2 6.96 4.2 11.16c0 6.3-3.24 10.76-9.7 13.4l-26.26 10.5v75.1c0 4.37-1.45 7.96-4.33 10.76-2.9 2.8-6.52 4.2-10.9 4.2s-7.97-1.4-10.77-4.2-4.2-6.4-4.2-10.76v-63.8c-4.38.18-8.1-1.3-11.16-4.46s-4.6-6.9-4.6-11.3c0-6.65 3.24-11.2 9.72-13.65l6.04-2.36v-37.8c0-13.13 2.8-23.63 8.4-31.5 6.48-9.1 15.93-13.65 28.35-13.65 12.78 0 26 5 39.64 14.96 4.2 3.14 6.3 7 6.3 11.54zm105.54 0c0 4.2-1.44 7.88-4.33 11.03-2.88 3.15-6.43 4.73-10.63 4.73-3.33 0-6.4-1.05-9.2-3.15-8.75-6.47-15.32-9.7-19.7-9.7-5.78 0-8.67 5.25-8.67 15.75v25.73l15.23-6.04c2.27-.87 4.3-1.3 6.04-1.3 4.2 0 7.7 1.62 10.5 4.86s4.2 6.96 4.2 11.16c0 6.3-3.24 10.76-9.7 13.4l-26.26 10.5v75.1c0 4.37-1.44 7.96-4.33 10.76-2.9 2.8-6.52 4.2-10.9 4.2s-7.96-1.4-10.77-4.2c-2.8-2.8-4.2-6.4-4.2-10.76v-63.8c-4.38.18-8.1-1.3-11.16-4.46s-4.6-6.9-4.6-11.3c0-6.65 3.24-11.2 9.7-13.65l6.04-2.36v-37.8c0-13.13 2.8-23.63 8.4-31.5 6.48-9.1 15.93-13.65 28.36-13.65 12.77 0 26 5 39.65 14.96 4.2 3.14 6.3 7 6.3 11.54zm111.05 53.56c0 7.53-2 15.05-6.04 22.58-4.38 8.23-11.46 15.62-21.27 22.18-9.8 6.56-19.7 10.46-29.67 11.7-5.08.7-8.84.35-11.3-1.05 3.15 11.9 8.66 17.85 16.54 17.85 7 0 15.32-4.3 24.94-12.87 2.97-2.63 6.3-3.94 9.97-3.94 3.33 0 6.44 1.5 9.32 4.46 2.9 2.98 4.33 6.48 4.33 10.5 0 4.2-1.75 7.88-5.25 11.03-14.18 12.6-28 18.9-41.48 18.9-14.7 0-26.78-6.82-36.23-20.48-8.4-12.25-12.6-26.08-12.6-41.48 0-13.82 3.5-26.43 10.5-37.8 5.6-9.28 13.74-17.24 24.42-23.9s21.27-9.98 31.77-9.98c9.62 0 17.37 2.98 23.23 8.93 5.88 5.96 8.8 13.75 8.8 23.38zm-26 2.36c0-3.68-2.8-5.5-8.4-5.5-2.98 0-5.5.44-7.6 1.3-15.58 6.83-24.5 17.07-26.78 30.72 1.4 1.05 3.76 2.02 7.1 2.9 8.4-.7 15.66-2.98 21.8-6.83 4.03-2.45 7.44-6.12 10.24-11.03 2.45-4.37 3.67-8.22 3.67-11.55zm148.87-2.36c0 7.53-2.02 15.05-6.04 22.58-4.38 8.23-11.47 15.62-21.26 22.18-9.8 6.56-19.7 10.46-29.67 11.7-5.08.7-8.84.35-11.3-1.05 3.15 11.9 8.67 17.85 16.54 17.85 7 0 15.3-4.3 24.94-12.87 2.97-2.63 6.3-3.94 9.98-3.94 3.32 0 6.43 1.5 9.32 4.46 2.9 2.98 4.33 6.48 4.33 10.5 0 4.2-1.75 7.88-5.25 11.03-14.18 12.6-28 18.9-41.48 18.9-14.7 0-26.78-6.82-36.23-20.48-8.4-12.25-12.6-26.08-12.6-41.48 0-13.82 3.5-26.43 10.5-37.8 5.6-9.28 13.74-17.24 24.42-23.9 10.67-6.65 21.27-9.98 31.77-9.98 9.62 0 17.37 2.98 23.24 8.93 5.85 5.96 8.78 13.75 8.78 23.38zm-26 2.36c0-3.68-2.8-5.5-8.4-5.5-2.98 0-5.5.44-7.6 1.3-15.58 6.83-24.5 17.07-26.78 30.72 1.4 1.05 3.76 2.02 7.1 2.9 8.4-.7 15.66-2.98 21.8-6.83 4.03-2.45 7.44-6.12 10.24-11.03 2.44-4.37 3.67-8.22 3.67-11.55z"/><use xlink:href="#E"/><use xlink:href="#E" x="55.64"/></g><path d="M653.6 339.46c0 23.38-19.07 42.46-42.46 42.46H398.86c-23.38 0-42.46-19.07-42.46-42.46h297.2zm-53.07-63.68h-10.6v5.3c0 20.4-16.75 37.15-37.15 37.15H436c-20.4 0-37.15-16.75-37.15-37.15V159.02c0-5.8 4.8-10.6 10.6-10.6h191.05c35.16 0 63.68 28.52 63.68 63.68.01 35.16-28.52 63.7-63.67 63.7zm0-95.53h-10.6v63.68h10.6c17.58 0 31.84-14.26 31.84-31.84 0-17.57-14.27-31.84-31.84-31.84z" fill="#f9be5c"/><defs ><path  d="M61.77-71.65c.02.07.01.13-.03.2-.05.1-.1.06-.17.13a.64.64 0 0 0-.08.36c-.17.06-.01.23-.02.35 0 .05-.04.1-.04.16-.01.12.02.27.07.37a1.66 1.66 0 0 0 .44.54c.2.15.36.57.6.63.18.04.38-.1.54-.14.18-.04.4.01.57-.05.22-.08.13-.34.3-.45.1-.07.3-.01.4-.05.2-.07.34-.26.38-.46.02-.08.01-.14.04-.22.04-.1.1-.16.1-.3-.01-.06-.05-.12-.06-.2-.02-.1 0-.22 0-.34 0-.2.02-.38-.08-.55-.38-.7-1.24-.93-1.97-.8-.18.03-.3.13-.44.2-.17.1-.14.17-.32.22-.08.03-.22.12-.2.22 0 .12 0 .05.01.17-.02.01-.02 0-.03-.03"/><path  d="M69.44-25.74c.02.07.01.13-.03.2-.05.1-.1.06-.17.13a.64.64 0 0 0-.08.36c-.16.06 0 .23-.01.35 0 .05-.04.1-.04.16-.01.12.02.27.07.37a1.66 1.66 0 0 0 .44.54c.2.15.36.57.6.63.18.04.38-.1.54-.14.18-.04.4.01.57-.05.22-.08.13-.34.3-.45.1-.07.3-.01.4-.05.2-.07.34-.26.38-.46.02-.08.01-.14.04-.22.04-.1.1-.16.1-.3-.01-.06-.05-.12-.06-.2-.02-.1 0-.22 0-.34 0-.2.02-.38-.08-.55-.38-.7-1.24-.93-1.97-.8-.18.03-.3.13-.44.2-.17.1-.14.17-.32.22-.08.03-.22.12-.2.22 0 .12 0 .05.01.17-.02.01-.02 0-.03-.03"/><path  d="M54.12-10.43c.02.07.01.13-.03.2-.05.1-.1.06-.17.13a.64.64 0 0 0-.08.36c-.17.06-.01.23-.02.35 0 .05-.04.1-.04.16-.01.12.02.27.07.37a1.66 1.66 0 0 0 .44.54c.2.15.36.57.6.63.18.04.38-.1.54-.14.18-.04.4.01.57-.05.22-.08.13-.34.3-.45.1-.07.3-.01.4-.05.2-.07.34-.26.38-.46.01-.08 0-.15.03-.22.04-.1.1-.16.1-.3-.01-.06-.05-.12-.06-.2-.02-.1 0-.22 0-.34 0-.2.02-.38-.08-.55-.38-.7-1.24-.93-1.97-.8-.18.03-.3.13-.44.2-.17.1-.14.17-.32.22-.08.03-.22.12-.2.22 0 .12 0 .05.01.17-.02.01-.02 0-.03-.03"/><path id="E" d="M477.18 108.64c0 5.8 1.45 13.5 2.77 18.55l-.17-.08.04.08c-11.43-10.5-17.72-26.33-17.72-47.2 0-25.5 15.07-40.33 15.07-61.44 0-5.8-1.45-13.5-2.73-18.55l.12.08-.03-.1c11.43 10.5 17.72 26.66 17.72 47.53 0 25.5-15.07 40-15.07 61.1z"/></defs></svg>