<svg xmlns="http://www.w3.org/2000/svg" width="1010" height="619.02" xmlns:v="https://vecta.io/nano"><path d="M504.05 430.74c-19.3 6.82-43.25 8.57-63.52 8.57-22.2 0-44.03-5.65-66.05-5.65-9.35 0-18.7 5.65-28.45 5.65-19.3 0-33.9-17.34-33.9-35.85 0-9.16 4.3-17.34 4.3-26.3 0-15.78-4.87-31.17-4.87-47.15 0-55.33 16.95-116.5 62.93-151.4 13.25-10.13 29.8-17.34 45.2-23.38 19.87-8 39.94-15.2 61.57-15.2 23.2 0 45.2 9.35 68 9.35 7.4 0 14.8-1.95 22.4-1.95 22.2 0 30.2 15.78 30.2 36.04 0 8.77-1.95 17.73-1.95 26.5 0 7 1.75 9.74 4.1 15.98 4.48 11.3 6.62 37.2 6.62 49.68 0 64.9-45 133.28-106.57 155.1z" fill="#ffce00"/><path d="M758.68 237.67c-25.73 10.9-50.35 6.52-74.25-6.72-11.67-6.38-22.12-15.32-29.7-26.33-4.8-6.95-8.6-14.92-10.9-23.07-1.24-4.27-1.47-14.38-3.47-17.27-2.5-3.62-20.28 2.23-24.63-4.07-3.15-4.56-1.85-7.5.13-11.75.78-1.5.86-2.3 2.4-3.36 7.53-5.2 23.3 5.1 27.5 2.2.65-.45 3.2-4.98 4.44-6.27 2.16-2.13 4.55-4.1 7.08-5.85 23.04-15.9 52.12-8.9 73.13 6.96 15.17 11.45 31.24 46.98 47.75 50.45 6.44 1.43 11.2 1.04 15.4 7.12 5.65 8.2-13.73 25.5-19.88 29.76-4.63 3.2-9.7 5.94-14.98 8.2zm-23.5-43.23c-17.7-25.64-39.8-34.76-69.83-38.75-1.54-.22-2.9-.03-4.2.87-2.53 1.75-3.2 5.3-1.44 7.83.9 1.3 2.1 1.97 3.62 2.3 5.64 1.35 11.3 2.14 16.97 3.37 20.85 4.96 33.3 12.94 45.6 30.76 1.75 2.54 5.3 3.2 7.83 1.44 2.55-1.74 3.2-5.3 1.45-7.83zM455.26 48.8c2.72 27.8 18.35 47.34 41.4 62 11.2 7.2 24.03 12.1 37.33 13.5 8.4.9 17.2.4 25.47-1.47 4.35-.96 13.33-5.58 16.83-5.2 4.38.47 7.74 18.87 15.35 19.68 5.5.58 7.46-1.96 10.25-5.73.94-1.4 1.6-1.86 1.8-3.7.96-9.1-15.6-18.02-15.08-23.1.08-.8 2.85-5.18 3.38-6.9.84-2.92 1.43-5.95 1.75-9.02 2.94-27.83-17.1-50.04-41.08-60.9-17.3-7.85-56.2-4.98-67.15-17.8-4.3-5-6.25-9.36-13.6-10.13-9.9-1.05-15.84 24.25-16.63 31.7-.57 5.6-.56 11.36-.02 17.08zm49.2-.01c30.98 3.28 49.56 18.34 67.42 42.8.93 1.25 1.4 2.54 1.25 4.1-.33 3.06-3.13 5.33-6.2 5-1.58-.17-2.74-.9-3.76-2.08-3.88-4.3-7.3-8.9-11.07-13.3-14.33-15.94-27.3-23.07-48.82-25.35-3.06-.32-5.33-3.13-5-6.2.3-3.06 3.12-5.33 6.18-5zM27.36 615.07c-9.03 0-23.4.56-23.4-12.4 0-17.5 22-2.82 22.85-35.54.56-20.6.56-38.64.56-55.3 0-16.92-1.4-32.72-1.97-48.5-.57-23.7-25.4-11.28-25.4-27.36 0-20.6 44.28-21.72 58.1-21.72 56.4 1.4 59.23 9.6 59.23 19.18 0 16.36-22.28 3.95-22.28 30.46v89.7c0 20.3 3.38 30.18 23.4 30.18 47.95 0 31.6-39.2 49.64-39.2 12.7 0 17.5 13.54 17.5 24.26 0 22-15.8 50.2-28.77 50.2-5.08 0-9.03-1.13-14.1-1.97-5.36-1.13-11.57-1.97-21.16-1.97h-94.2zm239.4-64.87c-3.1 0-7.62-.84-7.62 3.95 0 14.1 18.34 25.95 31.6 25.95 21.16 0 31.6-12.7 37.52-12.7s11 8.75 11 14.1c0 21.72-39.77 37.5-65.16 37.5-50.77 0-77-36.67-77-73.05 0-43.44 36.95-75.03 79.26-75.03 47.95 0 69.1 36.95 69.1 58.1 0 18.6-8.46 21.15-17.5 21.15h-61.2zm24.54-35.54c0-10.15-6.2-18.05-16.64-18.05-9.3 0-16.92 9.6-16.92 18.62 0 10.15 9.6 7.9 16.92 7.9 7.6-.01 16.64 1.7 16.64-8.47zm77.85 21.7c0-18.05-3.67-23.13-6.5-25.67-3.67-3.1-7.6-2.82-7.6-10.15 0-20.88 69.95-28.77 70.5-28.77 7.05 0 7.62 6.2 7.62 12.13 0 3.4-1.13 12.98 4.8 12.98 2.82 0 7.33-6.2 15.23-12.7 7.9-6.2 19.18-12.4 35.82-12.4 33.57 0 33.85 25.1 39.77 25.1 2.26 0 7.33-6.2 15.5-12.7 8.46-6.2 19.74-12.4 34.13-12.4 26.8 0 43.44 14.67 43.44 42.3v59.5c0 16.36 10.44 17.77 10.44 25.95 0 17.77-32.15 18.62-43.15 18.62-9.3 0-42.03-1.97-42.03-16.64 0-10.44 9.87-10.15 9.87-26.52v-25.38c0-11.85 1.4-35.54-14.67-35.54-15.8 0-14.38 19.18-14.38 29.62v17.5c0 34.7 10.15 28.77 10.15 39.2 0 17.5-33.85 17.77-44 17.77-42.6 0-44.85-7.9-44.57-15.8.28-14.95 14.4-3.1 13.54-36.67v-16.08c0-10.15 1.4-35.54-14.67-35.54-15.8 0-14.4 19.18-14.4 29.62v22.85c0 25.95 7.62 24.26 7.62 34.4 0 7.33-6.5 17.2-45.13 17.2-11 0-44.3.28-44.3-14.67 0-12.7 16.93-5.92 16.93-41.18v-25.98zM640.5 549.9c0-50.5 44.3-78.98 90.82-78.98 49.36 0 77.57 38.64 77.57 73.62 0 46.26-49.64 74.47-91.1 74.47-41.75 0-77.3-24.54-77.3-69.1zm78.7-45.7c-9.3 0-14.38 8.75-13.82 16.93 1.13 17.77 6.2 61.2 25.67 62.33 10.72.56 12.97-8.46 12.97-17.5.01-12.7-5.64-61.77-24.82-61.77zm178.82 63.76c0 27.36 9.6 22.56 9.6 33.28 0 17.5-37.5 16.92-49.08 16.92-11.28 0-40.05 0-40.05-16.92 0-13.54 12.97-1.4 13.82-29.05l1.13-42.3c.56-20.87-16.64-14.1-16.64-29.05s64.88-29.05 70.52-29.05c6.2 0 10.16 5.36 10.16 11 0 1.7-.28 3.38-.28 5.08 0 3.38 1.4 7.33 5.64 7.33 4.5 0 7.05-5.92 12.7-11.85 5.64-5.64 14.1-11.56 30.18-11.56 58.38 0 48.5 57.26 51.33 100.13 1.4 22.28 12.97 17.2 12.97 29.33 0 5.08 1.13 16.92-51.9 16.92-10.15 0-37.23.56-37.23-15.23 0-10.15 9.3-5.36 10.72-23.7 1.4-20.03 9.3-65.16-17.2-65.16-18.05 0-16.36 19.46-16.36 32.15v21.73z" fill="#4e9b0a"/><defs ><path  d="M61.77-71.65c.02.07.01.13-.03.2-.05.1-.1.06-.17.13a.64.64 0 0 0-.08.36c-.17.06-.01.23-.02.35 0 .05-.04.1-.04.16-.01.12.02.27.07.37a1.66 1.66 0 0 0 .44.54c.2.15.36.57.6.63.18.04.38-.1.54-.14.18-.04.4.01.57-.05.22-.08.13-.34.3-.45.1-.07.3-.01.4-.05.2-.07.34-.26.38-.46.02-.08.01-.14.04-.22.04-.1.1-.16.1-.3-.01-.06-.05-.12-.06-.2-.02-.1 0-.22 0-.34 0-.2.02-.38-.08-.55-.38-.7-1.24-.93-1.97-.8-.18.03-.3.13-.44.2-.17.1-.14.17-.32.22-.08.03-.22.12-.2.22 0 .12 0 .05.01.17-.02.01-.02 0-.03-.03"/><path  d="M69.44-25.74c.02.07.01.13-.03.2-.05.1-.1.06-.17.13a.64.64 0 0 0-.08.36c-.16.06 0 .23-.01.35 0 .05-.04.1-.04.16-.01.12.02.27.07.37a1.66 1.66 0 0 0 .44.54c.2.15.36.57.6.63.18.04.38-.1.54-.14.18-.04.4.01.57-.05.22-.08.13-.34.3-.45.1-.07.3-.01.4-.05.2-.07.34-.26.38-.46.02-.08.01-.14.04-.22.04-.1.1-.16.1-.3-.01-.06-.05-.12-.06-.2-.02-.1 0-.22 0-.34 0-.2.02-.38-.08-.55-.38-.7-1.24-.93-1.97-.8-.18.03-.3.13-.44.2-.17.1-.14.17-.32.22-.08.03-.22.12-.2.22 0 .12 0 .05.01.17-.02.01-.02 0-.03-.03"/><path  d="M54.12-10.43c.02.07.01.13-.03.2-.05.1-.1.06-.17.13a.64.64 0 0 0-.08.36c-.17.06-.01.23-.02.35 0 .05-.04.1-.04.16-.01.12.02.27.07.37a1.66 1.66 0 0 0 .44.54c.2.15.36.57.6.63.18.04.38-.1.54-.14.18-.04.4.01.57-.05.22-.08.13-.34.3-.45.1-.07.3-.01.4-.05.2-.07.34-.26.38-.46.01-.08 0-.15.03-.22.04-.1.1-.16.1-.3-.01-.06-.05-.12-.06-.2-.02-.1 0-.22 0-.34 0-.2.02-.38-.08-.55-.38-.7-1.24-.93-1.97-.8-.18.03-.3.13-.44.2-.17.1-.14.17-.32.22-.08.03-.22.12-.2.22 0 .12 0 .05.01.17-.02.01-.02 0-.03-.03"/></defs></svg>