<svg xmlns="http://www.w3.org/2000/svg" width="1010" height="306.15" xmlns:v="https://vecta.io/nano"><path d="M306.15 143.5v19.13h-19.73c-1 16.55-4.98 32.1-11.96 46.64-6.78 14.55-15.7 27.36-26.76 38.42s-23.87 19.98-38.42 26.76-30.1 10.76-46.64 11.96v19.73H143.5v-19.73c-16.55-1-32.1-4.98-46.64-11.96-14.55-6.77-27.36-15.7-38.42-26.76s-19.98-23.87-26.76-38.42-10.76-30.1-11.96-46.64H0V143.5h19.73c1-16.54 4.98-32.1 11.96-46.64 6.77-14.55 15.7-27.36 26.76-38.42S82.32 38.47 96.87 31.7c14.55-6.97 30.1-10.96 46.64-11.96V0h19.13v19.73c16.54 1 32.1 4.98 46.64 11.96 14.55 6.78 27.36 15.7 38.42 26.76s19.98 23.87 26.76 38.42c6.77 14.55 10.76 30.1 11.96 46.64h19.73zM143.5 38.87c-13.95 1-27 4.48-39.17 10.46C91.98 55.1 81.17 62.63 71.9 71.9s-16.8 20.08-22.57 32.44c-5.98 12.16-9.47 25.22-10.46 39.17h38.27c1.2-8.77 3.7-16.94 7.47-24.52 3.78-7.57 8.57-14.25 14.35-20.03S111.4 88.4 119 84.6c7.77-3.78 15.94-6.28 24.52-7.47V38.87zM38.87 162.64c1 13.95 4.5 27 10.46 39.17 5.78 12.36 13.3 23.17 22.57 32.44s20.08 16.8 32.44 22.57c12.15 5.98 25.2 9.47 39.17 10.46V229c-8.77-1.2-16.94-3.7-24.52-7.47s-14.25-8.57-20.03-14.35-10.57-12.45-14.35-20.03c-3.8-7.77-6.28-15.94-7.47-24.52H38.87zm133.34-9.57l9.57-9.57h28.1c-2.2-11.96-7.62-22.27-16.3-30.94s-19-14.1-30.94-16.3v28.1l-9.57 9.57-9.57-9.57v-28.1c-11.96 2.2-22.27 7.62-30.94 16.3s-14.1 18.98-16.3 30.94h28.1l9.57 9.57-9.57 9.57h-28.1c2.2 11.96 7.62 22.27 16.3 30.94s18.98 14.1 30.94 16.3v-28.1l9.57-9.57 9.57 9.57v28.1c11.96-2.2 22.27-7.62 30.94-16.3s14.1-18.98 16.3-30.94h-28.1l-9.57-9.57zm95.07-9.56c-1-13.95-4.48-27-10.46-39.17-5.78-12.36-13.3-23.17-22.57-32.44s-20.08-16.8-32.44-22.57c-12.16-5.98-25.22-9.46-39.17-10.46v38.27c8.57 1.2 16.74 3.7 24.52 7.47 7.57 3.8 14.25 8.57 20.03 14.35s10.56 12.46 14.35 20.03a81.3 81.3 0 0 1 7.47 24.52h38.27zM162.64 267.28c13.95-1 27-4.48 39.17-10.46 12.36-5.78 23.17-13.3 32.44-22.57s16.8-20.08 22.57-32.44c5.98-12.16 9.46-25.2 10.46-39.17H229c-1.2 8.57-3.7 16.74-7.47 24.52-3.8 7.58-8.57 14.25-14.35 20.03s-12.46 10.57-20.03 14.35a81.02 81.02 0 0 1-24.52 7.47v38.27z" fill="#a1ea00"/><path d="M387.53 113.26v75.17h12.94c4.62 0 7.92.9 9.9 2.67s2.95 4.1 2.95 6.98c0 2.8-.98 5.1-2.95 6.9s-5.27 2.67-9.9 2.67h-45c-4.62 0-7.92-.9-9.9-2.67s-2.95-4.1-2.95-6.98c0-2.8.98-5.1 2.95-6.9s5.26-2.67 9.9-2.67h12.84v-75.17h-20.8v18.18c0 4.62-.9 7.92-2.67 9.9s-4.1 2.95-6.98 2.95c-2.8 0-5.1-.98-6.9-2.95s-2.67-5.26-2.67-9.9v-37.5l99.54.1v37.4c0 4.62-.9 7.92-2.67 9.9s-4.1 2.95-6.98 2.95c-2.8 0-5.1-.98-6.9-2.95s-2.67-5.26-2.67-9.9v-18.18h-21.1zm123.17 94.4v-4.5c-4.8 2.56-10.12 4.48-15.93 5.76s-11.1 1.92-15.84 1.92c-10.3 0-18.68-2.73-25.12-8.2s-9.65-11.5-9.65-18.14c0-8.06 4.1-15.54 12.33-22.45 8.22-6.9 19.57-10.36 34.07-10.36 5.8 0 12.53.62 20.15 1.87v-4.6c0-2.87-1.23-5.22-3.7-7.03s-7.17-2.72-14.1-2.72c-5.7 0-13.06 1.12-22.12 3.37-3.38.8-6 1.22-7.87 1.22a8.71 8.71 0 0 1-6.51-2.76c-1.78-1.84-2.67-4.2-2.67-7.08 0-1.62.3-3.03.94-4.22.62-1.2 1.5-2.14 2.62-2.86s3.47-1.58 7.03-2.58a132.07 132.07 0 0 1 14.53-3.14c4.94-.78 9.4-1.17 13.4-1.17 11.93 0 21.2 2.58 27.8 7.73 6.6 5.16 9.9 12.2 9.9 21.14v39.55h3.28c4.62 0 7.92.9 9.9 2.67s2.95 4.1 2.95 6.98c0 2.8-.98 5.1-2.95 6.9s-5.27 2.67-9.9 2.67h-22.5zm0-34.4c-7.7-1.5-14.78-2.25-21.28-2.25-7.8 0-14.53 1.9-20.15 5.72-3.5 2.44-5.25 4.9-5.25 7.4 0 1.8.84 3.28 2.53 4.4 3.12 2.06 7.4 3.1 12.84 3.1 4.62 0 9.86-.9 15.7-2.72s11.04-4.28 15.6-7.4v-8.25zm93.9-50.7v12c8.06-5.8 14.42-9.7 19.07-11.62 4.65-1.94 9-2.9 13.08-2.9 6.25 0 12.3 2.3 18.18 6.94 4 3.13 6 6.3 6 9.56 0 2.75-.95 5.08-2.86 6.98-1.9 1.9-4.2 2.86-6.9 2.86-2.38 0-4.87-1.2-7.5-3.56-2.62-2.37-4.97-3.56-7.03-3.56-2.7 0-6.7 1.7-12.04 5.06s-12 8.44-20 15.18v28.96h27.37c4.62 0 7.92.9 9.9 2.67s2.95 4.1 2.95 6.98c0 2.8-.98 5.1-2.95 6.9s-5.26 2.67-9.9 2.67h-58.02c-4.62 0-7.92-.9-9.9-2.67s-2.95-4.1-2.95-6.98c0-2.8.98-5.1 2.95-6.9s5.26-2.67 9.9-2.67h11.43v-46.68h-6.94c-4.62 0-7.92-.9-9.9-2.67s-2.95-4.1-2.95-6.98c0-2.8.98-5.1 2.95-6.9s5.26-2.67 9.9-2.67h26.16zm140.33 5.7v-5.72h22.5c4.62 0 7.92.9 9.9 2.67s2.95 4.1 2.95 6.98c0 2.8-.98 5.1-2.95 6.9s-5.27 2.67-9.9 2.67h-3.28v69.92c0 6.75-1.42 12.64-4.26 17.67s-7.2 9.36-13.08 12.98-12.5 5.44-19.87 5.44H705.2c-4.62 0-7.92-.9-9.9-2.67s-2.95-4.08-2.95-6.9c0-2.88.98-5.2 2.95-6.98s5.26-2.67 9.9-2.67h21.18c5.87 0 10.43-1.6 13.68-4.78s4.87-7.22 4.87-12.1v-9.37c-4.25 2.75-8.58 4.8-12.98 6.2-4.4 1.37-8.92 2.06-13.54 2.06-13.06 0-24-4.36-32.8-13.08S672.4 178 672.4 165.17c0-12.87 4.4-23.67 13.22-32.38 8.8-8.72 19.75-13.08 32.8-13.08 4.87 0 9.5.7 13.92 2.1 4.4 1.4 8.6 3.55 12.6 6.42zm-.1 36.84c0-7.06-2.6-13.18-7.83-18.37s-11.48-7.78-18.8-7.78-13.58 2.6-18.8 7.78c-5.22 5.2-7.83 11.3-7.83 18.37 0 7.12 2.6 13.26 7.83 18.42s11.48 7.73 18.8 7.73 13.58-2.58 18.8-7.73c5.22-5.16 7.83-11.3 7.83-18.42zm142.37 9.75h-78.83c2 5 5.54 9.03 10.64 12.1 5.1 3.06 11.98 4.6 20.67 4.6 7.12 0 16.6-1.53 28.4-4.6 4.87-1.25 8.25-1.88 10.12-1.88 2.56 0 4.72.9 6.47 2.72s2.62 4.1 2.62 6.84c0 2.5-.94 4.62-2.8 6.37-2.5 2.3-8.6 4.5-18.28 6.6-9.7 2.1-19 3.14-27.93 3.14-15.37 0-27.67-4.34-36.88-13.03-9.22-8.7-13.83-19.37-13.83-32.06 0-13.5 4.98-24.48 14.95-32.95s21.45-12.7 34.45-12.7c7.8 0 14.98 1.38 21.5 4.12 6.53 2.75 11.4 5.72 14.58 8.9 4.5 4.62 8.22 10.34 11.15 17.15 2 4.75 3 10.25 3 16.5v8.18zm-21.28-19.22c-2.94-5.5-6.78-9.6-11.53-12.33s-10.4-4.08-16.96-4.08c-6.5 0-12.12 1.36-16.87 4.08s-8.62 6.83-11.62 12.33h56.98zm83.53-13.87v38.52c0 4.12.84 6.84 2.53 8.15 2.62 2.06 7.3 3.1 14.06 3.1 9.8 0 18.87-2.1 27.18-6.28 3.2-1.62 5.7-2.44 7.5-2.44 2.5 0 4.67.94 6.5 2.8 1.84 1.88 2.77 4.16 2.77 6.84 0 2.5-1 4.66-3 6.47-3.06 2.94-9.1 5.64-18.14 8.1s-16.64 3.7-22.82 3.7c-11.94 0-20.9-2.58-26.85-7.73-5.97-5.16-8.95-11.48-8.95-18.98v-42.27h-6.94c-4.62 0-7.92-.9-9.9-2.67s-2.95-4.1-2.95-6.98c0-2.8.98-5.1 2.95-6.9s5.26-2.67 9.9-2.67h6.94v-17.3c0-4.62.9-7.92 2.67-9.9s4.1-2.95 6.98-2.95c2.8 0 5.1.98 6.9 2.95s2.67 5.26 2.67 9.9v17.34h35.52c4.62 0 7.92.9 9.9 2.67s2.95 4.1 2.95 6.98c0 2.8-.98 5.1-2.95 6.9s-5.26 2.67-9.9 2.67h-35.52z"/><g fill="#888"><path d="M343.26 238v18.4h2.23c1.5 0 2.55.3 3.18.86s.95 1.32.95 2.24c0 .9-.32 1.64-.95 2.2s-1.7.86-3.18.86h-8.1c-1.5 0-2.55-.3-3.18-.86s-.95-1.32-.95-2.25c0-.9.3-1.64.93-2.2s1.6-.86 2.9-.86v-24.16c-1.08-.1-1.9-.43-2.46-1-.55-.56-.83-1.26-.83-2.1 0-.92.32-1.67.95-2.24s1.7-.86 3.18-.86l6.78.03 8.4 18.6 8.25-18.62 6.84.03c1.5 0 2.55.28 3.18.84s.95 1.3.95 2.23c0 .84-.28 1.55-.84 2.1s-1.38.9-2.44 1v24.16c1.3 0 2.27.3 2.9.87s.93 1.33.93 2.23-.32 1.64-.95 2.2-1.7.86-3.18.86h-8.13c-1.47 0-2.52-.3-3.15-.86s-.95-1.32-.95-2.25c0-.9.32-1.64.95-2.2s1.68-.86 3.15-.86h2.26v-18.4l-7.08 15.9h-5.36l-7.17-15.9z"/><path d="M399.03 252.63h-15l-1.5 3.77h1.5c1.5 0 2.55.3 3.18.86s.95 1.32.95 2.24c0 .9-.32 1.64-.95 2.2s-1.7.86-3.18.86h-8.32c-1.5 0-2.55-.3-3.18-.86s-.95-1.32-.95-2.25.33-1.68 1-2.26 1.76-.85 3.28-.8l9.7-24.16h-4.04c-1.5 0-2.55-.3-3.18-.86s-.95-1.32-.95-2.24.32-1.67.95-2.24 1.7-.86 3.18-.86l13.35.03 12.3 30.34c1.45 0 2.4.16 2.86.48.92.66 1.4 1.54 1.4 2.62 0 .9-.3 1.64-.93 2.2s-1.68.86-3.16.86H399c-1.5 0-2.54-.3-3.18-.86-.63-.57-.95-1.32-.95-2.25 0-.9.32-1.64.95-2.2s1.7-.86 3.18-.86h1.5l-1.48-3.76zm-2.56-6.17l-4.97-12.23-5 12.23h9.97zm27.2 2.16v7.77h2.23c1.5 0 2.54.3 3.18.86.63.57.95 1.32.95 2.24 0 .9-.32 1.64-.95 2.2s-1.7.86-3.18.86h-9.37c-1.5 0-2.55-.3-3.18-.86s-.95-1.32-.95-2.25c0-.9.32-1.64.96-2.2s1.7-.86 3.16-.86h.96v-24.16h-.96c-1.5 0-2.55-.3-3.18-.86s-.95-1.32-.95-2.24.32-1.67.95-2.24 1.7-.86 3.18-.86l13.98.03c4.36 0 7.74 1.08 10.14 3.24s3.6 4.8 3.6 7.88a8.82 8.82 0 0 1-1.69 5.26c-1.13 1.58-2.82 2.98-5.1 4.2 1.3 1.15 2.7 2.6 4.2 4.4.92 1.14 2.17 2.93 3.74 5.36 1.57 0 2.6.16 3.1.48.9.62 1.36 1.5 1.36 2.62 0 .9-.3 1.64-.93 2.2s-1.68.86-3.16.86h-3.53c-5-7.73-9.15-12.38-12.44-13.95h-6.12zm0-6.17h4.82c1.8 0 3.38-.27 4.8-.8 1.9-.72 3.16-1.5 3.8-2.3s.98-1.6.98-2.38c0-1.17-.62-2.24-1.87-3.24s-3.06-1.5-5.45-1.5h-7.08v10.2zm38.52 7.1v6.84h2.23c1.5 0 2.55.3 3.18.86s.95 1.32.95 2.24c0 .9-.32 1.64-.95 2.2s-1.7.86-3.18.86h-9.37c-1.5 0-2.54-.3-3.18-.86-.63-.57-.95-1.32-.95-2.25 0-.9.32-1.64.96-2.2s1.7-.86 3.16-.86h.96v-24.16h-.96c-1.5 0-2.54-.3-3.18-.86-.63-.57-.95-1.32-.95-2.24s.32-1.67.95-2.24 1.7-.86 3.18-.86l9.37.03c1.5 0 2.55.28 3.18.84s.95 1.3.95 2.23-.32 1.67-.95 2.24-1.7.86-3.18.86h-2.23v9.16l10.97-9.43c-.64-.46-1.08-.9-1.33-1.3-.24-.4-.36-.9-.36-1.48 0-.94.32-1.7.95-2.3s1.7-.87 3.18-.87l6.3.03c1.5 0 2.55.28 3.18.84s.95 1.3.95 2.23c0 .9-.32 1.65-.95 2.23s-1.62.87-2.97.87l-11.1 9.7c2.07 1.2 4 3 5.83 5.42s3.43 5.44 4.84 9.04h1.66c1.46 0 2.5.3 3.15.86.63.57.95 1.32.95 2.24 0 .9-.3 1.64-.93 2.2s-1.68.86-3.16.86h-5.6l-4.22-8.8c-1.25-2.27-2.43-3.92-3.54-4.96-1.12-1.03-2.45-1.86-4-2.5l-3.8 3.26zm38.65-2.23v9.07h15.76v-3.34c0-1.5.3-2.55.86-3.18s1.32-.95 2.25-.95c.9 0 1.64.32 2.2.95s.86 1.7.86 3.18v9.52H493.7c-1.5 0-2.54-.3-3.18-.86-.63-.57-.95-1.32-.95-2.25 0-.9.32-1.64.96-2.2s1.7-.86 3.16-.86h.96v-24.16h-.96c-1.5 0-2.54-.3-3.18-.86-.63-.57-.95-1.32-.95-2.24s.32-1.67.95-2.24 1.7-.86 3.18-.86l27.72.03v9.4c0 1.47-.28 2.52-.84 3.15s-1.3.95-2.23.95-1.67-.3-2.24-.93-.86-1.68-.86-3.16v-3.22h-14.4v8.92h5.42c0-1.6.15-2.64.45-3.1.62-.98 1.5-1.48 2.65-1.48.9 0 1.64.32 2.2.95s.86 1.7.86 3.18v7.1c0 1.35-.16 2.25-.48 2.7-.64.94-1.5 1.42-2.6 1.42-1.14 0-2.03-.5-2.65-1.48-.3-.46-.45-1.5-.45-3.13h-5.43zm47.9-15.1v24.16h4.16c1.5 0 2.55.3 3.18.86s.95 1.32.95 2.24c0 .9-.32 1.64-.95 2.2s-1.7.86-3.18.86h-14.46c-1.5 0-2.55-.3-3.18-.86s-.95-1.32-.95-2.25c0-.9.32-1.64.95-2.2s1.7-.86 3.18-.86h4.13v-24.16h-6.7v5.84c0 1.5-.3 2.55-.86 3.18s-1.32.95-2.24.95c-.9 0-1.64-.32-2.2-.95s-.86-1.7-.86-3.18V226l32 .03v12.02c0 1.5-.3 2.55-.86 3.18s-1.32.95-2.25.95c-.9 0-1.64-.32-2.2-.95s-.86-1.7-.86-3.18v-5.84h-6.8zm38.66 0v24.16h6.24c1.5 0 2.55.3 3.18.86s.95 1.32.95 2.24c0 .9-.32 1.64-.95 2.2s-1.7.86-3.18.86H575c-1.5 0-2.54-.3-3.18-.86-.63-.57-.95-1.32-.95-2.25 0-.9.32-1.64.95-2.2s1.7-.86 3.18-.86h6.24v-24.16H575c-1.5 0-2.54-.3-3.18-.86-.63-.57-.95-1.32-.95-2.24s.32-1.67.95-2.24 1.7-.86 3.18-.86l18.65.03c1.5 0 2.55.28 3.18.84s.95 1.3.95 2.23-.32 1.67-.95 2.24-1.7.86-3.18.86h-6.24zm27.76 5.5v18.68h2.23c1.5 0 2.55.3 3.18.86s.95 1.32.95 2.24c0 .9-.32 1.64-.95 2.2s-1.7.86-3.18.86h-8.1c-1.5 0-2.55-.3-3.18-.86s-.95-1.32-.95-2.25c0-.88.3-1.62.93-2.2s1.6-.87 2.9-.87v-24.16h-.96c-1.5 0-2.55-.3-3.18-.86s-.95-1.32-.95-2.24.32-1.67.95-2.24 1.7-.86 3.18-.86l7.14.03 15.8 24.77v-18.6h-2.23c-1.5 0-2.54-.3-3.18-.86-.63-.57-.95-1.32-.95-2.24s.32-1.67.95-2.24 1.7-.86 3.18-.86l8.1.03c1.5 0 2.55.28 3.18.84s.95 1.3.95 2.23c0 .9-.3 1.65-.93 2.23s-1.58.87-2.86.87v30.34h-6.12L615.2 237.7zm61.86 13.56v8.3c-2.8 1.5-5.17 2.54-7.12 3.1-1.96.55-4.07.83-6.34.83-3.15 0-6.08-.47-8.77-1.42-2.1-.72-3.77-1.64-5-2.74-1.22-1.1-2.33-2.74-3.36-4.9s-1.54-4.58-1.54-7.25v-4.46c0-4.12 1.25-7.8 3.77-11.03 3.37-4.38 7.96-6.57 13.77-6.57 1.7 0 3.3.17 4.8.5a18.23 18.23 0 0 1 4.32 1.54c.82-.74 1.63-1.1 2.4-1.1.9 0 1.64.3 2.2.93s.84 1.68.84 3.16v4c0 1.5-.3 2.55-.86 3.18s-1.3.95-2.2.95c-.72 0-1.35-.22-1.87-.66-.4-.3-.74-.97-1-2s-.58-1.73-.92-2.1c-.54-.58-1.5-1.1-2.88-1.55s-2.92-.68-4.62-.68c-2.45 0-4.58.5-6.4 1.5-1.3.74-2.47 2.04-3.56 3.9a11.76 11.76 0 0 0-1.63 6.03v4.46c0 3.3.96 5.83 2.88 7.55s4.97 2.58 9.14 2.58c2.83 0 5.4-.53 7.74-1.6v-4.43h-6.3c-1.5 0-2.55-.3-3.18-.86s-.95-1.32-.95-2.24.32-1.67.95-2.24 1.7-.86 3.18-.86l10.97.03c1.5 0 2.55.28 3.18.84s.95 1.3.95 2.23c0 .72-.22 1.36-.65 1.9-.42.5-1.08.9-1.96 1.18zM780 256.4v-24.16h-.96c-1.5 0-2.55-.3-3.18-.86s-.95-1.32-.95-2.24.32-1.67.95-2.24 1.7-.86 3.18-.86h15.5c3.7 0 6.67 1.03 8.92 3.1s3.38 4.5 3.38 7.34c0 1.35-.26 2.6-.78 3.8-.52 1.18-1.3 2.28-2.38 3.28 1.95 1.16 3.4 2.53 4.38 4.08.97 1.56 1.46 3.32 1.46 5.3 0 1.57-.35 3.02-1.05 4.37-.52 1.02-1.17 1.84-1.93 2.44-1.02.84-2.28 1.53-3.77 2.06s-3.34.8-5.57.8h-18.14c-1.5 0-2.55-.3-3.18-.86s-.95-1.32-.95-2.25c0-.9.32-1.64.96-2.2s1.7-.86 3.16-.86h.96zm6.18-15.2h6.78c2.43 0 4.45-.6 6.06-1.84 1.08-.82 1.63-1.85 1.63-3.07 0-1.08-.5-2.03-1.54-2.85-1.02-.8-2.65-1.22-4.88-1.22h-8.04v8.98zm0 15.2h10.67c2.5 0 4.28-.37 5.3-1.1.78-.56 1.17-1.37 1.17-2.4 0-1.25-.77-2.47-2.32-3.67s-3.77-1.8-6.66-1.8h-8.16v9zm42.42-24.17v24.16h13.32v-5.84c0-1.5.3-2.55.86-3.18s1.32-.95 2.24-.95c.9 0 1.64.32 2.2.95s.86 1.7.86 3.18v12.02h-29.25c-1.5 0-2.55-.3-3.18-.86s-.95-1.32-.95-2.25c0-.9.32-1.64.95-2.2s1.7-.86 3.18-.86h3.6v-24.16h-3.6c-1.5 0-2.55-.3-3.18-.86s-.95-1.32-.95-2.24.32-1.67.95-2.24 1.7-.86 3.18-.86l13.38.03c1.5 0 2.55.28 3.18.84s.95 1.3.95 2.23-.32 1.67-.95 2.24-1.7.86-3.18.86h-3.62zm48.7 20.4h-15l-1.5 3.77h1.5c1.5 0 2.55.3 3.18.86s.95 1.32.95 2.24c0 .9-.32 1.64-.95 2.2s-1.7.86-3.18.86h-8.32c-1.5 0-2.55-.3-3.18-.86s-.95-1.32-.95-2.25.33-1.68 1-2.26 1.76-.85 3.28-.8l9.7-24.16h-4.04c-1.5 0-2.55-.3-3.18-.86s-.95-1.32-.95-2.24.32-1.67.95-2.24 1.7-.86 3.18-.86l13.35.03 12.3 30.34c1.45 0 2.4.16 2.86.48.92.66 1.4 1.54 1.4 2.62 0 .9-.3 1.64-.93 2.2s-1.68.86-3.16.86h-8.32c-1.5 0-2.55-.3-3.18-.86s-.95-1.32-.95-2.25c0-.9.32-1.64.95-2.2s1.7-.86 3.18-.86h1.5l-1.48-3.76zm-2.56-6.17l-4.97-12.23-5 12.23h9.97zm20.96 9.94v-24.16h-.96c-1.5 0-2.55-.3-3.18-.86s-.95-1.32-.95-2.24.32-1.67.95-2.24 1.7-.86 3.18-.86h15.5c3.7 0 6.67 1.03 8.92 3.1s3.38 4.5 3.38 7.34c0 1.35-.26 2.6-.78 3.8-.52 1.18-1.32 2.28-2.38 3.28 1.95 1.16 3.4 2.53 4.38 4.08s1.46 3.32 1.46 5.3c0 1.57-.35 3.02-1.05 4.37-.52 1.02-1.17 1.84-1.93 2.44-1.03.84-2.28 1.53-3.77 2.06s-3.34.8-5.57.8h-18.14c-1.5 0-2.55-.3-3.18-.86s-.95-1.32-.95-2.25c0-.9.32-1.64.96-2.2s1.7-.86 3.16-.86h.96zm6.18-15.2h6.78c2.43 0 4.45-.6 6.06-1.84 1.08-.82 1.63-1.85 1.63-3.07 0-1.08-.5-2.03-1.54-2.85-1.02-.8-2.65-1.22-4.88-1.22h-8.04v8.98zm0 15.2h10.67c2.5 0 4.28-.37 5.3-1.1.78-.56 1.17-1.37 1.17-2.4 0-1.25-.77-2.47-2.32-3.67s-3.77-1.8-6.66-1.8h-8.17v9zm42.44-24.17v24.16h13.32v-5.84c0-1.5.3-2.55.86-3.18s1.32-.95 2.25-.95c.9 0 1.64.32 2.2.95s.86 1.7.86 3.18v12.02h-29.25c-1.5 0-2.55-.3-3.18-.86s-.95-1.32-.95-2.25c0-.9.32-1.64.95-2.2s1.7-.86 3.18-.86h3.58v-24.16h-3.58c-1.5 0-2.55-.3-3.18-.86s-.95-1.32-.95-2.24.32-1.67.95-2.24 1.7-.86 3.18-.86l13.38.03c1.5 0 2.55.28 3.18.84s.95 1.3.95 2.23-.32 1.67-.95 2.24-1.7.86-3.18.86h-3.63zm48.68 20.4h-15l-1.5 3.77h1.5c1.5 0 2.55.3 3.18.86s.95 1.32.95 2.24c0 .9-.32 1.64-.95 2.2s-1.7.86-3.18.86h-8.32c-1.5 0-2.55-.3-3.18-.86s-.95-1.32-.95-2.25.33-1.68 1-2.26 1.76-.85 3.28-.8l9.7-24.16h-4.04c-1.5 0-2.55-.3-3.18-.86s-.95-1.32-.95-2.24.32-1.67.95-2.24 1.7-.86 3.18-.86l13.35.03 12.3 30.34c1.45 0 2.4.16 2.86.48.92.66 1.4 1.54 1.4 2.62 0 .9-.3 1.64-.93 2.2s-1.68.86-3.16.86H993c-1.5 0-2.54-.3-3.18-.86-.63-.57-.95-1.32-.95-2.25 0-.9.32-1.64.95-2.2s1.7-.86 3.18-.86h1.5l-1.46-3.76zm-2.56-6.17l-4.97-12.23-5 12.23h9.97z"/></g><defs ><path  d="M61.77-71.65c.02.07.01.13-.03.2-.05.1-.1.06-.17.13a.64.64 0 0 0-.08.36c-.17.06-.01.23-.02.35 0 .05-.04.1-.04.16-.01.12.02.27.07.37a1.66 1.66 0 0 0 .44.54c.2.15.36.57.6.63.18.04.38-.1.54-.14.18-.04.4.01.57-.05.22-.08.13-.34.3-.45.1-.07.3-.01.4-.05.2-.07.34-.26.38-.46.02-.08.01-.14.04-.22.04-.1.1-.16.1-.3-.01-.06-.05-.12-.06-.2-.02-.1 0-.22 0-.34 0-.2.02-.38-.08-.55-.38-.7-1.24-.93-1.97-.8-.18.03-.3.13-.44.2-.17.1-.14.17-.32.22-.08.03-.22.12-.2.22 0 .12 0 .05.01.17-.02.01-.02 0-.03-.03"/><path  d="M69.44-25.74c.02.07.01.13-.03.2-.05.1-.1.06-.17.13a.64.64 0 0 0-.08.36c-.16.06 0 .23-.01.35 0 .05-.04.1-.04.16-.01.12.02.27.07.37a1.66 1.66 0 0 0 .44.54c.2.15.36.57.6.63.18.04.38-.1.54-.14.18-.04.4.01.57-.05.22-.08.13-.34.3-.45.1-.07.3-.01.4-.05.2-.07.34-.26.38-.46.02-.08.01-.14.04-.22.04-.1.1-.16.1-.3-.01-.06-.05-.12-.06-.2-.02-.1 0-.22 0-.34 0-.2.02-.38-.08-.55-.38-.7-1.24-.93-1.97-.8-.18.03-.3.13-.44.2-.17.1-.14.17-.32.22-.08.03-.22.12-.2.22 0 .12 0 .05.01.17-.02.01-.02 0-.03-.03"/><path  d="M54.12-10.43c.02.07.01.13-.03.2-.05.1-.1.06-.17.13a.64.64 0 0 0-.08.36c-.17.06-.01.23-.02.35 0 .05-.04.1-.04.16-.01.12.02.27.07.37a1.66 1.66 0 0 0 .44.54c.2.15.36.57.6.63.18.04.38-.1.54-.14.18-.04.4.01.57-.05.22-.08.13-.34.3-.45.1-.07.3-.01.4-.05.2-.07.34-.26.38-.46.01-.08 0-.15.03-.22.04-.1.1-.16.1-.3-.01-.06-.05-.12-.06-.2-.02-.1 0-.22 0-.34 0-.2.02-.38-.08-.55-.38-.7-1.24-.93-1.97-.8-.18.03-.3.13-.44.2-.17.1-.14.17-.32.22-.08.03-.22.12-.2.22 0 .12 0 .05.01.17-.02.01-.02 0-.03-.03"/></defs></svg>