<svg xmlns="http://www.w3.org/2000/svg" width="1010" height="617.8" xmlns:v="https://vecta.io/nano"><path d="M0 465.6a23.65 23.65 0 0 1 .86-6.34 17.38 17.38 0 0 1 2.66-5.57c1.2-1.65 2.68-2.97 4.45-3.94s3.85-1.46 6.25-1.46c2.28 0 4.37.66 6.25 1.97s2.83 3.23 2.83 5.74c0 3.08-1.1 5.46-3.34 7.1-2.23 1.66-4.77 2.54-7.62 2.66-.57 1.6-.94 3.2-1.1 4.8-.17 1.6-.26 3.2-.26 4.8 0 3.88.94 7.17 2.83 9.85a20.94 20.94 0 0 0 7.19 6.42c2.9 1.6 6.14 2.77 9.68 3.5s6.9 1.1 10.1 1.1c5.7 0 10.65-1.03 14.82-3.08 4.17-2.06 7.74-4.82 10.7-8.3 2.97-3.48 5.4-7.45 7.28-11.9a80.2 80.2 0 0 0 4.45-14.05 120.71 120.71 0 0 0 2.31-14.82c.46-4.97.8-9.62 1.03-13.96.34-7.88 1.43-15.36 3.25-22.44 1.83-7.08 4.54-13.28 8.14-18.6s8.1-9.5 13.53-12.6 11.9-4.62 19.44-4.62a46.45 46.45 0 0 1 9.34.94c3.02.63 5.68 1.7 7.97 3.17 2.28 1.5 4.14 3.34 5.57 5.57s2.14 5 2.14 8.3c0 2.74-.54 5.05-1.63 6.94-1.1 1.88-2.5 3.37-4.28 4.45-1.77 1.1-3.83 1.88-6.17 2.4a34.77 34.77 0 0 1-7.28.77c1.6-2.63 2.83-5.2 3.68-7.7.86-2.5 1.28-5.37 1.28-8.57 0-4.34-1.17-7.8-3.5-10.36s-5.4-3.85-9.17-3.85c-4.45 0-8.14 1.1-11.05 3.25-2.9 2.17-5.34 5.1-7.28 8.82s-3.43 8.05-4.45 13.02c-1.03 4.97-1.88 10.22-2.57 15.76a380.68 380.68 0 0 0-1.71 17.04 408.63 408.63 0 0 1-1.71 17.13c-.57 4.9-1.88 10.22-3.94 15.93s-5.2 11.05-9.42 16.02c-4.23 4.97-9.74 9.1-16.53 12.42-6.8 3.3-15.22 4.97-25.27 4.97-4.9 0-9.76-.66-14.56-1.97s-9.05-3.34-12.76-6.08-6.7-6.17-9-10.28c-2.3-4.1-3.44-8.9-3.44-14.37zm195.12-14.92a230.37 230.37 0 0 1-11.4 14.22c-4.06 4.68-8.88 9.6-14.48 14.73-7.88 7.08-15.45 11.96-22.7 14.65-7.25 2.68-14.08 4.03-20.47 4.03-6.5 0-11.65-1.94-15.42-5.83-3.77-3.88-5.65-8.9-5.65-15.08 0-5.48 1.65-10.9 4.97-16.27 3.3-5.37 7.48-10.16 12.5-14.4 5.02-4.22 10.53-7.65 16.53-10.28 6-2.62 11.68-3.94 17.04-3.94 4.9 0 8.74.94 11.48 2.83 2.74 1.88 4.1 4.54 4.1 7.97 0 2.74-.94 5.25-2.83 7.54-1.88 2.3-4.3 4.34-7.28 6.17s-6.3 3.43-10.02 4.8a147.8 147.8 0 0 1-11.05 3.6c-3.66 1.03-7.08 1.88-10.28 2.57l-7.88 1.7c-.57 2.3-.86 4.34-.86 6.17 0 4.9 1.37 8.9 4.1 12s6.57 4.62 11.48 4.62c4.8 0 10.08-1.43 15.85-4.28s11.56-7.02 17.4-12.5a215.09 215.09 0 0 0 12.85-13.28c4.1-4.62 7.7-8.93 10.8-12.93l1.2 1.2zm-37.18-11.65c0-1.6-.43-2.74-1.3-3.43s-1.97-1.03-3.34-1.03c-2.86 0-5.94 1.2-9.25 3.6s-6.42 5.34-9.34 8.82c-2.9 3.48-5.48 7.14-7.7 10.96-2.23 3.83-3.68 7.17-4.37 10.02 4.68-.9 9.14-2.42 13.36-4.54 4.22-2.1 7.97-4.5 11.22-7.2s5.85-5.54 7.8-8.57c1.96-3 2.93-5.9 2.93-8.64z"/><path d="M160.85 495.56l35.63-60.3 19.53-.7-22.6 31.86.34.34c4.34-5.37 8.2-9.68 11.56-12.93s6.3-5.9 8.82-7.96c2.5-2.06 4.62-3.62 6.34-4.7 1.7-1.08 2.97-2.03 3.77-2.83 1.26-1.26 2.42-2.25 3.5-3 1.08-.74 2.37-1.3 3.85-1.7s3.28-.66 5.4-.77l7.97-.34c-2.17 3.08-4.17 6.3-6 9.68s-2.74 7-2.74 10.88c0 4.9 2.45 7.37 7.37 7.37 1.6 0 3.17-.34 4.7-1.03a22.16 22.16 0 0 0 4.37-2.57c1.37-1.03 2.68-2.14 3.94-3.34l3.43-3.34.7.86c-3.2 4-6.97 7.25-11.3 9.76s-9.08 3.77-14.22 3.77c-4.57 0-8.17-1.2-10.8-3.6-2.63-2.4-3.94-5.94-3.94-10.62 0-2.97.86-5.77 2.57-8.4l-.34-.34c-4.8 3.2-9.37 6.9-13.7 11.14-4.34 4.23-8.37 8.68-12.08 13.36s-7.14 9.5-10.28 14.48-5.97 9.8-8.48 14.47l-17.3.5z"/><path d="M282.82 434.58c-1.94 2.97-4.6 6.74-7.97 11.3s-6.65 9.37-9.85 14.4c-3.2 5.03-5.97 9.97-8.3 14.82s-3.5 9-3.5 12.42c0 2.5.57 4.43 1.7 5.74 1.14 1.32 3.14 1.97 6 1.97 4.34 0 8.65-1.65 12.93-4.97 4.28-3.3 8.16-7.42 11.65-12.33 3.48-4.9 6.3-10.16 8.48-15.76 2.17-5.6 3.3-10.68 3.43-15.25-.92-2.06-1.37-4.28-1.37-6.68 0-1.94.7-3.7 2.06-5.3s3.3-2.4 5.82-2.4c2.85 0 5.05 1.23 6.6 3.68 1.54 2.46 2.2 6.2 1.97 11.22a56.81 56.81 0 0 1-.17 4.37c-.1 1.43-.3 2.66-.5 3.68 2.28 1.94 4.5 3.25 6.68 3.94s4.45 1.03 6.85 1.03c4 0 7.37-1.05 10.1-3.17 2.74-2.1 5.08-4.48 7.02-7.1l1.37.86c-1.94 3.3-4.6 6.05-7.97 8.22s-7 3.25-10.88 3.25c-2.4 0-4.77-.43-7.1-1.3s-4.54-2.03-6.6-3.5c-1.37 5.37-3.68 10.45-6.94 15.25a56.12 56.12 0 0 1-11.73 12.59c-4.57 3.6-9.6 6.45-15.08 8.57-5.48 2.1-11.13 3.17-16.96 3.17-5.6 0-10.28-1.26-14.05-3.77s-5.65-6.85-5.65-13.02c0-2.97.5-5.9 1.54-8.82s2.5-6.1 4.45-9.6 4.37-7.4 7.28-11.73l10.02-15.08 18.7-.7z"/><path d="M365.56 435.26l-13.88 21.67c-3.88 6-7.05 11.1-9.5 15.33-2.46 4.23-4.28 7.68-5.48 10.36s-1.8 4.88-1.8 6.6c0 1.37.26 2.48.77 3.34s1.28 1.28 2.3 1.28c2.28 0 5.5-1.3 9.68-3.94s9.4-7.14 15.67-13.53l7.37-7.8 6.77-7.45 9.67-11.14 1.54 1.03c-1.37 1.83-3.06 3.9-5.05 6.25l-6.42 7.37c-2.3 2.57-4.62 5.1-7.02 7.62l-7.02 7.2c-6.62 6.62-12.3 11.25-17.04 13.88-4.74 2.63-9.1 3.94-13.1 3.94-3.77 0-6.68-1.03-8.74-3.08-2.06-2.06-3.08-4.74-3.08-8.05 0-2.28.43-4.65 1.28-7.1.86-2.45 2.3-5.5 4.37-9.17 2.06-3.65 4.8-8.2 8.22-13.62l12.85-20.13 17.64-.86zm9.94-38.02c2.17 0 4.08.8 5.74 2.4 1.65 1.6 2.48 3.5 2.48 5.65 0 2.3-.92 4.37-2.74 6.25-1.83 1.88-3.88 2.83-6.17 2.83-2.5 0-4.68-.66-6.5-1.97s-2.74-3.28-2.74-5.9c0-2.62 1-4.82 3-6.6 2-1.77 4.3-2.65 6.94-2.65z"/><path d="M458.23 451.37c-4.23 5.14-8.8 10.48-13.7 16.02s-10.2 10.6-15.85 15.16c-5.65 4.57-11.7 8.34-18.16 11.3s-13.28 4.46-20.47 4.46c-6.85 0-12.1-1.86-15.76-5.57-3.66-3.7-5.48-9.17-5.48-16.36 0-5.48 1.6-10.85 4.8-16.1s7.3-9.93 12.33-14.05c5.02-4.1 10.56-7.42 16.62-9.94 6.05-2.5 11.93-3.77 17.64-3.77 5.25 0 9.42 1.06 12.5 3.17 3.08 2.1 4.62 4.7 4.62 7.8 0 2.17-.43 4.14-1.28 5.9-.86 1.77-1.97 3.25-3.34 4.45a14.43 14.43 0 0 1-4.62 2.74c-1.7.63-3.43.94-5.14.94-1.5 0-2.8-.1-3.94-.34l2.57-8.05c.9-2.74 1.37-5.48 1.37-8.22 0-1.94-.46-3.48-1.37-4.63-.92-1.14-2.17-1.7-3.77-1.7-2.97 0-6.34 1.17-10.1 3.5s-7.3 5.48-10.62 9.42-6.1 8.45-8.4 13.53c-2.3 5.08-3.43 10.36-3.43 15.85 0 4.34 1.3 8.02 3.94 11.05s6.28 4.54 10.96 4.54c5.6 0 11.16-1.54 16.7-4.62s10.8-6.82 15.76-11.22 9.5-8.96 13.62-13.7l10.45-12.25 1.54.68z"/><path d="M527.96 450.68a230.37 230.37 0 0 1-11.4 14.22c-4.06 4.68-8.88 9.6-14.48 14.73-7.88 7.08-15.45 11.96-22.7 14.65-7.25 2.68-14.08 4.03-20.47 4.03-6.5 0-11.65-1.94-15.42-5.83-3.77-3.88-5.65-8.9-5.65-15.08 0-5.48 1.65-10.9 4.97-16.27 3.3-5.37 7.48-10.16 12.5-14.4 5.02-4.22 10.53-7.65 16.53-10.28 6-2.62 11.68-3.94 17.04-3.94 4.9 0 8.74.94 11.48 2.83 2.74 1.88 4.1 4.54 4.1 7.97 0 2.74-.94 5.25-2.83 7.54s-4.3 4.34-7.28 6.17-6.3 3.43-10.02 4.8a147.8 147.8 0 0 1-11.05 3.6c-3.66 1.03-7.08 1.88-10.28 2.57l-7.88 1.7c-.57 2.3-.86 4.34-.86 6.17 0 4.9 1.37 8.9 4.1 12s6.57 4.62 11.48 4.62c4.8 0 10.08-1.43 15.85-4.28 5.76-2.85 11.56-7.02 17.4-12.5a215.09 215.09 0 0 0 12.85-13.28c4.1-4.62 7.7-8.93 10.8-12.93l1.2 1.2zm-37.18-11.65c0-1.6-.43-2.74-1.28-3.43-.86-.68-1.97-1.03-3.34-1.03-2.86 0-5.94 1.2-9.25 3.6s-6.42 5.34-9.34 8.82c-2.9 3.48-5.48 7.14-7.7 10.96-2.23 3.83-3.68 7.17-4.37 10.02 4.68-.9 9.14-2.42 13.36-4.54 4.22-2.1 7.97-4.5 11.22-7.2s5.85-5.54 7.8-8.57c1.95-3 2.92-5.9 2.92-8.64zm88.92 56.53l21.24-31.86H552.3l87.02-74h9.08l-89.08 70.58v.34h43.34l32.38-52.76 19-2.23c-6.28 8.9-12.3 18-18.07 27.24l-17.56 27.75h20.38l-1.37 3.08h-20.73c-2.97 5.14-6.03 10.22-9.17 15.25s-6.14 10.22-9 15.6l-18.83 1.02zm281.95-119.23l-78.97 124.7c-4.45 6.5-9.3 12.65-14.56 18.42S757.16 530.27 751 534.6s-12.76 7.76-19.8 10.28c-7.02 2.5-14.42 3.77-22.18 3.77-4.45 0-8.7-.4-12.76-1.2s-7.6-2.14-10.62-4.03c-3.02-1.88-5.45-4.34-7.28-7.37s-2.74-6.77-2.74-11.22c0-2.5.5-4.94 1.54-7.28a20.58 20.58 0 0 1 4.28-6.25c1.83-1.83 3.88-3.3 6.17-4.37 2.3-1.1 4.74-1.63 7.37-1.63 3.65 0 7.02.46 10.1 1.37 3.08.9 6.22 2.17 9.42 3.77l-.17 1.37c-1.6-.57-3.23-1.1-4.88-1.63-1.66-.5-3.34-.77-5.05-.77-2.4 0-4.48.5-6.25 1.54s-3.25 2.34-4.45 3.94-2.1 3.45-2.74 5.57a22.32 22.32 0 0 0-.94 6.42 25.01 25.01 0 0 0 1.03 7.11c.7 2.34 1.8 4.46 3.34 6.34s3.57 3.4 6.08 4.54 5.54 1.7 9.08 1.7c5.7 0 11.16-1.3 16.36-3.85 5.2-2.57 10.25-6.1 15.16-10.62s9.68-9.8 14.3-15.85 9.22-12.62 13.8-19.7l23.64-36.32-.34-.34c-3.3 4.1-7.14 8.37-11.48 12.76a117.08 117.08 0 0 1-13.96 12.08c-4.97 3.66-10.2 6.66-15.68 9s-11.08 3.5-16.8 3.5c-3.66 0-6.54-1-8.65-3-2.12-2-3.17-4.82-3.17-8.48 0-3.88 1.34-8.6 4.03-14.13 2.68-5.54 6-11.5 9.94-17.9s8.25-12.96 12.93-19.7 9-13.25 12.93-19.53 7.25-12.08 9.94-17.4c2.68-5.3 4.03-9.68 4.03-13.1 0-6.74-3.03-10.1-9.08-10.1-5.83 0-11.62 1.26-17.4 3.77s-11 5.85-15.67 10.02-8.48 8.97-11.4 14.4c-2.9 5.43-4.37 11.05-4.37 16.87 0 1.5.2 3 .6 4.54s.97 2.9 1.7 4.1a9.68 9.68 0 0 0 2.91 3c1.2.8 2.6 1.2 4.2 1.2 2.28 0 4.4-.37 6.34-1.1s3.74-1.7 5.4-2.9a39.5 39.5 0 0 0 4.7-4.02 165.31 165.31 0 0 0 4.45-4.63l1.2.86c-1.6 1.83-3.3 3.63-5.14 5.4s-3.8 3.37-5.9 4.8a30.82 30.82 0 0 1-6.68 3.43c-2.34.86-4.88 1.3-7.62 1.3-4.57 0-8.4-1.2-11.48-3.6s-4.62-6.1-4.62-11.13c0-5.94 1.8-11.8 5.4-17.56s8.34-10.93 14.22-15.5 12.56-8.25 20.04-11.05 15.16-4.2 23.04-4.2c2.28 0 4.57.23 6.85.68 2.28.46 4.37 1.23 6.25 2.3 1.88 1.1 3.43 2.5 4.62 4.28 1.2 1.77 1.8 4.03 1.8 6.77 0 4-1.34 8.82-4.03 14.48-2.68 5.65-6 11.68-9.93 18.07-3.94 6.4-8.25 12.96-12.93 19.7l-12.93 19.2c-3.94 6.05-7.25 11.62-9.94 16.7-2.68 5.08-4.02 9.17-4.02 12.25 0 4.57 2.28 6.85 6.85 6.85 3.43 0 7.34-1.17 11.73-3.5s8.82-5.25 13.28-8.74c4.46-3.48 8.7-7.3 12.76-11.48s7.45-8.08 10.2-11.74c2.74-3.65 5.76-7.96 9.08-12.93l10.1-15.5 10.1-16.2 9.25-15.16 7.45-12.5 4.7-8.22 18.98-.86zm65.45 74.87c-2.3 2.97-5 5.65-8.14 8.05s-6.6 3.6-10.36 3.6c-2.63 0-4.9-.57-6.85-1.7s-3.7-2.74-5.3-4.8c-1.37 5.7-3.63 11.1-6.77 16.2s-6.94 9.54-11.4 13.36c-4.45 3.83-9.42 6.85-14.9 9.08a45.02 45.02 0 0 1-17.13 3.34c-6.28 0-11.3-1.8-15.08-5.4s-5.65-8.54-5.65-14.82c0-6.05 1.54-11.85 4.63-17.4 3.08-5.54 7.08-10.4 12-14.56s10.33-7.48 16.27-9.94c5.94-2.45 11.76-3.68 17.47-3.68 6.17 0 11.02 1.66 14.56 4.97s5.7 7.3 6.5 12c.57 3.43 1.86 6.17 3.85 8.22 2 2.06 4.6 3.08 7.8 3.08 3.08 0 6-.9 8.74-2.74s5.65-4.57 8.74-8.22l1.03 1.37zm-79.66 45.05c2.85 0 5.7-.97 8.57-2.9 2.85-1.94 5.6-4.45 8.22-7.54 2.63-3.08 5.05-6.57 7.28-10.45s4.17-7.76 5.82-11.65c1.66-3.88 2.94-7.6 3.85-11.13s1.37-6.5 1.37-8.9c0-2.85-.6-5.08-1.8-6.68s-3.1-2.4-5.74-2.4c-2.86 0-5.7.97-8.57 2.9s-5.6 4.45-8.22 7.54c-2.63 3.08-5.05 6.57-7.28 10.45s-4.17 7.77-5.82 11.65c-1.66 3.88-2.94 7.6-3.85 11.13-.92 3.54-1.37 6.5-1.37 8.9 0 2.85.6 5.08 1.8 6.68s3.1 2.4 5.74 2.4z"/><path d="M987.73 434.58c-4.46 7.43-8.6 14.05-12.42 19.87s-7.1 11-9.85 15.5-4.88 8.42-6.42 11.73c-1.54 3.32-2.3 6.23-2.3 8.74s1.08 3.77 3.26 3.77c1.37 0 3.02-.48 4.97-1.46 1.94-.97 4-2.23 6.17-3.77s4.4-3.34 6.68-5.4c2.28-2.06 4.45-4.1 6.5-6.17l7.45-7.96c2.45-2.68 4.74-5.28 6.85-7.8l5.74-6.94 4.28-5.4 1.37 1.03c-2.74 3.66-6.23 8.02-10.45 13.1a256.72 256.72 0 0 1-13.53 14.99c-5.82 5.94-11.2 10.57-16.1 13.88s-9.77 4.97-14.56 4.97c-3.43 0-6.17-1.03-8.22-3.08-2.05-2.06-3.08-4.62-3.08-7.7 0-2.17.2-4.1.6-5.82s.88-3.03 1.46-3.94l-.34-.34-6.68 6.94c-2.4 2.46-4.97 4.7-7.7 6.77a44.18 44.18 0 0 1-8.82 5.14c-3.14 1.37-6.54 2.06-10.2 2.06-3.54 0-6.22-1.1-8.05-3.34s-2.74-4.82-2.74-7.8c0-4.34 2.34-10.62 7.02-18.84s11.02-18.9 19-32.03l18.16-.7-22 34c-5.65 8.85-8.48 15.45-8.48 19.8 0 1.37.37 2.5 1.1 3.43s1.74 1.37 3 1.37c2.17 0 4.77-.9 7.8-2.74s6.2-4.28 9.5-7.37c3.3-3.08 6.6-6.62 9.85-10.62a109.89 109.89 0 0 0 8.82-12.5l14.73-23.98 17.62-1.4z"/><path d="M639.06 316.26c3.2 9.57 9.58 14.36 19.15 14.36v19.15H351.78v-19.15c9.58 0 15.96-4.8 19.15-14.36 3.2-9.58 9.58-14.36 19.15-14.36H619.9c9.6 0 15.97 4.8 19.16 14.36zm-9.57-23.94h-249v-19.15c2.6 0 4.84-.9 6.73-2.7 1.9-1.8 2.84-4 2.84-6.58v-.3c0-15.96 3-30.82 8.98-44.6 5.98-13.96 14.2-26.18 24.7-36.66 10.47-10.47 22.7-18.7 36.66-24.7 13.77-5.98 28.62-8.98 44.6-8.98 15.96 0 30.82 3 44.6 8.98 13.96 6 26.18 14.2 36.66 24.7 10.47 10.47 18.7 22.7 24.7 36.66 5.98 13.77 8.98 28.63 8.98 44.6v.3c0 2.6.94 4.8 2.84 6.58a9.45 9.45 0 0 0 6.73 2.7v19.15zM484.95 186.4c1.2-2.4 1.3-4.8.3-7.18-.8-2.6-2.4-4.44-4.8-5.54s-4.9-1.24-7.48-.45c-13.57 5-25.44 12.57-35.6 22.74s-17.76 22.05-22.74 35.6c-.8 2.6-.65 5.1.45 7.48 1.1 2.4 2.94 4 5.54 4.8.4.2.9.35 1.5.45s1.1.15 1.5.15c2 0 3.84-.55 5.54-1.65s2.94-2.64 3.74-4.64c3.8-10.77 9.82-20.3 18.1-28.58s17.8-14.3 28.58-18.1c2.38-.98 4.17-2.68 5.37-5.07zm10.47-66.43h-9.28c0-5.4 1.84-9.92 5.54-13.62s8.23-5.54 13.62-5.54 9.92 1.85 13.62 5.54c3.7 3.7 5.54 8.23 5.54 13.62h-9.88v24.24a76.61 76.61 0 0 1-4.79-.15 76.61 76.61 0 0 0-9.58 0 76.61 76.61 0 0 1-4.79.15v-24.24zm-223.75 229.8c-8.65-25.15-13.35-52.14-13.36-80.26 0-68.15 27.6-129.75 72.25-174.43C375.24 50.43 436.84 22.85 505 22.84c68.16 0 129.75 27.6 174.43 72.25 44.66 44.68 72.24 106.28 72.25 174.43 0 28.1-4.7 55.1-13.36 80.26h24.04c7.9-25.35 12.15-52.3 12.16-80.26C774.5 120.67 653.86.01 505 0 356.14.01 235.48 120.67 235.48 269.52c0 27.95 4.26 54.9 12.15 80.26h24.04zm66.27 267.12h-11.48l-4.57-12.08h-21.83l-4.57 12.08h-10.9l20.55-52.35h11.92l20.86 52.35zm-23.25-32.25l-.98-2.8-1-3.3-.94-3.2-.68-2.55h-.15l-.75 2.55-1 3.2-1.1 3.3-.97 2.8-4.35 12.22h16.27l-4.34-12.22zm39.8-20.1v30.82c0 4.9.86 8.45 2.6 10.65s4.4 3.3 8 3.3c3.9 0 6.75-1.1 8.55-3.3s2.7-5.75 2.7-10.65v-30.82h10.12v31.57c0 7.2-1.8 12.6-5.4 16.24s-8.95 5.44-16.05 5.44c-7.5 0-12.9-1.83-16.2-5.48s-4.95-9.05-4.95-16.2v-31.57h10.65zm78.9 8.85l-14.62-.22v43.72h-10.73v-43.72l-14.32.22v-8.85h39.67v8.85zm29.4-9.75c3.85 0 7.32.63 10.42 1.88s5.74 3.04 7.9 5.36 3.85 5.14 5.02 8.44 1.76 7.03 1.76 11.17c0 4.2-.6 7.98-1.84 11.33s-2.95 6.2-5.18 8.6-4.93 4.2-8.1 5.47c-3.18 1.28-6.7 1.9-10.6 1.9-3.85 0-7.35-.63-10.5-1.88s-5.83-3.05-8.02-5.4c-2.2-2.35-3.9-5.2-5.1-8.5s-1.8-7.06-1.8-11.2c0-8.7 2.27-15.4 6.82-20.1 4.57-4.7 10.97-7.05 19.22-7.05zm-.6 8.18c-2.1 0-4 .45-5.74 1.35s-3.2 2.17-4.46 3.82-2.2 3.65-2.9 6-1 4.95-1 7.8.34 5.44 1 7.76c.67 2.33 1.65 4.3 2.92 5.93s2.8 2.9 4.54 3.8 3.72 1.35 5.92 1.35c2.1 0 4-.46 5.74-1.4 1.73-.92 3.2-2.2 4.46-3.86s2.22-3.64 2.92-5.96c.7-2.33 1.05-4.9 1.05-7.7 0-2.9-.34-5.52-1-7.88-.67-2.35-1.65-4.34-2.92-5.96s-2.8-2.87-4.58-3.75c-1.76-.88-3.75-1.3-5.95-1.3zm54.6-7.28h15.15c3.2 0 6.12.2 8.77.6s4.9 1.1 6.8 2.14 3.32 2.43 4.35 4.2c1.02 1.78 1.54 4.04 1.54 6.8 0 3.45-.96 6.2-2.9 8.25s-4.6 3.43-8.06 4.12v.15c.9.25 1.7.58 2.36.97a7.94 7.94 0 0 1 1.76 1.42c.5.55.95 1.2 1.35 2l1.2 2.6 8.1 19.12H545.6l-5.85-14.85-1.5-3.38c-.45-.9-1-1.6-1.7-2.14-.67-.53-1.5-.9-2.5-1.1s-2.3-.3-3.9-.3h-2.78v21.75H516.8v-52.33zm10.58 22.5h3.08c4.2 0 7.26-.56 9.2-1.7 1.92-1.12 2.9-3 2.9-5.66 0-1.4-.28-2.55-.83-3.45s-1.34-1.6-2.36-2.14c-1.03-.53-2.3-.88-3.8-1.05s-3.2-.26-5.1-.26h-3.08v14.25zm36.08-22.5h30.98v8.7H573.9v12.6h18.9v8.47h-18.9v13.8h20.78v8.78h-31.2v-52.35zm42.08 0h13.2c2.9 0 5.7.22 8.36.67s5.03 1.27 7.05 2.47c2.03 1.2 3.64 2.84 4.84 4.9 1.2 2.08 1.8 4.74 1.8 8 0 3.15-.6 5.76-1.76 7.84s-2.76 3.75-4.76 5.03-4.34 2.17-7 2.7a44.44 44.44 0 0 1-8.5.8h-2.62v19.95h-10.58v-52.35zm10.57 24.38h1.9c1.8 0 3.44-.1 4.9-.34s2.74-.65 3.8-1.28c1.05-.62 1.86-1.47 2.44-2.55.57-1.07.86-2.44.86-4.1 0-3.1-1-5.24-3.04-6.4s-5-1.76-8.96-1.76h-1.88v16.43zm32.47-24.38h10.58v43.35h20.33v9h-30.9v-52.35zm40.22 0l7.62 13.6 1.84 3.56 1.72 3.4 1.35 2.6h.15l1.35-2.6 1.8-3.4 1.9-3.56 1.6-3.04 5.78-10.57h11.47l-19.05 31.57v20.78h-10.58v-20.85l-19.35-31.5h12.4z" fill="#f7b234"/><defs ><path  d="M61.77-71.65c.02.07.01.13-.03.2-.05.1-.1.06-.17.13a.64.64 0 0 0-.08.36c-.17.06-.01.23-.02.35 0 .05-.04.1-.04.16-.01.12.02.27.07.37a1.66 1.66 0 0 0 .44.54c.2.15.36.57.6.63.18.04.38-.1.54-.14.18-.04.4.01.57-.05.22-.08.13-.34.3-.45.1-.07.3-.01.4-.05.2-.07.34-.26.38-.46.02-.08.01-.14.04-.22.04-.1.1-.16.1-.3-.01-.06-.05-.12-.06-.2-.02-.1 0-.22 0-.34 0-.2.02-.38-.08-.55-.38-.7-1.24-.93-1.97-.8-.18.03-.3.13-.44.2-.17.1-.14.17-.32.22-.08.03-.22.12-.2.22 0 .12 0 .05.01.17-.02.01-.02 0-.03-.03"/><path  d="M69.44-25.74c.02.07.01.13-.03.2-.05.1-.1.06-.17.13a.64.64 0 0 0-.08.36c-.16.06 0 .23-.01.35 0 .05-.04.1-.04.16-.01.12.02.27.07.37a1.66 1.66 0 0 0 .44.54c.2.15.36.57.6.63.18.04.38-.1.54-.14.18-.04.4.01.57-.05.22-.08.13-.34.3-.45.1-.07.3-.01.4-.05.2-.07.34-.26.38-.46.02-.08.01-.14.04-.22.04-.1.1-.16.1-.3-.01-.06-.05-.12-.06-.2-.02-.1 0-.22 0-.34 0-.2.02-.38-.08-.55-.38-.7-1.24-.93-1.97-.8-.18.03-.3.13-.44.2-.17.1-.14.17-.32.22-.08.03-.22.12-.2.22 0 .12 0 .05.01.17-.02.01-.02 0-.03-.03"/><path  d="M54.12-10.43c.02.07.01.13-.03.2-.05.1-.1.06-.17.13a.64.64 0 0 0-.08.36c-.17.06-.01.23-.02.35 0 .05-.04.1-.04.16-.01.12.02.27.07.37a1.66 1.66 0 0 0 .44.54c.2.15.36.57.6.63.18.04.38-.1.54-.14.18-.04.4.01.57-.05.22-.08.13-.34.3-.45.1-.07.3-.01.4-.05.2-.07.34-.26.38-.46.01-.08 0-.15.03-.22.04-.1.1-.16.1-.3-.01-.06-.05-.12-.06-.2-.02-.1 0-.22 0-.34 0-.2.02-.38-.08-.55-.38-.7-1.24-.93-1.97-.8-.18.03-.3.13-.44.2-.17.1-.14.17-.32.22-.08.03-.22.12-.2.22 0 .12 0 .05.01.17-.02.01-.02 0-.03-.03"/></defs></svg>