<svg xmlns="http://www.w3.org/2000/svg" width="1010" height="338.82" xmlns:v="https://vecta.io/nano"><g fill="#747675"><path d="M355.08 162.83c-1.6 1.92-2.73 2.44-4.37 2.44-2.73 0-6.54-1.33-11.77-2.44-7.66-1.65-12.87-3.56-15.58-8.2-3.85-6.55-5.23-15.6-5.5-24.37l-.28-11.77c0-.55 0-1.62-.8-1.62-.83 0-1.1.27-4.93 8.48-3.56 7.66-7.94 18.56-11.5 28.74-13.13 37.47-16.66 53.88-16.66 65.37 0 5.2-6 4.42-9.3 6.6-1.93 1.32-3.3 1.9-4.95 1.9-4.1 0-9.3-4.1-10.92-4.42-6.87-1.07-8.52-10.63-8.52-12.56 0-10.96 6.88-16.43 9.06-24.92 13.67-52.53 44.35-103.7 62.92-149.15 2.5-6 3.03-6.54 5.2-6.54 2.2 0 3.57.84 7.94 1.38 9.06 1.08 18.36 4.37 18.36 9.85 0 1.9-.83 6.82-2.5 12.3l-4.6 13.94c-1.38 4.4-1.93 9.57-2.2 14.53-.58 9.3-.86 16.67-.86 23 0 9.86.58 16.67.58 22.43 0 1.1.28 1.9.8 1.9.8 0 1.67-.53 5.5-4.63 15.62-16.7 50.35-44.33 68.14-69.25 2.72-3.82 3.56-3.82 6.8-3.82 4.4 0 9.3 2.18 11.5 2.18 6.28 0 10.42 9.04 10.42 13.42 0 2.44-.57 3.3-3.3 7.4-27.6 41.3-40.24 88.95-46.25 139.58-1.1 9-1.4 11.5-2.47 24.07-.26 3.55-1.38 4.37-4.1 4.37-2.44 0-4.68-1.33-5.5-1.33-.8 0-1.92.52-3.3.52-4.9 0-12.03-4.37-15-6.56-.86-.57-2.76-2.48-2.76-3.83 0-1.1.24-4.1.83-7.4 3.25-20.27 6.28-38.32 10.37-58 2.45-12.03 4.37-20.23 8.47-31.2.84-2.18 1.12-3.55 1.12-3.84 0-.8-.28-1.1-.54-1.1-.58 0-1.12.57-3.8 3.3-7.42 7.4-23.28 26.54-25.78 29.27m110.4 23.5c1.67-1.07 7.95-4.1 17.53-15.32 3.28-3.84 5.73-5.75 9.84-10.66 8.46-10.4 21.6-18.64 34.22-52.54.8-2.44 3.57-9.3 9.87-9.3 3.54 0 5.75 2.44 10.9 2.76 3.86.27 6.87.54 9.33 4.64 1.36 2.18 1.9 4.1 1.9 5.75 0 3.82-1.64 8.47-5.2 13.68l-6.53 9.57c-6.57 10.4-10.68 19.17-16.15 34.5l-14.8 40.48c-1.93 5.5-2.18 6.6-2.18 7.14 0 .52.24 1.1 1.62 1.36 2.2.54 6.04 2.18 6.04 6.02 0 2.45-1.38 4.9-2.2 6.02-18.02 24.06-26.82 50.08-32.04 75.5-2.18 10.94-4.1 30.36-18.57 32-2.45.26-6 .84-9.58.84-2.7 0-5.76-.58-8.78-2.5-3.85-2.43-4.9-6.82-4.9-11.17 0-8 4.1-17.53 5.2-20.03 6.3-14.2 14.22-30.62 22.95-45.94 1.64-8.25 10.16-35.03 16.98-56.62.84-2.8 1.38-4.43 1.38-4.97 0-.8-.28-1.1-.84-1.1-.8 0-2.97 1.64-7.1 4.93-6.6 5.23-14.8 9.85-17.52 9.85-13.15 0-23.52-4.63-30.4-12.57-1.9-2.22-2.45-6.6-2.45-9.58 0-15.6 9.04-42.97 10.65-47.66 5.5-15.32 12.87-30.9 17.53-47.6 1.1-3.82 5.73-9.04 11.75-9.04 1.1 0 1.92 0 3.3.27 4.63.84 9.04 1.1 12.6 3.57 2.45 1.65 3.83 4.94 3.83 7.65 0 3.84-1.66 7.4-3.02 9.85-1.93 3.58-5.23 6.55-6.87 10.13-9.28 20.26-12.04 33.67-18.85 54.72-2.2 6.87-3.6 12.34-3.6 15.58 0 .84.3 1.12.83 1.12.6.03 1.66-.25 3.3-1.35m171.17-78.77c4.1 17.25 15.6 54.45 19.12 75.54 1.14 6.54 1.93 11.44 1.93 16.4 0 10.96-3.52 21.07-17.53 26.3-3.52 1.33-7.6 1.33-12.03 1.33-26.78 0-51.7-15.86-68.92-37.2-3.6-4.37-6.02-6.56-7.96-9.32-5.2-7.35-7.92-16.94-7.92-22.7 0-4.67 1.33-9.84 6-11.75a9.23 9.23 0 0 1 3.25-.58c5.23 0 11.53 2.17 16.18 4.93 5.5 3.3 10.67 8.74 10.67 10.92 0 3.57-1.33 6.33-1.33 9.6 0 8.78 16.12 23.25 25.96 28.73 7.68 4.38 12.06 5.76 13.96 5.76 6.54 0 7.92-6.83 7.92-8.75 0-6.85-.54-16.7-1.07-20.27-4.66-30.34-15.05-54.18-20.8-84.26-1.64-8.48-2.7-13.97-2.7-20.55 0-1.9.28-3.84.8-6.28 1.64-7.4 2.18-25.7 19.15-25.7 40.52 0 51.96 24.05 54.72 39.92.8 4.7 1.38 5.75 1.38 7.98 0 3.26-1.64 5.7-7.9 5.7-1.14 0-2.26 0-6.35-1.06-7.1-1.93-11.5-7.42-14.75-10.7-1.9-1.92-2.48-10.66-4.95-15.28-1.38-2.78-3.55-4.16-5.2-4.16-2.17 0-5.18 8.5-5.18 17.82-.01 10.14 2.46 22.97 3.55 27.66m66 104.47c-3.28 3.83-9.85 7.14-15.58 7.14-1.66 0-3.04-.26-4.64-.8-8.78-3.02-15.34-7.66-15.34-12.6 0-2.47 2.2-4.64 2.73-7.1 7.92-36.13 26.83-69.5 44.6-107.83 6.28-13.7 8.2-17.52 10.4-21.36 12.6-22.14 22.2-38.58 35.3-64.84 1.67-3.3 4.43-4.67 9.04-4.67 1.67 0 2.76 0 5.75.56 6.3 1.08 8.47 1.66 12.04 5.5 1.93 2.2 3.02 4.9 3.02 7.36 0 6.34-6.6 14-8.18 15.9-4.43 4.9-5.76 6.82-10.18 12.83-17.5 24.12-34.7 61.32-56.38 107.53-1.9 4.16-2.45 5.75-2.45 6.6 0 .27 0 .53.28.53.58 0 1.92-.8 3.3-2.7 12.87-18.1 31.2-41.36 44.35-54.48 4.1-4.1 6.82-6.58 7.94-6.84 2.73-.82 6-1.65 7.92-1.65 3 0 9.85 1.38 12.56 2.5 4.42 1.6 6.02 5.17 6.02 8.73 0 5.5-3.5 12.62-7.94 20.28-3.52 6-4.1 8.74-7.08 16.12-7.14 17.52-13.68 39.13-13.68 57.44 0 8.54.8 15.62 7.1 16.46 1.9.26 7.92 1.33 7.92 4.63 0 1.38-.26 2.2-1.33 4.37-1.4 2.76-10.13 7.14-16.17 7.14-1.62 0-6.83-.54-10.94-2.18-12.87-5.23-15.32-17.27-15.32-27.66 0-13.93 2.2-26 8.47-42.68.85-2.18 1.12-3.03 1.12-3.82 0-.55-.28-.85-.55-.85-.57 0-1.38.57-4.4 4.68-13.96 19.16-27.63 41.86-39.67 55.8M887.1 107c4.12 0 10.1-.8 20.24-.8 12.87 0 21.35 4.96 21.35 9.58 0 2.73-2.17 3.84-4.9 4.95-3.85 1.33-3.3 2.7-7.4 3.53-6.87 1.1-12.56 3.57-19.97 4.67-3.83.55-7.4.55-10.1.55-1.1 0-1.93.8-2.48 3.02-7.1 28.98-16.4 51.96-33.38 70.58-6.57 7.1-15.08 16.67-26.85 16.67-3 0-6.27-.8-9-2.18-10.7-5.16-19.43-11.77-21.9-18.3-3-7.66-4.1-15.06-4.1-22.47 0-22.16 11.5-42.68 23.54-60.73 1.92-3 4.67-5.22 6.6-7.93 8.2-11.77 19.95-25.73 33.63-25.73 5.76 0 12.87 1.66 18.62 6.57 2.45 2.18 3.26 3.3 4.1 5.46 4.08 10.65 5.75 12.57 12.02 12.57m-39.66 4.95c-13.42 17.52-33.68 49.23-33.68 70.6 0 1.4.26 4.93 1.36 7.94.8 2.22 3.04 5.75 4.37 5.75 1.66 0 3.57-.8 6.87-5.75 14.76-22.14 29.82-44.03 29.82-70.6 0-3 0-6.82-1.07-7.66-1.38-1.06-1.9-1.92-2.22-2.7-.26-.6-.54-.85-.8-.85-.8-.01-2.45.24-4.64 3.28"/><path d="M918.33 200.6c-13.1 26.52-24.33 60.48-29.82 82.1-.54 2.47-.28 7.42-1.12 9.6-.8 2.17-11.18 4.38-13.1 4.38-4.68 0-9.85-.83-12.34-5.23-1.92-3.57-3.83-4.1-3.83-8.47 0-1.12.26-2.45 1.1-5.2 16.7-55.8 48.44-120.4 59.95-184.45.55-2.98 1.33-5.44 8.75-8.2 2.18-.8 4.35-1.06 6.85-1.06 6.82 0 13.67 2.97 13.67 7.66 0 7.08-1.64 11.5-3.28 18.03-.8 3.57-1.12 5.22-1.12 5.75 0 .8 0 1.08.57 1.08.55 0 1.36-.55 3.83-3.26 7.95-8.77 14.23-14.8 22.43-19.43 3.02-1.65 5.2-1.9 7.92-1.9 2.5 0 8.5 0 24.1 10.37 5.5 3.57 7.1 9.85 7.1 15.88 0 6-1.35 10.95-2.2 13.68-.54 1.92.28 6-1.33 10.42-9.06 23.8-17.25 52.54-38.86 71.66-1.92 1.66-4.94 2.5-8.25 2.5-5.44 0-20.2-1.66-32.27-19.45-2.47-3.82-2.76-3.82-3.83-3.82-1.1.02-2.15 1.93-4.93 7.4m23.27-39.96c-.8 1.38-1.66 3.82-1.66 6.55 0 6.87 3.04 15.6 7.4 21.92 1.4 1.93 2.45 2.47 3.02 2.47.8 0 1.66-.26 3-1.92 8.2-9.86 15.34-29.82 16.72-33.66 4.38-13.68 7.08-23 8.47-29.86.84-3.84 1.1-5.17 1.1-6 0-.8 0-1.06-.58-1.06-1.05 0-2.45 1.06-6.28 4.36-12.82 11.23-23 23.8-31.18 37.2"/></g><path d="M164.05 233.1c8.65 0 15.63 6.98 15.63 15.62s-6.98 15.62-15.63 15.62c-8.62 0-15.6-6.98-15.6-15.62s6.98-15.62 15.6-15.62m-125 0c8.64 0 15.62 6.98 15.62 15.62s-6.98 15.62-15.62 15.62-15.62-6.98-15.62-15.62a15.62 15.62 0 0 1 15.62-15.62M1.65 72.04c1.5-1.9 3.77-3 6.17-3h188.64l6.95-25.48c.93-3.4 4-5.77 7.53-5.77h31.26c4.3 0 7.8 3.5 7.8 7.82a7.8 7.8 0 0 1-7.79 7.81h-25.3l-45.3 166.13a7.83 7.83 0 0 1-7.53 5.75h-125a7.82 7.82 0 0 1-7.82-7.82 7.84 7.84 0 0 1 7.82-7.81H158.1l12.78-46.87H27.34a7.78 7.78 0 0 1-7.56-5.92L.23 78.74a7.83 7.83 0 0 1 1.42-6.7" fill="#d10027"/><defs ><path  d="M61.77-71.65c.02.07.01.13-.03.2-.05.1-.1.06-.17.13a.64.64 0 0 0-.08.36c-.17.06-.01.23-.02.35 0 .05-.04.1-.04.16-.01.12.02.27.07.37a1.66 1.66 0 0 0 .44.54c.2.15.36.57.6.63.18.04.38-.1.54-.14.18-.04.4.01.57-.05.22-.08.13-.34.3-.45.1-.07.3-.01.4-.05.2-.07.34-.26.38-.46.02-.08.01-.14.04-.22.04-.1.1-.16.1-.3-.01-.06-.05-.12-.06-.2-.02-.1 0-.22 0-.34 0-.2.02-.38-.08-.55-.38-.7-1.24-.93-1.97-.8-.18.03-.3.13-.44.2-.17.1-.14.17-.32.22-.08.03-.22.12-.2.22 0 .12 0 .05.01.17-.02.01-.02 0-.03-.03"/><path  d="M69.44-25.74c.02.07.01.13-.03.2-.05.1-.1.06-.17.13a.64.64 0 0 0-.08.36c-.16.06 0 .23-.01.35 0 .05-.04.1-.04.16-.01.12.02.27.07.37a1.66 1.66 0 0 0 .44.54c.2.15.36.57.6.63.18.04.38-.1.54-.14.18-.04.4.01.57-.05.22-.08.13-.34.3-.45.1-.07.3-.01.4-.05.2-.07.34-.26.38-.46.02-.08.01-.14.04-.22.04-.1.1-.16.1-.3-.01-.06-.05-.12-.06-.2-.02-.1 0-.22 0-.34 0-.2.02-.38-.08-.55-.38-.7-1.24-.93-1.97-.8-.18.03-.3.13-.44.2-.17.1-.14.17-.32.22-.08.03-.22.12-.2.22 0 .12 0 .05.01.17-.02.01-.02 0-.03-.03"/><path  d="M54.12-10.43c.02.07.01.13-.03.2-.05.1-.1.06-.17.13a.64.64 0 0 0-.08.36c-.17.06-.01.23-.02.35 0 .05-.04.1-.04.16-.01.12.02.27.07.37a1.66 1.66 0 0 0 .44.54c.2.15.36.57.6.63.18.04.38-.1.54-.14.18-.04.4.01.57-.05.22-.08.13-.34.3-.45.1-.07.3-.01.4-.05.2-.07.34-.26.38-.46.01-.08 0-.15.03-.22.04-.1.1-.16.1-.3-.01-.06-.05-.12-.06-.2-.02-.1 0-.22 0-.34 0-.2.02-.38-.08-.55-.38-.7-1.24-.93-1.97-.8-.18.03-.3.13-.44.2-.17.1-.14.17-.32.22-.08.03-.22.12-.2.22 0 .12 0 .05.01.17-.02.01-.02 0-.03-.03"/></defs></svg>