<svg xmlns="http://www.w3.org/2000/svg" width="1010" height="550.64" xmlns:v="https://vecta.io/nano"><path d="M13.75 472.43c9.3 1.55 17.8 2.32 25.54 2.32l14.82-.18-.36-26.07v-16.96c0-2.97.12-4.85.36-5.63.24-.77 1-1.52 2.32-2.23s3.2-1.07 5.7-1.07c3.57 0 5.36 2.14 5.36 6.43v63.22c0 13.1-.3 27.5-.9 43.2-.12 3.46-3.04 5.18-8.75 5.18-2.86 0-4.3-1.72-4.3-5.18l.7-47.32c-3.8.24-9.02.36-15.62.36s-14.9-.7-24.9-2.14c0 15.72.72 32.14 2.14 49.3.12 1.9-.7 3.36-2.5 4.38-1.8 1-4.02 1.52-6.7 1.52s-4.14-1.37-4.38-4.1c-1.55-16.9-2.32-33.57-2.32-50l1.07-55.7c0-2.38.9-4.14 2.68-5.27s3.7-1.7 5.7-1.7c3.33 0 5 1.6 5 4.82l-.7 42.84zm110.7-49.3c2.98 0 5.47 1.3 7.5 3.93 2.02 2.62 4.64 8.04 7.86 16.25 7.5 19.4 14.82 49.82 21.96 91.25.12.48.18 1.16.18 2.05s-.57 1.85-1.7 2.86-2.74 1.52-4.82 1.52-3.84-.5-5.27-1.52c-1.43-1-2.38-2.68-2.86-5l-2.68-13.66c-2.86-15.12-4.76-22.98-5.7-23.57-1.43-.83-6.16-1.72-14.2-2.68-8.04-.95-13.37-1.43-15.98-1.43-2.62 0-4.17.24-4.64.7-2.14 1.9-5.06 16.37-8.75 43.4-.48 2.26-2.74 3.4-6.8 3.4s-6.07-1.72-6.07-5.18c0-8.57 3.15-24.94 9.46-49.1s11.55-40.18 15.7-48.04c5.26-10.1 10.85-15.16 16.8-15.16zm-.7 19.83c-1.8 0-4.88 5.27-9.3 15.8-4.4 10.54-6.6 17.05-6.6 19.55 0 .6.12 1 .36 1.25.95.95 4.7 1.8 11.25 2.5s10.9 1.07 13.04 1.07 3.33-.15 3.57-.45.36-1.25.36-2.86-1.6-8.15-4.82-19.64c-3.22-11.48-5.84-17.22-7.86-17.22zM250 422.6c1.9 0 3.63.8 5.18 2.4 1.54 1.6 2.32 3.48 2.32 5.63l.62 84.38.62 14.9c0 2.62-.7 5.1-2.14 7.4s-3 3.48-4.73 3.48-3.04-.1-3.93-.27-1.7-.38-2.4-.63c-.7-.24-1.43-.7-2.14-1.43l-1.8-1.8c-.48-.47-1.1-1.4-1.88-2.77l-1.87-3.3c-.48-.83-1.22-2.3-2.23-4.38-1-2.08-3.2-6.34-6.6-12.77l-9.2-17.32c-9.4-17.26-18.16-30.9-26.25-40.9 0 38.7-1.07 65.54-3.2 80.54-.36 2.86-2.56 4.3-6.6 4.3-1.9 0-3.48-.47-4.73-1.43-1.25-.95-1.87-2.5-1.87-4.64s.45-13.93 1.34-35.36l1.34-40.1v-10.1c0-8.57.65-13.4 1.96-14.46s2.68-1.6 4.1-1.6c6.55 0 16.55 10.7 30 32.14 2.62 4.17 7.62 12.9 15 26.16l13.22 24.55-2.14-74.1c0-10.24 1.13-16.07 3.4-17.5 1.18-.7 2.73-1.06 4.64-1.06zm29.82 112.5c-1.8-1.3-2.68-2.77-2.68-4.38s.65-2.95 1.97-4.02c-2.26-17.02-3.4-36.55-3.4-58.57 0-6.67.3-19.64.9-38.93.6-1.8 1.8-3.33 3.66-4.64s3.6-1.96 5.27-1.96 2.68.06 3.04.18c17.02 4.76 31.84 13.96 44.46 27.6s19.22 29.97 19.82 49.02c0 20.95-8.7 34.1-26.07 39.46-5 1.55-10.27 2.32-15.8 2.32-5.54 0-10.4-.42-14.55-1.25.47.95.7 2.23.7 3.84s-.98 3.15-2.95 4.64c-1.96 1.5-4.3 2.23-6.96 2.23-2.68 0-4.37-1.6-5.1-4.82l-2.33-10.7zm10.72-68.4c0 20.83 1.2 40.6 3.57 59.3 2.86.83 7.68 1.25 14.47 1.25s13.3-1.13 19.55-3.4 9.55-5.6 9.9-10c.36-3.33.54-5.9.54-7.68 0-15.47-4.14-29.17-12.4-41.07-8.28-11.9-19.85-20.95-34.73-27.14l-.9 28.74zm173.56-42.66c7.97 0 16.8 1.55 26.43 4.64 2.14 1.67 3.2 3.48 3.2 5.45 0 1.96-.98 3.7-2.95 5.18-1.96 1.5-4.2 2.23-6.7 2.23-6.43-1.67-12.44-2.5-18.04-2.5-12.86 0-22.62 3.8-29.3 11.43s-10 18.93-10 33.93 3.93 26.73 11.8 35.18c4.05 4.4 8.87 6.6 14.46 6.6s14.52-2.97 26.8-8.93c4.3-2.02 7.14-3.04 8.57-3.04 3.1 0 4.64 1.6 4.64 4.82s-1.5 5.9-4.46 8.04c-10.24 5.36-18.2 8.96-23.93 10.8-5.7 1.85-10.66 2.77-14.82 2.77-8.57 0-15.9-3.15-21.96-9.46-10.83-11.67-16.25-27.6-16.25-47.77s5.15-35.12 15.45-44.82 22.65-14.56 37.06-14.56zm60.72 114.9c-1.9 1.73-3.96 2.6-6.16 2.6s-3.72-1.43-4.55-4.3l-1.07-91.96c0-9.04 4-15.24 11.97-18.57 6.43-2.97 14.05-4.46 22.86-4.46 4.52 0 9.38 1.1 14.56 3.3s9.82 5.42 13.93 9.64c4.1 4.23 6.16 8.8 6.16 13.75s-2.26 10.24-6.8 15.9c-4.52 5.66-10.12 10.66-16.78 15-6.67 4.35-13.16 7.6-19.46 9.73 11.07 7.74 20.7 16.04 28.93 24.9 8.2 8.87 12.32 15.75 12.32 20.63 0 1.55-.78 3-2.32 4.37-1.55 1.37-3.42 2.05-5.62 2.05s-4.08-.95-5.62-2.86c-2.62-6.3-7.6-12.95-14.9-19.9s-15.86-13.6-25.63-19.9l1.07 34.3c-.03 2.15-1 4.08-2.9 5.8zm29.02-69.38c9.94-6.3 14.9-12 14.9-17.05s-2.5-8.96-7.5-11.7-10.92-4.1-17.77-4.1-12.3.83-16.34 2.5c-.12 6.07-.18 19.53-.18 40.36 7.98-.35 16.94-3.7 26.88-10zm84.36-46.43c2.97 0 5.47 1.3 7.5 3.93 2.02 2.62 4.64 8.04 7.86 16.25 7.5 19.4 14.82 49.82 21.96 91.25.12.48.18 1.16.18 2.05s-.57 1.85-1.7 2.86-2.74 1.52-4.82 1.52c-2.1 0-3.84-.5-5.27-1.52-1.43-1-2.38-2.68-2.86-5l-2.68-13.66c-2.86-15.12-4.76-22.98-5.7-23.57-1.43-.83-6.16-1.72-14.2-2.68-8.04-.95-13.36-1.43-15.98-1.43s-4.17.24-4.64.7c-2.14 1.9-5.06 16.37-8.75 43.4-.48 2.26-2.74 3.4-6.8 3.4s-6.07-1.72-6.07-5.18c0-8.57 3.15-24.94 9.46-49.1s11.55-40.18 15.72-48.04c5.25-10.1 10.84-15.16 16.8-15.16zm-.7 19.83c-1.8 0-4.88 5.27-9.3 15.8-4.4 10.54-6.6 17.05-6.6 19.55 0 .6.12 1 .35 1.25.95.95 4.7 1.8 11.25 2.5s10.9 1.07 13.04 1.07 3.33-.15 3.57-.45.36-1.25.36-2.86-1.6-8.15-4.82-19.64c-3.2-11.48-5.83-17.22-7.85-17.22zm83.57-17.87l19.82-.36c8.8 0 13.2 2.32 13.2 6.96 0 1.67-.24 2.83-.7 3.48-.48.66-.83 1.16-1.07 1.52s-.7.66-1.43.9c-1.43.48-2.62.78-3.57.9-.96.12-1.6.18-1.96.18-1.3.24-3.5.42-6.6.54s-7.6.18-13.48.18-13.12-.24-21.7-.7v32.86H740c1.3 0 2.53.6 3.66 1.8s1.7 2.5 1.7 3.93c0 5.48-2.32 8.2-6.96 8.2h-34.82l.7 46.8c0 6.07-2.05 9.1-6.16 9.1s-6.52-2.74-7.23-8.2c-.36-1.8-.57-16.93-.63-45.45l-.45-49.2c-4.4.48-6.6-2.02-6.6-7.5 0-1.43.6-3 1.8-4.73 1.2-1.72 2.23-2.65 3.12-2.77s2.02-.18 3.4-.18 4.73.24 10.1.7c7.4.7 13.87 1.07 19.47 1.07zm41.8-.17l72.32-1.07c3.45 1.07 5.18 2.8 5.18 5.18 0 5.95-2.44 8.93-7.32 8.93-8.93 0-18.4.24-28.4.7-.6 10.24-.9 17.95-.9 23.12v9.9l.7 62.68c0 3.7-.96 5.84-2.86 6.43-1.43.48-3.2.72-5.36.72-3.46 0-5.36-1.96-5.72-5.9-.7-9.17-1.07-26.28-1.07-51.34s.36-40.15 1.07-45.27c-2.5.12-6.2.18-11.07.18s-10.95-.06-18.2-.18c-1.9 0-3.4-.6-4.46-1.8-1.07-1.2-1.6-2.65-1.6-4.37s.74-3.42 2.23-5.1 3.3-2.62 5.45-2.86zm90 54.47c-1.67-1.07-2.5-2.62-2.5-4.64s.65-3.87 1.96-5.53c-.48-11.9-.7-24.46-.7-37.68.7-2.86 1.8-4.94 3.3-6.25s3.66-2.14 6.52-2.5c15.72.7 32.74 1.07 51.07 1.07 4.52.96 6.78 2.92 6.78 5.9 0 5-4.88 7.92-14.64 8.75a188.34 188.34 0 0 1-8.57.18h-11.6c-2.26 0-8.5-.47-18.75-1.43 0 14.88.24 25.12.72 30.72l36.43.18c4.3.83 6.43 2.77 6.43 5.8s-1.73 5.4-5.18 7.05c-.36.24-1 .48-1.96.7l-30.9-.54c-1.9 0-3.45.12-4.64.36l.72 30.7c0 6.9-.18 11.85-.54 14.82l41.43-.54c3.8.6 5.7 2.2 5.7 4.82 0 1.8-.8 3.57-2.4 5.36s-3.48 2.92-5.63 3.4l-45.7.7c-2.74 0-4.64-.5-5.7-1.52-1.07-1-1.6-2.7-1.6-5.1.47-3.33.7-8.7.7-16.07v-12.5l-.7-26.23zm84.1 55.7c-1.8-1.3-2.68-2.77-2.68-4.38s.65-2.95 1.97-4.02c-2.26-17.02-3.4-36.55-3.4-58.57 0-6.67.3-19.64.9-38.93.6-1.8 1.8-3.33 3.66-4.64s3.6-1.96 5.27-1.96c1.66 0 2.68.06 3.04.18 17.02 4.76 31.84 13.96 44.46 27.6s19.22 29.97 19.82 49.02c0 20.95-8.7 34.1-26.07 39.46-5 1.55-10.27 2.32-15.8 2.32s-10.4-.42-14.55-1.25c.47.95.7 2.23.7 3.84s-.98 3.15-2.95 4.64c-1.96 1.5-4.28 2.23-6.96 2.23s-4.38-1.6-5.1-4.82l-2.33-10.7zm10.72-68.4c0 20.83 1.2 40.6 3.57 59.3 2.86.83 7.68 1.25 14.47 1.25s13.3-1.13 19.55-3.4 9.55-5.6 9.9-10c.36-3.33.54-5.9.54-7.68 0-15.47-4.14-29.17-12.4-41.07-8.28-11.9-19.85-20.95-34.73-27.14l-.9 28.74z" fill="#1a171b"/><path d="M451.57 170.6l16.26-16.26L377.9 65c-11.2-11.2-19.05-25.77-19.05-25.77l-28-16.8-11.2 11.2 16.8 28S351 69.48 362.22 80.7l89.35 89.9zM695 128.85L566.15.01 510.13 0v56.03l33.62 33.62-224.1 224.1c-6.2 6.18-6.2 16.2 0 22.4l22.42 22.42c6.18 6.2 16.22 6.2 22.4 0l224.1-224.1L639 184.9l56-56.04zM554.95 201.7l-19.6 19.6-11.23-11.18-16.75 16.75 11.18 11.23-19.6 19.6 11.2 11.2c5.93 5.93 19.6 2.8 30.8 14s14.16 30.95 53.23 70.03c12.38 12.38 34.95 9.87 50.42-5.6s17.97-38.04 5.6-50.42c-39.07-39.07-58.82-42.02-70.03-53.22-11.2-11.2-8.07-24.88-14-30.82l-11.2-11.2z"/><defs ><path  d="M61.77-71.65c.02.07.01.13-.03.2-.05.1-.1.06-.17.13a.64.64 0 0 0-.08.36c-.17.06-.01.23-.02.35 0 .05-.04.1-.04.16-.01.12.02.27.07.37a1.66 1.66 0 0 0 .44.54c.2.15.36.57.6.63.18.04.38-.1.54-.14.18-.04.4.01.57-.05.22-.08.13-.34.3-.45.1-.07.3-.01.4-.05.2-.07.34-.26.38-.46.02-.08.01-.14.04-.22.04-.1.1-.16.1-.3-.01-.06-.05-.12-.06-.2-.02-.1 0-.22 0-.34 0-.2.02-.38-.08-.55-.38-.7-1.24-.93-1.97-.8-.18.03-.3.13-.44.2-.17.1-.14.17-.32.22-.08.03-.22.12-.2.22 0 .12 0 .05.01.17-.02.01-.02 0-.03-.03"/><path  d="M69.44-25.74c.02.07.01.13-.03.2-.05.1-.1.06-.17.13a.64.64 0 0 0-.08.36c-.16.06 0 .23-.01.35 0 .05-.04.1-.04.16-.01.12.02.27.07.37a1.66 1.66 0 0 0 .44.54c.2.15.36.57.6.63.18.04.38-.1.54-.14.18-.04.4.01.57-.05.22-.08.13-.34.3-.45.1-.07.3-.01.4-.05.2-.07.34-.26.38-.46.02-.08.01-.14.04-.22.04-.1.1-.16.1-.3-.01-.06-.05-.12-.06-.2-.02-.1 0-.22 0-.34 0-.2.02-.38-.08-.55-.38-.7-1.24-.93-1.97-.8-.18.03-.3.13-.44.2-.17.1-.14.17-.32.22-.08.03-.22.12-.2.22 0 .12 0 .05.01.17-.02.01-.02 0-.03-.03"/><path  d="M54.12-10.43c.02.07.01.13-.03.2-.05.1-.1.06-.17.13a.64.64 0 0 0-.08.36c-.17.06-.01.23-.02.35 0 .05-.04.1-.04.16-.01.12.02.27.07.37a1.66 1.66 0 0 0 .44.54c.2.15.36.57.6.63.18.04.38-.1.54-.14.18-.04.4.01.57-.05.22-.08.13-.34.3-.45.1-.07.3-.01.4-.05.2-.07.34-.26.38-.46.01-.08 0-.15.03-.22.04-.1.1-.16.1-.3-.01-.06-.05-.12-.06-.2-.02-.1 0-.22 0-.34 0-.2.02-.38-.08-.55-.38-.7-1.24-.93-1.97-.8-.18.03-.3.13-.44.2-.17.1-.14.17-.32.22-.08.03-.22.12-.2.22 0 .12 0 .05.01.17-.02.01-.02 0-.03-.03"/></defs></svg>