<svg xmlns="http://www.w3.org/2000/svg" xmlns:xlink="http://www.w3.org/1999/xlink" width="1011.82" height="747.84" xmlns:v="https://vecta.io/nano"><path d="M605.32 20.12c31.5 13.4 58.92 31.77 82.23 55.07 23.3 23.3 41.66 50.72 55.07 82.23 13.4 31.18 20.12 64.55 20.12 100.08 0 35.54-6.7 68.9-20.12 100.08-13.42 31.52-31.77 58.93-55.07 82.23-23.3 23.3-50.72 41.67-82.23 55.07C574.14 508.3 540.77 515 505.24 515c-35.54 0-68.9-6.7-100.08-20.12-31.52-13.4-58.93-31.76-82.23-55.07-23.3-23.3-41.66-50.7-55.07-82.23-13.4-31.18-20.12-64.54-20.12-100.08s6.7-68.9 20.12-100.08c13.4-31.5 31.76-58.92 55.07-82.23 23.3-23.3 50.7-41.66 82.23-55.07C436.33 6.7 469.7 0 505.24 0c35.53 0 68.9 6.7 100.08 20.12zM599.8 444.1c20.12-10.06 37.97-22.88 53.56-38.47s28.42-33.45 38.48-53.56c10.4-20.12 17.26-41.57 20.62-64.38l-30.18-30.18 30.18-30.18c-3.36-22.8-10.23-44.26-20.62-64.38-10.06-20.12-22.88-37.97-38.48-53.56-15.6-15.6-33.44-28.42-53.56-38.47-20.12-10.4-41.58-17.26-64.37-20.62l-30.18 30.18-30.18-30.18c-22.8 3.36-44.26 10.23-64.38 20.62-20.12 10.06-37.97 22.88-53.56 38.47s-28.42 33.45-38.47 53.56c-10.4 20.12-17.27 41.58-20.62 64.38l30.18 30.18-30.18 30.18c3.35 22.8 10.22 44.26 20.62 64.38 10.06 20.12 22.88 37.97 38.47 53.56s33.45 28.42 53.56 38.47c20.12 10.4 41.57 17.27 64.38 20.62l30.18-30.18 30.18 30.18c22.8-3.35 44.25-10.23 64.37-20.62zM473.05 225.3L634 128.75 537.43 289.7 376.5 386.25l96.56-160.94zm11.57 11.57l-61.36 102.6 102.6-61.36-41.24-41.24z" fill="#0098ff"/><g fill="#646567"><path d="M67.5 631.52c0-2.25.75-4.5 2.25-6.75-3.45-2.4-7.28-3.6-11.48-3.6-6.6 0-11.96 2.74-16.1 8.2-4.13 5.48-6.2 12.8-6.2 21.94 0 9.45 2.17 17.03 6.52 22.72 4.35 5.7 10.12 8.55 17.32 8.55 7.35 0 12.75-3.97 16.2-11.92 2.1-4.95 3.9-8.1 5.4-9.45 2.1-1.8 5.4-2.7 9.9-2.7 5.1 0 9.23 1.54 12.38 4.6 3.15 3.08 4.73 7 4.73 11.8 0 10.2-4.95 19.05-14.85 26.55S71.82 712.7 58.02 712.7c-17.7 0-31.8-5.44-42.3-16.3C5.25 685.56 0 670.97 0 652.67c0-18.45 5.4-33.08 16.2-43.88s25.35-16.2 43.65-16.2c13.2 0 24.1 3.12 32.74 9.34 8.62 6.23 12.94 14.14 12.94 23.74 0 6-1.95 10.84-5.85 14.5-3.9 3.68-8.93 5.5-15.08 5.5-5.1 0-9.22-1.3-12.38-3.94-3.15-2.62-4.72-6.03-4.72-10.23zm120.82 81.22c-18.6 0-32.96-5.25-43.1-15.75-10.12-10.5-15.2-25.27-15.2-44.33 0-18.9 5.02-33.64 15.07-44.2s24.15-15.86 42.3-15.86c17.85 0 31.9 5.25 42.2 15.75 10.27 10.5 15.4 24.9 15.4 43.2 0 19.2-5 34.2-14.96 45s-23.88 16.2-41.73 16.2zm-.9-92.47c-6.6 0-11.8 2.9-15.64 8.66-3.83 5.78-5.74 13.7-5.74 23.74 0 10.2 1.9 18.15 5.74 23.85s9.2 8.55 16.1 8.55c13.95 0 20.93-10.8 20.93-32.4s-7.13-32.4-21.38-32.4zM315 602.5v10.35c11.25-13.5 23.77-20.25 37.58-20.25 11.55 0 21.07 5.62 28.57 16.88 7.5-6.45 13.9-10.87 19.24-13.27 5.32-2.4 11.5-3.6 18.56-3.6 14.25 0 24.9 4.73 31.95 14.17 4.8 6.45 7.2 16.8 7.2 31.05v34.42c0 7.65 1.42 11.47 4.27 11.47.9 0 2.1-.3 3.6-.95.75-.42 1.87-.63 3.38-.63 6.6 0 9.9 3.97 9.9 11.9 0 4.73-1.2 8.54-3.6 11.44s-5.55 4.35-9.45 4.35c-.45 0-2.63-.23-6.53-.68l-4.95-.67c-2.4-.3-5.55-.45-9.45-.45-4.8 0-9.45.3-13.95.9s-7.65.9-9.45.9c-3.6 0-6.56-1.4-8.9-4.16s-3.5-6.26-3.5-10.46c0-6.9 2.77-10.87 8.33-11.93 2.85-.45 4.54-1.27 5.06-2.47s.8-4.5.8-9.9v-23.17c0-9.6-1-16.16-3.04-19.7-2.03-3.52-5.9-5.3-11.6-5.3-12.75 0-19.12 9.08-19.12 27.22v20.92c0 5.1.23 8.33.68 9.68s1.65 2.25 3.6 2.7c4.65 1.05 6.97 4.8 6.97 11.25 0 10.2-4.2 15.3-12.6 15.3-1.65 0-3.98-.23-6.98-.68-4.95-.75-8.25-1.12-9.9-1.12-1.8 0-4.46.3-8 .9s-6.2.9-8 .9c-7.35 0-11.02-4.73-11.02-14.18 0-6.75 2.32-10.72 6.97-11.92 2.55-.6 3.9-2.4 4.05-5.4l.23-7.43v-25.42c0-8.55-1-14.47-3.04-17.77-2.02-3.3-5.66-4.95-10.9-4.95-13.2 0-19.8 9.08-19.8 27.22v27.23c0 2.4.3 3.94.9 4.6s2.1 1.24 4.5 1.7c5.85 1.05 8.77 4.95 8.77 11.7 0 9.75-4.13 14.62-12.38 14.62-2.55 0-6.34-.3-11.36-.9-5.03-.6-8.8-.9-11.36-.9-3.45 0-6.98.23-10.57.68-6 .75-9.83 1.12-11.48 1.12-4.2 0-7.54-1.4-10-4.16-2.48-2.77-3.7-6.33-3.7-10.7 0-8.55 3.6-12.83 10.8-12.83 1.2 0 2.55.26 4.05.8s2.62.8 3.38.8c2.55 0 3.82-4.2 3.82-12.6v-36.45c0-8.55-1.28-12.83-3.82-12.83-.6 0-1.77.26-3.5.8-1.73.53-3.04.8-3.94.8-7.2 0-10.8-4.2-10.8-12.6 0-4.35 1.24-7.95 3.7-10.8 2.48-2.85 5.74-4.27 9.8-4.27.9 0 3.38.38 7.42 1.12 2.4.45 4.65.67 6.75.67 1.8 0 4.46-.3 8-.9 3.52-.6 6.2-.9 8-.9 3.9.01 5.86 2.26 5.86 6.76zm221.62 1.24v6.86c9.3-12 20.93-18 34.88-18 13.65 0 24.53 5.3 32.62 15.86 8.1 10.58 12.15 24.8 12.15 42.64 0 18.45-4.1 33.08-12.3 43.88s-19.23 16.2-33.1 16.2c-5.52 0-10.5-1.05-14.98-3.15-2.83-1.35-7.15-4.2-12.97-8.55v17.33c0 4.65 1.77 6.97 5.3 6.97 1.47 0 3.17-.22 5.1-.67 2.65-.3 4.57-.45 5.75-.45 6.8 0 10.18 3.9 10.18 11.7 0 9-4.65 13.5-13.95 13.5-2.7 0-6.83-.3-12.38-.9a189.45 189.45 0 0 0-20.48-1.12c-2.85 0-9.22.6-19.12 1.8-1.8.15-3.15.22-4.05.22-3.9 0-7.13-1.4-9.67-4.16-2.55-2.78-3.83-6.34-3.83-10.7 0-8.4 3.67-12.6 11.02-12.6a8.54 8.54 0 0 1 3.38.68l3.83.9c2.7 0 4.05-4.27 4.05-12.83V634.7c0-8.55-1.28-12.83-3.83-12.83-.45 0-1.8.38-4.05 1.12-1.5.3-2.7.45-3.6.45-7.2 0-10.8-4.2-10.8-12.6 0-4.35 1.2-7.95 3.6-10.8s5.47-4.27 9.23-4.27h1.57l7.88 1.12c1.05.3 3.22.45 6.52.45 4.35 0 8.4-.35 12.15-1.05 1.95-.35 3.38-.52 4.27-.52 3.76-.02 5.63 2.65 5.63 7.98zm24.98 17.43c-5.85 0-10.43 2.7-13.73 8.1s-4.95 12.9-4.95 22.5c0 9.45 1.65 16.95 4.95 22.5s7.72 8.33 13.28 8.33c5.7 0 10.27-2.77 13.72-8.33 3.45-5.55 5.18-13.05 5.18-22.5 0-9.3-1.7-16.72-5.06-22.27-3.38-5.56-7.84-8.33-13.4-8.33zm179.1 91.57c-12.3 0-20.55-4.95-24.75-14.85-10.5 9.9-22.95 14.85-37.35 14.85-11.85 0-21.3-3.12-28.35-9.34s-10.58-14.5-10.58-24.86c0-15.75 6.82-25.95 20.48-30.6 5.85-1.95 12.6-3.6 20.25-4.95 10.65-1.8 17.9-3.86 21.7-6.2 3.83-2.32 5.74-5.9 5.74-10.7 0-3.45-1.46-6.33-4.4-8.66-2.93-2.32-6.56-3.5-10.9-3.5-4.95 0-7.42 1.58-7.42 4.73v4.05c0 4.2-1.75 7.73-5.26 10.58-3.5 2.85-7.87 4.27-13.08 4.27-5.97 0-10.9-1.8-14.77-5.4s-5.8-8.1-5.8-13.5c0-8.1 4.27-14.47 12.83-19.12 8.55-4.65 20.32-6.98 35.32-6.98 16.2 0 28.27 2.48 36.23 7.42 8.55 5.4 12.83 15.45 12.83 30.15v46.58c0 4.8 1.2 7.2 3.6 7.2h4.96c3.45 0 6.37 1.18 8.77 3.54s3.6 5.25 3.6 8.64c0 4.87-2.2 8.86-6.64 11.96-4.45 3.1-10.1 4.66-17 4.66zm-32.85-48.15v-4.95c-1.04.6-7.6 2.48-19.66 5.62-8.2 2.1-12.3 5.33-12.3 9.68 0 6.9 4.02 10.35 12.07 10.35 13.25 0 19.88-6.9 19.88-20.7z"/><use xlink:href="#E"/><use xlink:href="#E" x="126"/></g><defs ><path  d="M61.77-71.65c.02.07.01.13-.03.2-.05.1-.1.06-.17.13a.64.64 0 0 0-.08.36c-.17.06-.01.23-.02.35 0 .05-.04.1-.04.16-.01.12.02.27.07.37a1.66 1.66 0 0 0 .44.54c.2.15.36.57.6.63.18.04.38-.1.54-.14.18-.04.4.01.57-.05.22-.08.13-.34.3-.45.1-.07.3-.01.4-.05.2-.07.34-.26.38-.46.02-.08.01-.14.04-.22.04-.1.1-.16.1-.3-.01-.06-.05-.12-.06-.2-.02-.1 0-.22 0-.34 0-.2.02-.38-.08-.55-.38-.7-1.24-.93-1.97-.8-.18.03-.3.13-.44.2-.17.1-.14.17-.32.22-.08.03-.22.12-.2.22 0 .12 0 .05.01.17-.02.01-.02 0-.03-.03"/><path  d="M69.44-25.74c.02.07.01.13-.03.2-.05.1-.1.06-.17.13a.64.64 0 0 0-.08.36c-.16.06 0 .23-.01.35 0 .05-.04.1-.04.16-.01.12.02.27.07.37a1.66 1.66 0 0 0 .44.54c.2.15.36.57.6.63.18.04.38-.1.54-.14.18-.04.4.01.57-.05.22-.08.13-.34.3-.45.1-.07.3-.01.4-.05.2-.07.34-.26.38-.46.02-.08.01-.14.04-.22.04-.1.1-.16.1-.3-.01-.06-.05-.12-.06-.2-.02-.1 0-.22 0-.34 0-.2.02-.38-.08-.55-.38-.7-1.24-.93-1.97-.8-.18.03-.3.13-.44.2-.17.1-.14.17-.32.22-.08.03-.22.12-.2.22 0 .12 0 .05.01.17-.02.01-.02 0-.03-.03"/><path  d="M54.12-10.43c.02.07.01.13-.03.2-.05.1-.1.06-.17.13a.64.64 0 0 0-.08.36c-.17.06-.01.23-.02.35 0 .05-.04.1-.04.16-.01.12.02.27.07.37a1.66 1.66 0 0 0 .44.54c.2.15.36.57.6.63.18.04.38-.1.54-.14.18-.04.4.01.57-.05.22-.08.13-.34.3-.45.1-.07.3-.01.4-.05.2-.07.34-.26.38-.46.01-.08 0-.15.03-.22.04-.1.1-.16.1-.3-.01-.06-.05-.12-.06-.2-.02-.1 0-.22 0-.34 0-.2.02-.38-.08-.55-.38-.7-1.24-.93-1.97-.8-.18.03-.3.13-.44.2-.17.1-.14.17-.32.22-.08.03-.22.12-.2.22 0 .12 0 .05.01.17-.02.01-.02 0-.03-.03"/><path id="E" d="M826.87 592.6c11.55 0 21.3 3.23 29.25 9.67.6-6.45 4.65-9.67 12.15-9.67 7.65 0 11.48 2.7 11.48 8.1 0 1.8-.3 3.82-.9 6.07-.45 2.7-.67 5.25-.67 7.65 0 .45.07 1.65.22 3.6v6.08c0 7.95-3.98 11.92-11.92 11.92-5.7 0-10.65-2.82-14.85-8.45-5.1-6.82-11.33-10.23-18.67-10.23-8.7 0-13.05 3-13.05 9 0 3.15 1.42 5.37 4.28 6.64 2.85 1.28 10.35 2.96 22.5 5.06 9.9 1.8 17.2 3.83 21.94 6.08s8.58 5.48 11.6 9.67c3.75 5.4 5.62 11.7 5.62 18.9 0 11.4-4.4 20.92-13.16 28.57s-19.76 11.48-32.96 11.48-25.2-4.2-36-12.6c0 7.35-3.75 11.03-11.25 11.03-8.1 0-12.15-3.3-12.15-9.9 0-1.5.15-3.82.45-6.97s.45-5.47.45-6.97c0-1.35-.1-3.38-.34-6.08s-.34-4.73-.34-6.08c0-6.75 4.2-10.12 12.6-10.12 4.05 0 7.12.6 9.22 1.8s4.35 3.53 6.75 6.98c3.75 5.55 7.2 9.2 10.35 10.9 3.15 1.73 7.8 2.6 13.95 2.6 10.8 0 16.2-3.38 16.2-10.12 0-4.65-4.35-7.88-13.05-9.68l-13.05-2.7c-10.65-2.25-18.2-4.5-22.6-6.75-4.43-2.25-7.9-5.8-10.46-10.7-2.55-4.87-3.83-10.46-3.83-16.76 0-11.25 3.7-20.4 11.14-27.45 7.4-7.05 17.12-10.58 29.12-10.58z"/></defs></svg>