<svg xmlns="http://www.w3.org/2000/svg" xmlns:xlink="http://www.w3.org/1999/xlink" width="1010" height="550.38" xmlns:v="https://vecta.io/nano"><path d="M288.42 278.05c-5.94 2.03-11.1 6.4-11.1 12.83 0 7.66 4.22 12.36 22.84 19.55 27.7 10.64 33.94 25.34 33.94 39.73 0 24.25-20.18 40.04-43.33 40.5v-9.07c7.5-2.35 13.92-5.8 14.23-14.4.3-9.85-11.26-13.92-18.77-17.2-19.7-8.3-38-17.2-38-41.76 0-23.78 17.2-38.48 40.2-39.26v9.07zm-40.2 75.24c0-3.3.62-7.67 5-7.67 3.13 0 5.32 2.5 5.8 5.16 2.2 12.5 10.95 28 24.7 30.82v9.07c-13.6-.3-16.58-5.8-22.2-5.8-5 0-4.54 5.16-8.45 5.16-4.85 0-4.85-5.8-4.85-6.57V353.3zm81.65-50.52c0 3.6-.63 7.5-5.16 7.5-3.75 0-5.16-2.97-5.63-6.1-1.72-11.58-11.42-23.46-23.62-26.12V269c9.85.16 20.33 6.1 22.06 6.1 4.07 0 3.75-5.63 7.82-5.63 4.85 0 4.54 5.32 4.54 6.57v26.74zm23.63-31.44h39.73l16.74 48.02h.3l7.04-25.97h.3v28.47l-19.87 66.48h-4.54l-32.7-96.82c-.78-2.35-1.56-4.7-2.8-6.73-1.4-2.35-2.03-4.22-4.7-4.38-1.88-.16-6.1-.47-6.1-4.22 0-4.85 4.7-4.85 6.57-4.85zm6.56 39.57h.3l8.76 25.8v26.9c2.5 19.55 12.5 13.45 12.5 20.18 0 4.85-6.4 4.54-8.13 4.54h-17.83c-1.72 0-8.13.3-8.13-4.54 0-6.73 10-.62 12.5-20.18v-52.7zm64.6-39.57h41.3c.62 0 5.8.3 5.8 4.85 0 2.2-1.4 3.6-3.44 4.22-5.47 1.72-5.32 2.66-5.32 8.45v81.96c0 5.8-.16 6.73 5.32 8.45 2.03.63 3.44 2.03 3.44 4.22 0 4.54-5.16 4.85-5.8 4.85H421.7c-.63 0-5.8-.3-5.8-4.85 0-2.2 1.4-3.6 3.44-4.22 5.47-1.72 5.32-2.66 5.32-8.45v-99.48zm105.44 6.72c-7.35 2.66-7.98 7.35-7.98 11.26v81.03c0 3.9.62 8.6 7.98 11.26v9.07c-33.16-2.97-48.65-29.72-48.65-60.85s15.5-57.88 48.65-60.85v9.08zm7.04 103.55c7.35-2.66 7.98-7.35 7.98-11.26V289.3c0-3.9-.63-8.6-7.98-11.26v-9.07c33.16 2.97 48.65 29.72 48.65 60.85s-15.5 57.88-48.65 60.85v-9.08zm65.06-110.27h39.73l16.74 48.02h.3l7.04-25.97h.3v28.47l-19.87 66.48h-4.54l-32.7-96.82c-.78-2.35-1.56-4.7-2.82-6.73-1.4-2.35-2.03-4.22-4.7-4.38-1.88-.16-6.1-.47-6.1-4.22.01-4.85 4.7-4.85 6.58-4.85zm6.57 39.57h.3l8.76 25.8v26.9c2.5 19.55 12.5 13.45 12.5 20.18 0 4.85-6.4 4.54-8.13 4.54h-17.8c-1.72 0-8.13.3-8.13-4.54 0-6.73 10-.62 12.5-20.18v-52.7zm64.6-39.57h41.3c.63 0 5.8.3 5.8 4.85 0 2.2-1.4 3.6-3.44 4.22-5.47 1.72-5.32 2.66-5.32 8.45v81.96c0 5.8-.16 6.73 5.32 8.45 2.03.63 3.44 2.03 3.44 4.22 0 4.54-5.16 4.85-5.8 4.85H670.4c-.63 0-5.8-.3-5.8-4.85 0-2.2 1.4-3.6 3.44-4.22 5.47-1.72 5.32-2.66 5.32-8.45v-99.48zm105.6 117h-42.08c-1.1 0-5-.3-5-4.85 0-2.2 1.4-3.6 3.44-4.22 5.47-1.72 5.32-2.66 5.32-8.45v-81.96c0-5.8.16-6.73-5.32-8.45-2.03-.62-3.44-2.03-3.44-4.22 0-4.54 3.9-4.85 5-4.85h42.08v117zm7.04-117h4.85c9.85 0 19.87.16 28.94 4.54 9.7 4.85 15.33 12.98 15.33 24.1 0 17.2-14.4 25.18-29.56 27.53v.3c17.36 2.82 31.13 10.48 31.13 30.03 0 11.1-4.85 19.87-14.7 25.34-10 5.63-19.87 5.16-30.97 5.16H786v-9.07c10.48-.47 11.73-6.4 11.73-12.04v-20.18c0-7.2-1.72-13.92-11.73-14.7v-9.07c11.42-.94 11.73-7.66 11.73-13.45v-15.64c0-6.57-2.35-12.83-11.73-13.77v-9.08zm112.3 99.47c0 5.8-.16 6.73 5.32 8.45 2.03.63 3.44 2.03 3.44 4.22 0 4.54-5.16 4.85-5.8 4.85H857c-.62 0-5.8-.3-5.8-4.85 0-2.2 1.4-3.6 3.44-4.22 5.47-1.72 5.32-2.66 5.32-8.45v-81.96c0-5.8.16-6.73-5.32-8.45-2.03-.62-3.44-2.03-3.44-4.22 0-4.54 5.16-4.85 5.8-4.85h44.27c.63 0 5.8.3 5.8 4.85 0 2.2-1.4 3.6-3.44 4.22-5.47 1.72-5.32 2.66-5.32 8.45v81.96zm27.38-99.47h41.3v117h-41.3c-.63 0-5.8-.3-5.8-4.85 0-2.2 1.4-3.6 3.44-4.22 5.48-1.72 5.32-2.66 5.32-8.45v-81.96c0-5.8.16-6.73-5.32-8.45-2.03-.62-3.44-2.03-3.44-4.22 0-4.54 5.16-4.85 5.8-4.85zm48.33 0h34.88v31.75c0 .78-.16 3.75-4.85 3.75-2.66 0-3.44-1.56-4.22-3.9-4.07-12.67-12.04-20.33-25.8-22.53v-9.06zm0 52.24c6.57-1.72 9.54-7.82 10.95-13.76.78-2.66 1.72-5.16 5-5.16 4.85 0 4.07 5.63 4.07 6.88v33.8c0 1.25.78 6.88-4.07 6.88-3.3 0-4.22-2.5-5-5.16-1.4-5.94-4.38-12.04-10.95-13.76v-9.7zm0 55.7c12.67-1.56 22.37-10.17 26.6-22.68 1.1-2.35 2.03-4.85 4.85-4.85 5 0 4.54 4.7 4.54 5.32v31.28h-36v-9.07z" fill="#112604"/><g fill="#ff9d00"><path d="M275.25 423.13c-1.84-.8-3.55-1.36-5.1-1.67a23.31 23.31 0 0 0-4.54-.46c-2.65 0-4.77.58-6.35 1.75s-2.38 2.67-2.38 4.53c0 .8.12 1.56.35 2.25.24.7.7 1.37 1.38 2.03.7.67 1.62 1.33 2.8 2s2.72 1.38 4.6 2.13c4.45 1.75 7.66 3.76 9.65 6.03s2.98 5.16 2.98 8.66c0 2.27-.43 4.34-1.28 6.2s-2.05 3.45-3.58 4.75c-1.54 1.3-3.4 2.32-5.57 3.05s-4.6 1.1-7.3 1.1c-2.27 0-4.4-.17-6.42-.5s-3.98-.87-5.92-1.63l.85-7.66c2.08 1.04 4 1.76 5.78 2.16s3.5.6 5.14.6c2.84 0 5.14-.6 6.92-1.84 1.77-1.23 2.66-2.96 2.66-5.18 0-1-.14-1.9-.43-2.7-.28-.8-.8-1.56-1.53-2.27-.73-.7-1.7-1.4-2.94-2.1s-2.8-1.4-4.68-2.16c-2.27-.9-4.2-1.83-5.75-2.8s-2.83-2.02-3.8-3.16-1.67-2.35-2.1-3.65c-.43-1.3-.64-2.78-.64-4.43 0-2.08.4-3.98 1.2-5.7.8-1.73 1.94-3.2 3.4-4.4s3.24-2.14 5.32-2.8 4.37-1 6.88-1c2 0 3.9.14 5.7.42s3.65.75 5.5 1.4l-.83 7.02z"/><use xlink:href="#E"/><path d="M400.48 464.64h-9.44l-4.75-11.92H364l-4.75 11.92h-8.94l20.22-49.52h9.37l20.57 49.52zm-22-32.53l-.82-2.26-.96-2.76-.9-2.76-.67-2.26H375l-.75 2.26-.92 2.76-.96 2.76-.85 2.26-5.18 13.87h17.38l-5.24-13.87zm29.16-17h13.34c3.03 0 5.76.2 8.2.64s4.52 1.14 6.24 2.13c1.73 1 3.05 2.32 3.97 3.98s1.38 3.74 1.38 6.25c0 3.36-.98 5.98-2.94 7.85s-4.58 3.14-7.84 3.8v.14c1.7.52 3.03 1.32 3.97 2.4.95 1.1 1.82 2.53 2.63 4.32l8.02 18h-9.5l-6.3-14.9c-.52-1.28-1.03-2.33-1.53-3.16s-1.1-1.5-1.84-2-1.63-.84-2.7-1.03c-1.06-.2-2.42-.28-4.08-.28h-2.4v21.36h-8.58v-49.5zm8.6 21.43h3.2c4.16 0 7.3-.56 9.4-1.67 2.1-1.12 3.16-3.03 3.16-5.74 0-1.47-.28-2.67-.85-3.6s-1.38-1.64-2.45-2.14c-1.06-.5-2.38-.84-3.94-1.03s-3.33-.3-5.32-.3h-3.2v14.47zm44.82 28.1v-42.36l-14.47.2v-7.38h37.46v7.38l-14.4-.2v42.36h-8.6zm42.5-49.54c2.8 0 5.43.2 7.9.64s4.65 1.2 6.5 2.3c1.84 1.1 3.3 2.65 4.4 4.6s1.63 4.46 1.63 7.5c0 2.98-.56 5.45-1.67 7.4s-2.6 3.5-4.5 4.65c-1.9 1.13-4.07 1.94-6.53 2.4a42.01 42.01 0 0 1-7.73.7h-3.33v19.3h-8.58v-49.52h11.9zm-3.33 23.5h2.7c1.9 0 3.62-.12 5.17-.36 1.54-.24 2.86-.67 3.96-1.3a6.13 6.13 0 0 0 2.49-2.58c.57-1.1.86-2.48.86-4.15 0-1.62-.27-2.97-.82-4.04a6.38 6.38 0 0 0-2.42-2.58c-1.07-.64-2.38-1.1-3.92-1.36-1.55-.26-3.34-.4-5.38-.4h-2.64v16.75zm71 26.04h-8.58v-22H540.8v22h-8.58v-49.52h8.58v20.3h21.85v-20.3h8.58v49.52zM606 414.26c3.55 0 6.78.6 9.68 1.8s5.4 2.9 7.45 5.1 3.64 4.86 4.75 7.98 1.67 6.62 1.67 10.5c0 3.97-.57 7.56-1.7 10.75-1.14 3.2-2.76 5.9-4.86 8.12s-4.64 3.94-7.6 5.14-6.28 1.8-9.97 1.8c-3.64 0-6.94-.6-9.9-1.8s-5.5-2.9-7.6-5.1-3.73-4.87-4.86-8.02c-1.13-3.14-1.7-6.68-1.7-10.6 0-4.02.57-7.6 1.7-10.78s2.77-5.85 4.9-8.05 4.7-3.9 7.73-5.07c3.03-1.18 6.46-1.77 10.3-1.77zm-.57 6.74c-2.22 0-4.23.45-6.03 1.35s-3.36 2.18-4.68 3.83c-1.33 1.66-2.34 3.64-3.05 5.96s-1.06 4.9-1.06 7.73.35 5.43 1.06 7.77 1.73 4.33 3.05 5.96 2.9 2.9 4.72 3.8 3.87 1.35 6.14 1.35c2.18 0 4.17-.45 6-1.35 1.82-.9 3.4-2.18 4.72-3.83s2.34-3.64 3.05-5.96 1.06-4.9 1.06-7.73c0-2.88-.35-5.5-1.06-7.84s-1.7-4.33-3-5.96-2.87-2.88-4.72-3.76c-1.86-.88-3.92-1.32-6.2-1.32zm66.7-5.9H680v49.52h-11l-15.04-28.17-1.8-3.48-1.8-3.65-1.6-3.44-1.24-2.84h-.14l.14 3.05.1 4.04.07 4.3.04 3.72v26.46h-7.95v-49.5h12L666.3 443l1.53 3.02 1.67 3.4 1.6 3.4 1.3 2.94h.14l-.14-3.55-.14-4.65-.1-4.86-.04-4.12v-23.5z"/><use xlink:href="#F"/><path d="M770.04 437l-7.34 10.36-4.86 6.67-2.62 3.44h25.54v7.17H746v-7.24l9.22-13.27 7.56-10.68 5.46-7.48 2.8-3.7h-24.26v-7.17h33.42v7.45L770.04 437zm40.8-22.74c3.55 0 6.78.6 9.68 1.8s5.4 2.9 7.45 5.1 3.64 4.86 4.75 7.98 1.67 6.62 1.67 10.5c0 3.97-.57 7.56-1.7 10.75s-2.76 5.9-4.86 8.12-4.64 3.94-7.6 5.14-6.28 1.8-9.97 1.8c-3.64 0-6.94-.6-9.9-1.8s-5.5-2.9-7.6-5.1-3.72-4.87-4.86-8.02c-1.13-3.14-1.7-6.68-1.7-10.6 0-4.02.57-7.6 1.7-10.78s2.77-5.85 4.9-8.05 4.7-3.9 7.73-5.07c3.03-1.18 6.46-1.77 10.3-1.77zm-.56 6.74c-2.22 0-4.23.45-6.03 1.35s-3.36 2.18-4.68 3.83c-1.33 1.66-2.34 3.64-3.05 5.96s-1.06 4.9-1.06 7.73.35 5.43 1.06 7.77 1.73 4.33 3.05 5.96 2.9 2.9 4.72 3.8 3.87 1.35 6.14 1.35c2.18 0 4.17-.45 6-1.35 1.82-.9 3.4-2.18 4.72-3.83s2.34-3.64 3.05-5.96 1.06-4.9 1.06-7.73c0-2.88-.35-5.5-1.06-7.84s-1.7-4.33-3.02-5.96c-1.3-1.63-2.87-2.88-4.72-3.76-1.86-.88-3.9-1.32-6.18-1.32z"/><use xlink:href="#E" x="556.29"/><path d="M912.36 415.1h14.05c2.84 0 5.38.25 7.63.75s4.15 1.25 5.7 2.27 2.77 2.33 3.62 3.94 1.28 3.5 1.28 5.68c0 2.98-.9 5.45-2.7 7.4s-4.4 3.3-7.84 4v.14c3.6.43 6.46 1.67 8.57 3.72 2.1 2.06 3.16 4.74 3.16 8.05 0 2.55-.53 4.7-1.6 6.42a12.5 12.5 0 0 1-4.27 4.19c-1.78 1.06-3.82 1.82-6.12 2.27a36.76 36.76 0 0 1-7.07.67h-14.43v-49.5zm8.23 21.08h3.2a43.36 43.36 0 0 0 4.82-.25c1.52-.17 2.84-.5 3.97-1.03s2.02-1.25 2.66-2.2.96-2.22.96-3.83c0-1.42-.28-2.6-.85-3.55s-1.35-1.68-2.34-2.2-2.18-.9-3.55-1.1a30.9 30.9 0 0 0-4.47-.32h-4.4v14.48zm0 21.92h4.26c4.2 0 7.33-.6 9.37-1.84 2.03-1.23 3.05-3.22 3.05-5.96 0-2.8-1.1-4.8-3.26-6.03-2.18-1.23-5.58-1.84-10.22-1.84h-3.2v15.67zm44.4 6.54h-8.58v-49.52H965v49.52z"/><use xlink:href="#F" x="285"/><path d="M132.8 509.57c0 5.58-4.63 10.2-10.2 10.2H81.72c-5.6 0-10.22-4.63-10.22-10.2v-81.72c0-5.6 4.63-10.2 10.22-10.2h40.86c5.6 0 10.2 4.63 10.2 10.2v81.72zm-7.66-68.95c0-1.36-1.2-2.55-2.55-2.55H81.72c-1.36 0-2.55 1.2-2.55 2.55v56.18c0 1.36 1.2 2.55 2.55 2.55h40.86c1.36 0 2.55-1.2 2.55-2.55v-56.18zm-16.6-12.77H95.76c-.72 0-1.28.56-1.28 1.28s.56 1.28 1.28 1.28h12.77c.72 0 1.28-.56 1.28-1.28s-.56-1.28-1.28-1.28zm-6.38 75.34a6.4 6.4 0 0 0-6.38 6.38 6.4 6.4 0 0 0 6.38 6.38 6.4 6.4 0 0 0 6.38-6.38 6.4 6.4 0 0 0-6.38-6.38z"/></g><path d="M102.15 346.13c33.84 0 61.3-27.45 61.3-61.3s-27.45-61.3-61.3-61.3-61.3 27.45-61.3 61.3 27.46 61.3 61.3 61.3zm49.96-10.22c-12.93 12.6-30.5 20.43-49.96 20.43s-37.03-7.82-49.96-20.43c-41.8 0-52.2 48.53-52.2 90.5 0 23.3 15.32 42.3 34 42.3h27.45v-40.88c.03-5.4 2.14-10.48 5.95-14.3a20.22 20.22 0 0 1 14.32-5.95h40.88c5.4.03 10.48 2.14 14.3 5.95a20.27 20.27 0 0 1 5.96 14.32v40.86h27.46c18.67 0 34-19 34-42.3 0-42-10.38-90.52-52.2-90.52z" fill="#112604"/><defs ><path  d="M61.77-71.65c.02.07.01.13-.03.2-.05.1-.1.06-.17.13a.64.64 0 0 0-.08.36c-.17.06-.01.23-.02.35 0 .05-.04.1-.04.16-.01.12.02.27.07.37a1.66 1.66 0 0 0 .44.54c.2.15.36.57.6.63.18.04.38-.1.54-.14.18-.04.4.01.57-.05.22-.08.13-.34.3-.45.1-.07.3-.01.4-.05.2-.07.34-.26.38-.46.02-.08.01-.14.04-.22.04-.1.1-.16.1-.3-.01-.06-.05-.12-.06-.2-.02-.1 0-.22 0-.34 0-.2.02-.38-.08-.55-.38-.7-1.24-.93-1.97-.8-.18.03-.3.13-.44.2-.17.1-.14.17-.32.22-.08.03-.22.12-.2.22 0 .12 0 .05.01.17-.02.01-.02 0-.03-.03"/><path  d="M69.44-25.74c.02.07.01.13-.03.2-.05.1-.1.06-.17.13a.64.64 0 0 0-.08.36c-.16.06 0 .23-.01.35 0 .05-.04.1-.04.16-.01.12.02.27.07.37a1.66 1.66 0 0 0 .44.54c.2.15.36.57.6.63.18.04.38-.1.54-.14.18-.04.4.01.57-.05.22-.08.13-.34.3-.45.1-.07.3-.01.4-.05.2-.07.34-.26.38-.46.02-.08.01-.14.04-.22.04-.1.1-.16.1-.3-.01-.06-.05-.12-.06-.2-.02-.1 0-.22 0-.34 0-.2.02-.38-.08-.55-.38-.7-1.24-.93-1.97-.8-.18.03-.3.13-.44.2-.17.1-.14.17-.32.22-.08.03-.22.12-.2.22 0 .12 0 .05.01.17-.02.01-.02 0-.03-.03"/><path  d="M54.12-10.43c.02.07.01.13-.03.2-.05.1-.1.06-.17.13a.64.64 0 0 0-.08.36c-.17.06-.01.23-.02.35 0 .05-.04.1-.04.16-.01.12.02.27.07.37a1.66 1.66 0 0 0 .44.54c.2.15.36.57.6.63.18.04.38-.1.54-.14.18-.04.4.01.57-.05.22-.08.13-.34.3-.45.1-.07.3-.01.4-.05.2-.07.34-.26.38-.46.01-.08 0-.15.03-.22.04-.1.1-.16.1-.3-.01-.06-.05-.12-.06-.2-.02-.1 0-.22 0-.34 0-.2.02-.38-.08-.55-.38-.7-1.24-.93-1.97-.8-.18.03-.3.13-.44.2-.17.1-.14.17-.32.22-.08.03-.22.12-.2.22 0 .12 0 .05.01.17-.02.01-.02 0-.03-.03"/><path id="E" d="M312.08 442.85l.92 2.8 1.03 3.3 1.03 3.4.85 3.12h.14l.92-3.12 1.03-3.4 1.06-3.3.96-2.8 9.8-27.74h13.48v49.52h-8.23V433l.04-3.87.07-4.08.1-3.83h-.14l-2.2 6.74-1.06 3.23-.92 2.6-11.42 30.86h-7.88l-11.2-30.3-2.06-6.1-1.2-3.83-.92-3.2h-.14l.1 3.83.04 4.08v35.5h-7.95v-49.52h13.83l9.92 27.73z"/><path id="F" d="M721.65 464.64h-28.88v-49.52h28.45v7.17h-19.87v13.4h18.38v6.95h-18.38v14.83h20.3v7.16z"/></defs></svg>