<svg xmlns="http://www.w3.org/2000/svg" width="1010" height="716.66" xmlns:v="https://vecta.io/nano"><path d="M397.23 505.15S512.53 454.8 512.53 309c0-263.35 303.5-221.33 303.5-221.33s-15 29.74-19.46 70.3c-7.5 68.4-21.15 141.46-52.1 189.47-45.72 70.9-98.07 106.02-182.9 125.9 0 0 55.03-71.6 80.18-154.4 36.45-119.94 96.08-191.5 96.08-191.5s-73.55 45.72-121.27 180.9c-77.74 220.3-219.33 196.82-219.33 196.82z" fill="#3a960f"/><path d="M473.2 236.5s23-27.97 40.07-93.7C544.08 24 373.6 0 373.6 0s8 24.8 8.97 43.88c1.43 28.25 6.9 76.4 17.27 102.37 11.5 28.78 26.64 46.6 55.33 75.83 0 0-1.6-35.68-7.02-84.93C442.77 88.08 411.6 29 411.6 29s48.03 53.33 53.74 104.75c4.45 39.9 7.86 102.74 7.86 102.74z" fill="#b4d81e"/><path d="M419.16 396.62s-108.33-4.13-162.42-54.5c-93.77-87.32-5.3-211.4-5.3-211.4s5.3 29.1 30.48 42.4c31.17 16.46 115.05 45.93 141.15 77.53 30.26 36.65 42.44 67.72 32.26 142.36 0 0-24.7-60.2-103.17-103.25-65.27-35.8-90.78-76.88-90.78-76.88s15.65 60.95 102.46 110.8c62.04 35.63 55.32 72.92 55.32 72.92z" fill="#7ac927"/><g fill="#2f2f2f"><path d="M67.2 706.1c-14.07 4.02-32.15 6.32-47.95-5.74C8.9 692.62.3 679.7 0 656.15c-.57-61.72 57.42-116.28 89.86-126.9 16.08-5.17 29-5.46 38.76 1.72 8.04 5.74 12.63 12.92 14.93 20.38 2.58 8.04 2 15.8-2 24.98-3.45 7.75-8.04 19.24-11.2 27.56-.86 2.3-2.87 4.3-6.03 1.44-6.6-4.6-11.2-12.92-7.46-27.27 3.73-14.36 14.35-30.43 8.04-36.75-9.2-9.48-56 15.2-83.26 56.85-26.7 40.77-25.84 84.4-14.35 95.03 15.8 14.64 49.38-6.9 66.9-41.63-9.2 1.72-18.37 3.45-25.27 4.02-14.35 1.44-23.25-4.6-27.56-13.78-1.44-2.87-.57-4.6 2.87-4.6 22.4-.3 44.2-7.46 61.73-7.75 14.36-.3 22.4 6.03 26.13 14.64 1.44 3.16.86 5.17-2.87 4.6-5.45-.57-12.63-.3-20.1.57 7.47 27-27.56 52.83-41.9 56.85zm144.1-105.64c3.44-2.3 5.74-2.87 7.75-.57 5.45 6.03 12.35 18.66 4.02 28.14-12.92 14.64-27 32.73-31.58 47.66s-1.15 26.12 7.18 26.4c11.2.58 24.98-17.22 34.16-37.9 1.15-2.3 2.87-2.58 4.02-.3 1.43 3.16 1.72 10.05-1.44 17.8-6.6 16.65-23.26 28.7-38.47 28.14-20.67-.86-29-19.8-21.82-41.34 6.32-18.95 22.97-39.33 34.45-52.54-12.63 8.33-24.98 10.9-33.6 10.9-10.9 20.1-38.47 60.87-43.93 87-.57 2.58-2.3 4.02-4.88 1.43-8.33-8.6-8.33-21.82-.57-36.46 6.6-12.63 25.84-39.62 36.46-54.84-16.36-10.62 8.6-44.5 19.24-44.8 8.9-.3 6.6 16.36-.57 34.45 9.2-1.15 18.95-5.74 29.57-13.2z"/><path d="M268.44 700.65c23.83 1.15 44.8-21.82 57.13-40.77 1.44-2.3 3.73-2.3 4.88.3 1.15 2.3.3 10.34-4.88 17.8-12.06 17.5-34.17 30.72-56.27 31-36.46.57-49.1-35.3-30.43-72.35 18.66-37.04 47.95-51.97 62.3-43.64 7.18 4.3 12.35 8.6 16.94 14.93 5.17 6.9 2.87 24.4-9.2 39.05-14.07 17.23-33.3 24.7-53.4 8.33-9.2 26.4-2.3 44.5 12.92 45.35zm23.83-66.03c9.2-12.06 15.5-27 11.48-30.15-6.03-4.88-29.86 12.35-43.35 39.62-.86 1.72-1.72 3.45-2.3 4.88 14.07 8.9 25.84-3.44 34.17-14.35z"/><path d="M360.3 700.65c23.83 1.15 44.8-21.82 57.13-40.77 1.44-2.3 3.73-2.3 4.88.3 1.15 2.3.3 10.34-4.88 17.8-12.06 17.5-34.17 30.72-56.27 31-36.46.57-49.1-35.3-30.43-72.35s47.95-51.97 62.3-43.64c7.18 4.3 12.35 8.6 16.94 14.93 5.17 6.9 2.87 24.4-9.2 39.05-14.07 17.23-33.3 24.7-53.4 8.33-9.2 26.4-2.3 44.5 12.92 45.35zm23.83-66.03c9.2-12.06 15.5-27 11.48-30.15-6.03-4.88-29.86 12.35-43.35 39.62-.86 1.72-1.72 3.45-2.3 4.88 14.07 8.9 25.84-3.44 34.17-14.35z"/><path d="M500.7 591.84c9.48 1.44 18.38 15.5 11.2 30.43-6.03 12.63-20.1 33.88-26.7 48.8-7.47 16.65-5.74 30.14 4.6 29.57 11.77-.57 25.84-19.52 36.75-39.62 1.44-2.58 3.45-2.58 4.88-.3 2 3.16 1.43 9.76-2.58 18.1-7.75 16.08-25.84 30.72-42.5 30.72-24.4 0-30.15-17.8-21.82-42.78 9.48-28.14 34.74-58.57 29.57-60.87-2.87-1.15-19.52 6.9-37.9 27-16.94 18.38-29.57 45.94-41.92 72.93-1.15 2.58-2.87 3.73-5.46 1.15-5.74-5.74-7.46-15.22-2.87-29.57 5.74-18.1 27.85-58 45.94-84.7 2-3.16 4.3-2.87 6.03 0 4.3 7.18 4.02 16.94.86 27.28 12.92-13.78 32.44-29.57 41.92-28.14zm52.25 115.42c-2 3.16-4.88 4.6-8.62 1.44-10.05-8.9-12.34-19.8-7.75-39.62 10.34-43.64 33.6-109.67 47.66-136.66 2.3-4.3 5.17-4.6 7.18-1.15 4.88 8.33 5.46 18.66-2.87 40.77-9.47 25.84-23.54 63.16-35.9 103.93 26.7-43.64 70.92-103.93 100.5-139.82 2-2.3 4.88-3.16 7.18.3 5.74 8.33 7.18 15.5 0 37.32-9.2 27-21.25 62.02-32.16 103.64 29-47.37 84.7-121.16 109.96-148.15 3.44-3.45 6.3-2.87 6.9 1.15 1.72 10.05-2 22.4-16.65 41.63-20.96 27.56-63.45 80.4-98.2 133.8-2.3 3.44-4.88 4.88-8.6 1.43-9.76-8.9-13.2-19.24-8.9-39.62 4.6-21.24 14.35-52.82 23.83-79.8-25.85 33.88-59.15 80.68-83.55 119.44zm238.58-113.7c2.58-3.73 4.88-4.3 6.9-1.72 4.3 5.17 6.6 17.5-.3 31.87-6.32 12.92-20.67 34.45-27.56 49.67-7.18 16.08-7.46 28.42 2.3 27.85 11.77-.57 27.56-20.1 37.6-39.9 1.43-2.58 3.44-2.87 4.6-.3s1.15 9.76-2.6 17.8c-7.46 15.8-25.55 31.58-41.34 30.72-15.5-.86-23.55-10.05-23.55-23.54-9.2 11.77-22.1 22.4-35.9 22.4-26.7 0-32.15-36.46-8.33-71.2 23.26-33.88 45.94-46.8 60.3-46.8 12.34 0 18.1 9.47 17.5 20.67 3.75-6.9 7.2-12.92 10.36-17.5zm-22.97 11.77c-9.2-.86-30.15 17.8-45.94 43.35-15.22 24.7-18.95 49.96-7.75 50.24 11.77.3 26.7-18.1 41.34-43.35 18.1-31.58 20.67-49.38 12.35-50.24z"/><path d="M849.23 607.92c1.43-11.2 4.3-16.65 10.33-22.1 6.32-5.74 12.92-6.9 15.5-4.3 2.87 2.87 1.44 6.03-2.3 12.63-1.15 1.72-2 3.45-3.16 5.46-2 26.4 3.45 48.8 2.6 68.62-.58 11.2-2.6 23.26-12.92 30.15 19.24-7.18 31.3-24.4 38.47-39.9 1.43-3.16 4.3-2.3 5.45 0 1.15 2.58.86 10.05-4.02 18.95-10.9 19.8-30.43 30.72-50.82 31.58-16.65.57-32.73-3.73-42.5-21.53-6.9-12.92-6.03-31.87 3.73-39.9 3.45-2.87 5.74-1.72 6.03 2.87.3 2.3.3 4.6.58 6.9 11.78-16.08 24.7-34.75 33.03-49.4zm-30.43 64.9c4.3 16.65 12.63 28.42 22.1 25.55 13.2-4.02 8.9-49.1 7.75-72.06-8.33 15.2-18.95 31-29.86 46.5z"/><path d="M963.78 708.98c-24.12 0-30.15-17.5-21.53-42.5 9.47-27.85 34.45-57.7 29.86-60.3-4.02-2.3-35.3 17.22-51.96 44.5-10.34 16.94-20.96 37.04-27.85 54.55-1.15 2.58-3.16 3.16-4.88 1.15-4.6-5.17-7.18-13.2-1.15-30.44 10.05-28.7 69.76-129.77 93.02-158.77 2.58-3.44 5.45-3.16 6.9.3 3.73 8.33 2.87 22.68-8.04 40.77-6.9 11.48-22.1 34.74-34.45 53.97 11.77-11.48 26.7-20.96 34.45-20.1 9.76 1.15 18.66 15.5 11.2 30.15-6.3 12.63-20.1 33.6-26.7 48.52-7.18 16.65-5.75 30.15 4.88 29.57 11.77-.57 27.56-21.24 36.46-39.62 1.15-2.58 4.02-2.58 5.17-.3 1.44 3.16 1.44 9.2-2.87 17.8-8.05 16.38-25.56 30.73-42.5 30.73z"/></g><defs ><path  d="M61.77-71.65c.02.07.01.13-.03.2-.05.1-.1.06-.17.13a.64.64 0 0 0-.08.36c-.17.06-.01.23-.02.35 0 .05-.04.1-.04.16-.01.12.02.27.07.37a1.66 1.66 0 0 0 .44.54c.2.15.36.57.6.63.18.04.38-.1.54-.14.18-.04.4.01.57-.05.22-.08.13-.34.3-.45.1-.07.3-.01.4-.05.2-.07.34-.26.38-.46.02-.08.01-.14.04-.22.04-.1.1-.16.1-.3-.01-.06-.05-.12-.06-.2-.02-.1 0-.22 0-.34 0-.2.02-.38-.08-.55-.38-.7-1.24-.93-1.97-.8-.18.03-.3.13-.44.2-.17.1-.14.17-.32.22-.08.03-.22.12-.2.22 0 .12 0 .05.01.17-.02.01-.02 0-.03-.03"/><path  d="M69.44-25.74c.02.07.01.13-.03.2-.05.1-.1.06-.17.13a.64.64 0 0 0-.08.36c-.16.06 0 .23-.01.35 0 .05-.04.1-.04.16-.01.12.02.27.07.37a1.66 1.66 0 0 0 .44.54c.2.15.36.57.6.63.18.04.38-.1.54-.14.18-.04.4.01.57-.05.22-.08.13-.34.3-.45.1-.07.3-.01.4-.05.2-.07.34-.26.38-.46.02-.08.01-.14.04-.22.04-.1.1-.16.1-.3-.01-.06-.05-.12-.06-.2-.02-.1 0-.22 0-.34 0-.2.02-.38-.08-.55-.38-.7-1.24-.93-1.97-.8-.18.03-.3.13-.44.2-.17.1-.14.17-.32.22-.08.03-.22.12-.2.22 0 .12 0 .05.01.17-.02.01-.02 0-.03-.03"/><path  d="M54.12-10.43c.02.07.01.13-.03.2-.05.1-.1.06-.17.13a.64.64 0 0 0-.08.36c-.17.06-.01.23-.02.35 0 .05-.04.1-.04.16-.01.12.02.27.07.37a1.66 1.66 0 0 0 .44.54c.2.15.36.57.6.63.18.04.38-.1.54-.14.18-.04.4.01.57-.05.22-.08.13-.34.3-.45.1-.07.3-.01.4-.05.2-.07.34-.26.38-.46.01-.08 0-.15.03-.22.04-.1.1-.16.1-.3-.01-.06-.05-.12-.06-.2-.02-.1 0-.22 0-.34 0-.2.02-.38-.08-.55-.38-.7-1.24-.93-1.97-.8-.18.03-.3.13-.44.2-.17.1-.14.17-.32.22-.08.03-.22.12-.2.22 0 .12 0 .05.01.17-.02.01-.02 0-.03-.03"/></defs></svg>